<svg xmlns="http://www.w3.org/2000/svg" width="32.779" height="32.779" viewBox="0 0 32.779 32.779">
  <g id="opportunity" transform="translate(0)">
    <path id="Path_2979" data-name="Path 2979" d="M360,36.17V22.853l3.073-2.561v-7.17H360L364.674,8l4.546,5.122h-2.561v9.219L363.585,24.9V36.17Z" transform="translate(-336.952 -7.488)" fill="#ffd13e"/>
    <path id="Path_2980" data-name="Path 2980" d="M363.073,13.122v7.17L360,22.853V36.17h1.729V23.877l2.945-2.753V8L360,13.122Z" transform="translate(-336.952 -7.488)" fill="#ffe571"/>
    <path id="Path_2981" data-name="Path 2981" d="M17.731,36.17V22.853l-3.073-2.561v-7.17h3.073L13.058,8,8,13.122h3.073v9.219L14.146,24.9V36.17Z" transform="translate(-7.488 -7.488)" fill="#ffe571"/>
    <path id="Path_2982" data-name="Path 2982" d="M89.945,23.877V36.17h1.729V22.853L88.6,20.292v-7.17h3.073L87,8V21.125Z" transform="translate(-81.43 -7.488)" fill="#ffd13e"/>
    <path id="Path_2983" data-name="Path 2983" d="M150.853,307.841v6.914H148.4V316.8h-9.838v-2.049H136v-6.914A3.841,3.841,0,0,1,139.841,304h7.17A3.841,3.841,0,0,1,150.853,307.841Z" transform="translate(-127.293 -284.537)" fill="#84d2f4"/>
    <path id="Path_2984" data-name="Path 2984" d="M214.146,165.363a1.791,1.791,0,0,1-1.373,1.868,1.018,1.018,0,0,0-.676.963v1.024h-2.049v-1.024a1.018,1.018,0,0,0-.676-.963A1.791,1.791,0,0,1,208,165.363v-3.315A2.049,2.049,0,0,1,210.049,160H212.1a2.049,2.049,0,0,1,2.049,2.049Z" transform="translate(-194.684 -149.756)" fill="#894619"/>
    <path id="Path_2985" data-name="Path 2985" d="M138.561,472v2.049h-2.049L136,472Z" transform="translate(-127.293 -441.782)" fill="#fdcaa7"/>
    <path id="Path_2986" data-name="Path 2986" d="M332.124,472l-.512,2.049H329.67V472Z" transform="translate(-308.564 -441.782)" fill="#fdcaa7"/>
    <path id="Path_2987" data-name="Path 2987" d="M187.073,16.195V13.122H184L189.122,8l4.61,5.122h-3.073v3.073Z" transform="translate(-172.22 -7.488)" fill="#ffe571"/>
    <path id="Path_2988" data-name="Path 2988" d="M238,280.512v1.024h2.049v-1.024a1.03,1.03,0,0,1,.137-.512h-2.322A1.03,1.03,0,0,1,238,280.512Z" transform="translate(-222.639 -262.074)" fill="#fdcaa7"/>
    <path id="Path_2989" data-name="Path 2989" d="M142.522,165.357v-5.278a2.049,2.049,0,0,0-1.912,2.044v3.315a1.791,1.791,0,0,0,1.372,1.868,1.018,1.018,0,0,1,.676.963v1.024h-2.817A3.841,3.841,0,0,0,136,173.134v6.914h2.561v2.561h1.377v-2.561l0-7.17c-.1-2.569,4-3.585,4-3.585v-1.781a.972.972,0,0,0-.552-.877l-.088-.042A1.372,1.372,0,0,1,142.522,165.357Z" transform="translate(-127.293 -149.83)" fill="#fafbfc" opacity="0.2"/>
    <path id="Path_2990" data-name="Path 2990" d="M264.6,13.512h3.073l-4.495-4.994-.142-.1L263,8.454v8.131h1.6Z" transform="translate(-246.162 -7.878)" fill="#ffd13e"/>
    <path id="Path_2991" data-name="Path 2991" d="M128,165.573v6.914a.51.51,0,0,0,.015.124l.512,2.049.994-.248L129.168,173h1.393v1.537a.512.512,0,0,0,.512.512H140.8a.512.512,0,0,0,.512-.512V173h1.393l-.353,1.412.994.248.512-2.049a.511.511,0,0,0,.015-.124v-6.914a4.358,4.358,0,0,0-4.354-4.354h-1.793v-.512a.5.5,0,0,1,.333-.48,2.293,2.293,0,0,0,1.716-2.352v-3.315A2.564,2.564,0,0,0,137.219,152H135.17a2.564,2.564,0,0,0-2.561,2.561v3.315a2.292,2.292,0,0,0,1.716,2.352.5.5,0,0,1,.333.48v.512h-2.3A4.358,4.358,0,0,0,128,165.573Zm5.634-7.7v-3.315a1.538,1.538,0,0,1,1.537-1.537h2.049a1.538,1.538,0,0,1,1.537,1.537v3.315a1.292,1.292,0,0,1-1.029,1.385,1.508,1.508,0,0,0-.629.422h-1.805a1.508,1.508,0,0,0-.629-.423A1.291,1.291,0,0,1,133.634,157.876Zm2.049,2.831h1.024v.512h-1.024Zm-3.329,1.537h7.17a3.333,3.333,0,0,1,3.329,3.329v6.4h-1.537V163.78h-1.024v10.244h-8.707V163.78h-1.024v8.195h-1.537v-6.4a3.333,3.333,0,0,1,3.329-3.329Z" transform="translate(-119.805 -142.269)"/>
    <path id="Path_2992" data-name="Path 2992" d="M182.661,5.635V8.708h1.024V6.147h2.561a.512.512,0,0,0,.381-.855L182.017.171a.512.512,0,0,0-.743-.02l-5.122,5.122a.512.512,0,0,0,.362.874h2.561V8.708H180.1V5.635a.512.512,0,0,0-.512-.512h-1.837l3.866-3.866L185.1,5.123h-1.923A.512.512,0,0,0,182.661,5.635Z" transform="translate(-164.735 -0.001)"/>
    <path id="Path_2993" data-name="Path 2993" d="M.039,5.832a.512.512,0,0,0,.473.315H3.073v8.707a.512.512,0,0,0,.184.393l2.889,2.407V28.682H7.17V17.414a.512.512,0,0,0-.184-.393L4.1,14.613V5.634a.512.512,0,0,0-.512-.512H1.738L5.555,1.256,9.083,5.122H7.17a.512.512,0,0,0-.512.512V12.8a.512.512,0,0,0,.184.393l2.889,2.407v2.833h1.024V15.366a.512.512,0,0,0-.184-.393L7.682,12.565V6.146h2.561a.512.512,0,0,0,.378-.857L5.948.167A.512.512,0,0,0,5.205.152L.148,5.274a.512.512,0,0,0-.108.557Z" transform="translate(0 0)"/>
    <path id="Path_2994" data-name="Path 2994" d="M362.114,5.294,357.569.172a.512.512,0,0,0-.38-.172h0a.512.512,0,0,0-.378.167l-4.674,5.122a.512.512,0,0,0,.378.857h2.561v6.418l-2.889,2.407a.512.512,0,0,0-.184.394v3.073h1.024V15.605l2.889-2.407a.512.512,0,0,0,.184-.394V5.634a.512.512,0,0,0-.512-.512h-1.912l3.508-3.844,3.411,3.844H359.17a.512.512,0,0,0-.512.512v8.979l-2.889,2.407a.512.512,0,0,0-.184.394V28.682h1.024V17.654l2.889-2.407a.512.512,0,0,0,.184-.394V6.146h2.049a.512.512,0,0,0,.383-.852Z" transform="translate(-329.464)"/>
  </g>
</svg>
