<svg xmlns="http://www.w3.org/2000/svg" width="31.039" height="32.779" viewBox="0 0 31.039 32.779">
  <g id="rating-3" transform="translate(-13.589)">
    <g id="Group_393" data-name="Group 393" transform="translate(14.069 0.48)">
      <path id="Path_2715" data-name="Path 2715" d="M349.352,283.381v-7.339a4.741,4.741,0,0,0-4.256-4.716c-.159-.016-.321.023-.485.023a4.637,4.637,0,0,0-4.633,4.725v7.276Z" transform="translate(-319.563 -254.432)" fill="#855b51"/>
      <path id="Path_2716" data-name="Path 2716" d="M343.552,271.027a4.741,4.741,0,0,0-4.228,4.713v7.285l-1.024.024V275.74a4.74,4.74,0,0,1,4.74-4.74A4.675,4.675,0,0,1,343.552,271.027Z" transform="translate(-317.992 -254.13)" fill="#724d44"/>
      <path id="Path_2717" data-name="Path 2717" d="M394.321,395.368V390.4l-.2-.58.2-1.7h-2.646l.112,2.7-.112.9v3.659l1.323.2Z" transform="translate(-367.949 -363.748)" fill="#fce7d1"/>
      <path id="Path_2718" data-name="Path 2718" d="M352.855,432.191l-2.6,1.029.316,3.6h3.658l-.191-.21a5.341,5.341,0,0,1-1.123-3.648C352.907,432.665,352.855,432.491,352.855,432.191Z" transform="translate(-329.181 -405.001)" fill="#ffcf00"/>
      <path id="Path_2719" data-name="Path 2719" d="M352.836,431.136l-.008,0-2.581,1.061-.076-.868,2.658-1.092.112.446Z" transform="translate(-329.102 -403.175)" fill="#ffb65f"/>
      <path id="Path_2720" data-name="Path 2720" d="M416.371,431.358l-2.716-1.119c0,1.64-.018,3.326-1.141,4.555l-.182.2h4.39a.641.641,0,0,0,.641-.641v-1.513A1.6,1.6,0,0,0,416.371,431.358Z" transform="translate(-387.284 -403.174)" fill="#ffcf00"/>
      <path id="Path_2721" data-name="Path 2721" d="M391.673,388.119h0s0,2.281,0,2.281,0,1.014.008,1.312l.665-.273a.256.256,0,0,0,.159-.237v-.284a.128.128,0,0,1,.15-.126,2.035,2.035,0,0,0,.34.029,2.5,2.5,0,0,0,1.323-.417v-2.285h-2.645Z" transform="translate(-367.947 -363.751)" fill="#ffceb7"/>
      <path id="Path_2722" data-name="Path 2722" d="M367.263,306.94a3.237,3.237,0,0,0-.034.644c.35,1.7,1.729,3.411,2.874,3.411,1.323,0,2.958-2.282,2.958-4.2a3.628,3.628,0,0,0-1.158-2.856c-.158-.13-.288-.118-.476-.209a.1.1,0,0,0-.145.069,3.986,3.986,0,0,1-3.015,2.877l-.922.16C367.3,306.848,367.263,306.94,367.263,306.94Z" transform="translate(-345.054 -284.758)" fill="#fce7d1"/>
      <path id="Path_2723" data-name="Path 2723" d="M367.457,305.5a4.6,4.6,0,0,0,3.444-3.369,2.583,2.583,0,0,0-.519-.334.1.1,0,0,0-.145.069,3.969,3.969,0,0,1-2.994,2.886l-1.017.218a.1.1,0,0,0-.081.1h0a3.978,3.978,0,0,0,.083.7Z" transform="translate(-344.054 -282.946)" fill="#ffceb7"/>
      <path id="Path_2724" data-name="Path 2724" d="M32.087,433.435l-3.707-1.321a1.708,1.708,0,0,1-2.6-.093L23.1,433.133a1.477,1.477,0,0,0-1.008,1.374v1.449a.641.641,0,0,0,.641.641l.127.064h2.875l1.281-.164,1.365.164h2.365l1.343-.238Z" transform="translate(-22.026 -404.842)" fill="#ffd13e"/>
      <path id="Path_2725" data-name="Path 2725" d="M83.425,398.126H81l.011,1.925c.23.266.382.576.693.667a1.749,1.749,0,0,0,1.813-.534h0v-1.017Z" transform="translate(-77.164 -373.117)" fill="#fce7d1"/>
      <path id="Path_2726" data-name="Path 2726" d="M25.383,432.451,22.6,433.713l-.2.082a.766.766,0,0,0-.476.711v2.154h-.191a.641.641,0,0,1-.641-.641v-1.513a1.6,1.6,0,0,1,.992-1.481l2.593-1.005a3.609,3.609,0,0,0,.708.43Z" transform="translate(-21.09 -404.842)" fill="#ffd13e"/>
      <path id="Path_2727" data-name="Path 2727" d="M46.233,431.485l-3.023,3.509H40.564l-2.2-2.948-.427-.651,1.449-.5,1.18-.651a1.75,1.75,0,0,0,2.645,0h0Z" transform="translate(-36.857 -403.175)" fill="#ffd13e"/>
      <path id="Path_2728" data-name="Path 2728" d="M79.832,398.13H79v2.187l.661.411a.979.979,0,0,1,.171-.008v-1.07a.128.128,0,0,1,.148-.126,2.23,2.23,0,0,0,.342.027,2.709,2.709,0,0,0,1.323-.381v-1.04Z" transform="translate(-75.292 -373.121)" fill="#ffceb7"/>
      <g id="Group_388" data-name="Group 388" transform="translate(0.992 27.065)">
        <path id="Path_2729" data-name="Path 2729" d="M40.137,430.775h0L37.1,432.046l-.513-.687,2.715-1.119A1.678,1.678,0,0,0,40.137,430.775Z" transform="translate(-36.59 -430.24)" fill="#ffd13e"/>
      </g>
      <path id="Path_2730" data-name="Path 2730" d="M58.154,294.668c0-2.014-1.033-3.242-3.047-3.242s-3.047,1.228-3.047,3.242a4.111,4.111,0,0,0,.147,1.274c.5,1.557,1.8,2.9,2.9,2.9s2.376-1.322,2.886-2.861a4.132,4.132,0,0,0,.161-1.317Z" transform="translate(-50.077 -273.249)" fill="#fce7d1"/>
      <path id="Path_2731" data-name="Path 2731" d="M55.891,291.829a2.066,2.066,0,0,0-.583.15l0,.006a1.228,1.228,0,0,0-.124-.44,4.02,4.02,0,0,0-1.01-.121,2.9,2.9,0,0,0-3.111,3.242,4.183,4.183,0,0,0,.212,1.274c.045-.041.093-.086.146-.14a6.376,6.376,0,0,1,1.86-1.428,4.61,4.61,0,0,0,1.209-.545.128.128,0,0,1,.2.031,3.061,3.061,0,0,0,1.113.973,4.184,4.184,0,0,1,1.261,1.15,4.206,4.206,0,0,0,.225-1.316,3.035,3.035,0,0,0-1.392-2.838Z" transform="translate(-49.142 -273.248)" fill="#ffceb7"/>
      <path id="Path_2732" data-name="Path 2732" d="M109.622,284.747a2.118,2.118,0,0,1,.809-.234,1.817,1.817,0,0,1,1.328.51c1.211,1.227.575,3.118.11,3.948a.128.128,0,0,1-.208.023,7.858,7.858,0,0,0-1.575-1.358,2.962,2.962,0,0,1-.642-.552,2.288,2.288,0,0,1-.359-.8Z" transform="translate(-103.45 -266.778)" fill="#8e868e"/>
      <path id="Path_2733" data-name="Path 2733" d="M109.025,285.712a3.6,3.6,0,0,1-.857,1.369,2.311,2.311,0,0,1-.448-.752l.62-1.654a2.134,2.134,0,0,1,.814-.165A2.637,2.637,0,0,1,109.025,285.712Z" transform="translate(-102.174 -266.775)" fill="#766d78"/>
      <path id="Path_2734" data-name="Path 2734" d="M44.9,269.591a1.483,1.483,0,0,0-1.055-.613,3.635,3.635,0,0,0-2.526.849c-1.609,1.176-1.28,3.479-.775,4.5a.128.128,0,0,0,.22.019c.088-.121.227-.211.423-.411a5.167,5.167,0,0,1,1.924-1.235C44.723,272.114,45.449,270.451,44.9,269.591Z" transform="translate(-38.909 -252.215)" fill="#8e868e"/>
      <path id="Path_2735" data-name="Path 2735" d="M43.628,268.877a3.925,3.925,0,0,0-1.736.73c-1.4,1.02-1.307,3.042-.929,4.227a4.392,4.392,0,0,0-.424.5.129.129,0,0,1-.22-.019c-.5-1.023-.869-3.53.74-4.706A3.556,3.556,0,0,1,43.628,268.877Z" transform="translate(-38.687 -252.114)" fill="#766d78"/>
      <path id="Path_2736" data-name="Path 2736" d="M37.418,100.832l-1.488-.008a.687.687,0,0,0-.482.2l-1,.985a.343.343,0,0,1-.483,0l-.982-.98a.687.687,0,0,0-.485-.2H30.952a1.236,1.236,0,0,1-1.236-1.236V95.26a1.268,1.268,0,0,1,.768-1.233,1.235,1.235,0,0,1,.4-.067h7.869v5.692a1.234,1.234,0,0,1-.068.4A1.329,1.329,0,0,1,37.418,100.832Z" transform="translate(-29.164 -88.425)" fill="#84d2f4"/>
      <path id="Path_2737" data-name="Path 2737" d="M37.757,101.048a1.236,1.236,0,0,1-1.168.832H35.063a.689.689,0,0,0-.482.2l-1.066,1.049a.344.344,0,0,1-.483,0l-1.045-1.044a.689.689,0,0,0-.485-.2H29.956a1.236,1.236,0,0,1-1.236-1.236V96.188a1.235,1.235,0,0,1,.832-1.168v5.624a.4.4,0,0,0,.4.4H31.5a1.509,1.509,0,0,1,1.073.444l.523.522a.257.257,0,0,0,.361,0l.54-.531a1.519,1.519,0,0,1,1.065-.436Z" transform="translate(-28.232 -89.417)" fill="#57b7eb"/>
      <g id="Group_389" data-name="Group 389" transform="translate(3.036 7.75)">
        <path id="Path_2738" data-name="Path 2738" d="M71.7,128.859a.149.149,0,0,0,.2,0,1.142,1.142,0,0,1,.783-.306,1.12,1.12,0,0,1,1.118,1.124c-.012.809-.874,1.5-1.464,1.88a2.32,2.32,0,0,1-.473.192.15.15,0,0,1-.135,0c-.353-.174-1.872-.948-1.849-2.076a1.076,1.076,0,0,1,.624-1.008,1.1,1.1,0,0,1,.126-.072,1.075,1.075,0,0,1,.288-.041A1.12,1.12,0,0,1,71.7,128.859Z" transform="translate(-69.792 -128.552)" fill="#fc5d3d"/>
        <path id="Path_2739" data-name="Path 2739" d="M71.062,132.162c-.208.134-.383.229-.473.276a.148.148,0,0,1-.135,0c-.353-.174-1.959-1.029-1.936-2.158a1.168,1.168,0,0,1,.837-1.082,1.148,1.148,0,0,0-.261.7C69.075,130.811,70.378,131.746,71.062,132.162Z" transform="translate(-68.517 -129.158)" fill="#fc5d3d"/>
      </g>
      <path id="Path_2740" data-name="Path 2740" d="M349.594,100.823h-1.526a.687.687,0,0,0-.482.2l-1,1.049a.343.343,0,0,1-.483,0l-.982-1.044a.687.687,0,0,0-.485-.2h-1.545a1.236,1.236,0,0,1-1.236-1.236l.082-5.5,1.247-.127h6.477a1.236,1.236,0,0,1,1.236,1.236v4.456a1.233,1.233,0,0,1-.068.4A1.268,1.268,0,0,1,349.594,100.823Z" transform="translate(-321.317 -88.424)" fill="#84d2f4"/>
      <g id="Group_390" data-name="Group 390" transform="translate(23.02 7.75)">
        <path id="Path_2741" data-name="Path 2741" d="M383.834,128.859a.149.149,0,0,0,.2,0,1.142,1.142,0,0,1,.783-.306,1.12,1.12,0,0,1,1.118,1.124c-.012.809-.874,1.5-1.464,1.88a2.321,2.321,0,0,1-.473.192.15.15,0,0,1-.135,0c-.353-.174-1.872-.948-1.849-2.076a1.076,1.076,0,0,1,.624-1.008,1.1,1.1,0,0,1,.126-.072,1.076,1.076,0,0,1,.288-.041A1.12,1.12,0,0,1,383.834,128.859Z" transform="translate(-381.931 -128.552)" fill="#fc5d3d"/>
        <path id="Path_2742" data-name="Path 2742" d="M383.2,132.162c-.208.134-.383.229-.473.276a.148.148,0,0,1-.135,0c-.353-.174-1.959-1.029-1.936-2.158a1.168,1.168,0,0,1,.837-1.082,1.148,1.148,0,0,0-.261.7C381.214,130.811,382.517,131.746,383.2,132.162Z" transform="translate(-380.656 -129.158)" fill="#fc5d3d"/>
      </g>
      <path id="Path_2743" data-name="Path 2743" d="M347.193,100.055a1.512,1.512,0,0,0-1.065.436l-.63.62a.129.129,0,0,1-.181,0l-.613-.612a1.518,1.518,0,0,0-1.073-.444h-1.545a.4.4,0,0,1-.4-.4V97.409a.128.128,0,0,1,.031-.083,1.754,1.754,0,0,0,.165-.228,2.552,2.552,0,0,0,.364-1.314V93.959H340.85v5.692a1.236,1.236,0,0,0,1.236,1.236h1.545a.689.689,0,0,1,.485.2l1.046,1.044a.344.344,0,0,0,.483,0l1.066-1.049a.688.688,0,0,1,.481-.2h1.526a1.236,1.236,0,0,0,1.168-.832h-2.695Z" transform="translate(-320.378 -88.424)" fill="#57b7eb"/>
      <path id="Path_2744" data-name="Path 2744" d="M173.276,16.426l-1.85.063a1.03,1.03,0,0,0-.768.343l-1.075,1.183a.481.481,0,0,1-.719,0l-.994-1.2a1.03,1.03,0,0,0-.773-.349l-2.121.119a1.717,1.717,0,0,1-1.717-1.717V9.217A1.716,1.716,0,0,1,164.976,7.5h8.5a1.717,1.717,0,0,1,1.717,1.717V14.86a1.709,1.709,0,0,1-.245.885,1.957,1.957,0,0,1-1.667.681Z" transform="translate(-154.157 -7.5)" fill="#84d2f4"/>
      <path id="Path_2745" data-name="Path 2745" d="M174.945,19.33a1.717,1.717,0,0,1-1.472.832h-2.047a1.032,1.032,0,0,0-.768.343l-1.072,1.2a.48.48,0,0,1-.719,0l-1.047-1.189a1.029,1.029,0,0,0-.773-.35h-2.07a1.717,1.717,0,0,1-1.717-1.717V12.8a1.717,1.717,0,0,1,.832-1.472v7.115a.885.885,0,0,0,.885.885h2.07a1.861,1.861,0,0,1,1.4.632l.642.729a.192.192,0,0,0,.287,0l.664-.741a1.861,1.861,0,0,1,1.388-.62Z" transform="translate(-154.158 -11.085)" fill="#57b7eb"/>
      <path id="Path_2746" data-name="Path 2746" d="M213.051,44.43a.229.229,0,0,0,.313,0,1.752,1.752,0,0,1,1.2-.47,1.718,1.718,0,0,1,1.715,1.724c-.019,1.3-1.472,2.4-2.374,2.964a4.24,4.24,0,0,1-.578.27.229.229,0,0,1-.207,0c-.542-.267-2.906-1.408-2.871-3.138a1.822,1.822,0,0,1,1.09-1.735,1.651,1.651,0,0,1,.517-.087A1.717,1.717,0,0,1,213.051,44.43Z" transform="translate(-198.139 -41.624)" fill="#fc5d3d"/>
      <path id="Path_2747" data-name="Path 2747" d="M212.171,49.931c-.262.163-.478.28-.6.343a.23.23,0,0,1-.207,0c-.542-.268-3.005-1.579-2.971-3.309A1.791,1.791,0,0,1,209.6,45.33a1.764,1.764,0,0,0-.5,1.188C209.069,48,211.21,49.39,212.171,49.931Z" transform="translate(-196.403 -42.908)" fill="#dc4955"/>
      <path id="Path_2748" data-name="Path 2748" d="M233.532,357.911H230.2l.158,2.222-.158,1.175h0a2.48,2.48,0,0,0,.443.5,2.337,2.337,0,0,0,2.411.09c.194-.116.32-.411.477-.592h0V359.9l-.135-.221Z" transform="translate(-216.811 -335.477)" fill="#fce7d1"/>
      <path id="Path_2749" data-name="Path 2749" d="M170.617,415.139l-1.743-.718-1.736-.528a2.206,2.206,0,0,1-3.332.091l-3.351,1.155a1.923,1.923,0,0,0-1.19,1.778l.064,2.649.64.128h4.206l1.361-.309,1.206.309h5.065v-2.777A1.923,1.923,0,0,0,170.617,415.139Z" transform="translate(-150.418 -387.875)" fill="#ffd13e"/>
      <path id="Path_2750" data-name="Path 2750" d="M231.032,357.91H230.2v3.4c.1.121.057.324.179.416.139.1.448.094.6.161h0V360.3a.128.128,0,0,1,.157-.125,3.35,3.35,0,0,0,.726.111,3.652,3.652,0,0,0,1.666-.4V357.91h-2.5Z" transform="translate(-216.812 -335.476)" fill="#ffceb7"/>
      <path id="Path_2751" data-name="Path 2751" d="M162.639,412.452l-1.927.825-1.944.8a1.087,1.087,0,0,0-.675,1.008v2.777h-.832v-2.777a1.922,1.922,0,0,1,1.19-1.777l1.734-.714.791-.244.919-.413A1.9,1.9,0,0,0,162.639,412.452Z" transform="translate(-148.542 -386.043)" fill="#ffd13e"/>
      <path id="Path_2752" data-name="Path 2752" d="M210.806,411.685l-.072.084a8.884,8.884,0,0,0-2.06,5.118v.071h-2.568v-.046a8.882,8.882,0,0,0-1.587-4.54,7.638,7.638,0,0,0-.436-.637l-.019-.025,1.673-.674a2.013,2.013,0,0,0,.783.512,2.205,2.205,0,0,0,2.549-.577h0Z" transform="translate(-192.35 -385.139)" fill="#ffd13e"/>
      <path id="Path_2753" data-name="Path 2753" d="M205.468,411.547l-2,.825q-.237-.34-.508-.658l-.019-.025,1.745-.719a2.2,2.2,0,0,0,.517.439l.052.031A2.212,2.212,0,0,0,205.468,411.547Z" transform="translate(-191.298 -385.139)" fill="#ffd13e"/>
      <path id="Path_2754" data-name="Path 2754" d="M206.719,235.662c0-2.412-1.213-4.344-3.624-4.344s-3.505,1.949-3.505,4.361a7.066,7.066,0,0,0-.112,1.237c.36,2.06,1.608,4.055,3.617,4.055,2.139,0,3.415-2.262,3.676-4.456A7.263,7.263,0,0,0,206.719,235.662Z" transform="translate(-188.041 -216.989)" fill="#fce7d1"/>
      <path id="Path_2755" data-name="Path 2755" d="M205.474,235.686a4.278,4.278,0,0,0-2.024-3.971.065.065,0,0,1-.113-.057,3.676,3.676,0,0,0-1.588-.338c-2.412,0-3.726,1.955-3.726,4.367a7.176,7.176,0,0,0,.109,1.231,1.713,1.713,0,0,1,.206-.2c.631-.594,1.536-.615,1.632-1.236a.128.128,0,0,1,.161-.107,2.207,2.207,0,0,0,2.272-1.045.128.128,0,0,1,.2-.038,1.4,1.4,0,0,0,1.053.289.128.128,0,0,1,.135.086c.362,1.059,1.356.671,1.633,1.847A7.033,7.033,0,0,0,205.474,235.686Z" transform="translate(-186.695 -216.99)" fill="#ffceb7"/>
      <g id="Group_391" data-name="Group 391" transform="translate(9.78 12.292)">
        <path id="Path_2756" data-name="Path 2756" d="M183.178,202.624c-.034-.01-.1-.022-.148-.031a.063.063,0,0,1-.047-.089,1.344,1.344,0,0,0-2.164-1.526.064.064,0,0,1-.108-.032,1.632,1.632,0,0,0-2.627-.956.064.064,0,0,1-.09-.009,1.343,1.343,0,0,0-2.361.683.064.064,0,0,1-.06.056,1.919,1.919,0,0,0-.435.076,1.89,1.89,0,0,0-1.287,1.876,1.724,1.724,0,0,0,.49,1.21.061.061,0,0,1,.016.045,5.7,5.7,0,0,0,.06,1.3,1.7,1.7,0,0,0,.981,1.306.642.642,0,0,1,.315-.557c.391-.324,1.067-.382,1.238-.979a.063.063,0,0,1,.07-.046,3.287,3.287,0,0,0,.456.054,2.305,2.305,0,0,0,2.152-1.479.061.061,0,0,1,.106-.015,1.569,1.569,0,0,0,1.656.539.063.063,0,0,1,.077.042c.393,1.284,1.376.869,1.376,2.067.644-.291,1.029-1.285,1.212-1.945A1.294,1.294,0,0,0,183.178,202.624Z" transform="translate(-173.849 -199.5)" fill="#855b51"/>
      </g>
      <g id="Group_392" data-name="Group 392" transform="translate(9.694 13.589)">
        <path id="Path_2757" data-name="Path 2757" d="M174.449,224.93a.768.768,0,0,0-.278.636,1.84,1.84,0,0,1-1.094-1.351,5.783,5.783,0,0,1-.067-1.3.061.061,0,0,0-.016-.045,1.92,1.92,0,0,1,.88-3.126,1.919,1.919,0,0,0-.176,2.741.061.061,0,0,1,.016.045,5.783,5.783,0,0,0,.067,1.3A1.79,1.79,0,0,0,174.449,224.93Z" transform="translate(-172.5 -219.75)" fill="#724d44"/>
      </g>
    </g>
    <g id="Group_395" data-name="Group 395" transform="translate(13.589 0)">
      <g id="Group_394" data-name="Group 394">
        <path id="Path_2758" data-name="Path 2758" d="M375.358,125.241a.632.632,0,0,0,.57-.006c.51-.266,2.176-1.238,2.2-2.574a1.608,1.608,0,0,0-2.483-1.352,1.592,1.592,0,0,0-.873-.259,1.655,1.655,0,0,0-1.613,1.594c-.028,1.387,1.68,2.339,2.2,2.6Zm-.6-3.231h0a.641.641,0,0,1,.441.177h0a.631.631,0,0,0,.86,0,.648.648,0,0,1,1.094.459c-.009.633-.906,1.3-1.53,1.656-.631-.34-1.531-.994-1.518-1.639A.681.681,0,0,1,374.762,122.01Z" transform="translate(-350.134 -113.299)"/>
        <path id="Path_2759" data-name="Path 2759" d="M63.219,125.241a.632.632,0,0,0,.57-.006c.51-.266,2.176-1.238,2.2-2.575a1.608,1.608,0,0,0-2.483-1.351,1.593,1.593,0,0,0-.884-.259,1.631,1.631,0,0,0-1.6,1.594C60.987,124.031,62.695,124.982,63.219,125.241Zm-.6-3.231h0a.641.641,0,0,1,.441.177h0a.631.631,0,0,0,.86,0,.648.648,0,0,1,1.094.459c-.009.633-.906,1.3-1.53,1.656-.631-.34-1.531-.994-1.518-1.639A.681.681,0,0,1,62.624,122.009Z" transform="translate(-57.978 -113.299)"/>
        <path id="Path_2760" data-name="Path 2760" d="M22.931,13.423h1.545a.205.205,0,0,1,.146.06l1.046,1.044a.826.826,0,0,0,1.159,0l1.066-1.049a.205.205,0,0,1,.145-.059h1.526a1.718,1.718,0,0,0,1.716-1.716v-1.8a2.187,2.187,0,0,0,.745.13H34.1a.55.55,0,0,1,.413.186l1.047,1.189a.961.961,0,0,0,.717.326h0a.962.962,0,0,0,.716-.32l1.072-1.2a.55.55,0,0,1,.41-.183h2.047A2.189,2.189,0,0,0,41.2,9.93v1.777a1.718,1.718,0,0,0,1.716,1.716H44.46a.205.205,0,0,1,.146.06l1.046,1.044a.826.826,0,0,0,1.159,0l1.066-1.049a.205.205,0,0,1,.145-.059h1.526a1.718,1.718,0,0,0,1.716-1.716V7.251a1.718,1.718,0,0,0-1.716-1.716H42.719V2.2a2.2,2.2,0,0,0-2.2-2.2H36.61a.48.48,0,0,0,0,.96h3.912A1.238,1.238,0,0,1,41.758,2.2V7.84a1.238,1.238,0,0,1-1.237,1.237H38.475a1.512,1.512,0,0,0-1.126.5l-1.073,1.2L35.23,9.589A1.511,1.511,0,0,0,34.1,9.077h-2.07A1.238,1.238,0,0,1,30.789,7.84V2.2A1.238,1.238,0,0,1,32.026.96h2.343a.48.48,0,0,0,0-.96H32.026a2.2,2.2,0,0,0-2.2,2.2V5.535h-6.9a1.718,1.718,0,0,0-1.716,1.716v4.456A1.718,1.718,0,0,0,22.931,13.423ZM49.548,6.5a.757.757,0,0,1,.756.756v4.456a.757.757,0,0,1-.756.756H48.022a1.16,1.16,0,0,0-.818.335l-.969.954-.95-.948a1.159,1.159,0,0,0-.824-.341H42.915a.757.757,0,0,1-.756-.756V9.3a2.188,2.188,0,0,0,.56-1.463V6.5h6.829Zm-27.373.756a.757.757,0,0,1,.756-.756h6.9V7.84a2.186,2.186,0,0,0,.491,1.383v2.484a.757.757,0,0,1-.756.756H28.038a1.16,1.16,0,0,0-.818.335l-.969.954L25.3,12.8a1.159,1.159,0,0,0-.824-.341H22.931a.757.757,0,0,1-.756-.756V7.252Z" transform="translate(-20.727 0)"/>
        <path id="Path_2761" data-name="Path 2761" d="M200.9,38.647c-.04,1.977,2.468,3.37,3.238,3.75a.712.712,0,0,0,.642-.007c.751-.391,3.2-1.817,3.23-3.726a2.211,2.211,0,0,0-3.554-1.756,2.2,2.2,0,0,0-1.353-.455A2.244,2.244,0,0,0,200.9,38.647Zm2.209-1.234h.009a1.239,1.239,0,0,1,.852.341h0a.71.71,0,0,0,.97,0,1.251,1.251,0,0,1,2.11.9c-.015,1.063-1.385,2.172-2.6,2.828-1.234-.632-2.611-1.723-2.589-2.812A1.294,1.294,0,0,1,203.1,37.413Z" transform="translate(-188.903 -34.118)"/>
        <path id="Path_2762" data-name="Path 2762" d="M44.338,208.792V201.8a5.222,5.222,0,0,0-7.6-4.646.48.48,0,0,0,.439.854,4.213,4.213,0,0,1,1.944-.468,4.265,4.265,0,0,1,4.26,4.26v6.147l-.039-.018h0l-2.418-1v-.939a5.681,5.681,0,0,0,1.635-3.764,3.769,3.769,0,0,0-2.088-3.685.481.481,0,0,0-.372,0,.5.5,0,0,0-.284.341,3.464,3.464,0,0,1-2.653,2.64l-1.1.235a.557.557,0,0,0-.378.566A5.7,5.7,0,0,0,37.315,206v.933l-1.91.787a2.391,2.391,0,0,0-.547-.494V201.8a4.233,4.233,0,0,1,.769-2.443.48.48,0,0,0-.786-.551A5.188,5.188,0,0,0,33.9,201.8v4.982L31.27,205.7v-1.824a6.459,6.459,0,0,0,2.048-4.452,3.918,3.918,0,0,0,1.2-2.1,1.781,1.781,0,0,0-.234-1.467,1.76,1.76,0,0,0-.723-.62,1.842,1.842,0,0,0,.022-.49,1.824,1.824,0,0,0-2.6-1.482,2.114,2.114,0,0,0-2.893-.875,1.825,1.825,0,0,0-2.862.87,2.4,2.4,0,0,0-1.443,3.827,6.064,6.064,0,0,0,.082,1.244,2.285,2.285,0,0,0,1.121,1.574,7.867,7.867,0,0,0,.183.93.506.506,0,0,0,.586.343.48.48,0,0,0,.343-.586,6.912,6.912,0,0,1-.184-1c-.021-.186.048-.267.469-.473a1.94,1.94,0,0,0,.875-.668,2.809,2.809,0,0,0,2.545-1.242,2.148,2.148,0,0,0,1.336.353,2.227,2.227,0,0,0,.857.945c.286.2.374.258.376.621-.1,2.244-1.341,4.561-3.251,4.561a2.708,2.708,0,0,1-2.173-1.233.48.48,0,1,0-.777.564,4.481,4.481,0,0,0,.8.858V205.7l-3.182,1.311a2.4,2.4,0,0,0-.96.719l-1.932-.8v-1.476a5.592,5.592,0,0,0,1.559-2.442.48.48,0,0,0,.336-.216c.5-.78,1.458-3.144-.079-4.7a2.382,2.382,0,0,0-2.155-.606,1.519,1.519,0,0,0-.1-.185c-.648-1.013-2.325-1.155-3.816-.323a.48.48,0,1,0,.468.839c1.118-.624,2.216-.5,2.539,0a1.047,1.047,0,0,1,.024.882,2.578,2.578,0,0,1-1.572,1.518,5.638,5.638,0,0,0-2.17,1.42,4.373,4.373,0,0,1-.037-2.36.48.48,0,0,0-.919-.277,5.262,5.262,0,0,0,.424,3.831.48.48,0,0,0,.348.218,5.607,5.607,0,0,0,1.546,2.4v1.48c-.044.019-2.4.986-2.445,1.009a2.075,2.075,0,0,0-1.262,1.913v1.513a1.122,1.122,0,0,0,1.121,1.121h28.8a1.122,1.122,0,0,0,1.121-1.121v-1.513a2.079,2.079,0,0,0-.29-1.061ZM31.912,196.884a.48.48,0,0,0-.611-.327,1.089,1.089,0,0,1-1.238-.426.48.48,0,0,0-.854.12,1.821,1.821,0,0,1-1.734,1.255,3.27,3.27,0,0,1-.422-.056.48.48,0,0,0-.559.368c-.041.188-.184.273-.524.436a1.956,1.956,0,0,0-.8.588,1.313,1.313,0,0,1-.356-.688,5.364,5.364,0,0,1-.058-1.195.48.48,0,0,0-.126-.364,1.44,1.44,0,0,1,1.014-2.417.48.48,0,0,0,.464-.435.863.863,0,0,1,1.548-.44.48.48,0,0,0,.7.071,1.152,1.152,0,0,1,1.9.735.48.48,0,0,0,.847.253.857.857,0,0,1,.745-.31.864.864,0,0,1,.679,1.276.48.48,0,0,0,.371.709.806.806,0,0,1,.591.353.822.822,0,0,1,.107.677,4.531,4.531,0,0,1-.487,1.18,1.863,1.863,0,0,0-.563-.531A1.284,1.284,0,0,1,31.912,196.884Zm5.447,5.579a4.428,4.428,0,0,0,3.207-2.756,3.113,3.113,0,0,1,1.03,2.522c0,1.723-1.5,3.717-2.478,3.717-.907,0-2.261-1.7-2.454-3.333Zm-9.088,9.064a9.434,9.434,0,0,0-1.788-4.587l.861-.355a2.681,2.681,0,0,0,1.779.676h0a2.682,2.682,0,0,0,1.78-.675l.848.349a9.44,9.44,0,0,0-1.8,4.593Zm4.4-4.214,1.415.583a1.438,1.438,0,0,1,.893,1.334v2.3H30.916A8.466,8.466,0,0,1,32.67,207.313Zm-3.548-2.663a3.3,3.3,0,0,0,1.187-.217v1.394a1.723,1.723,0,0,1-1.186.473h0a1.723,1.723,0,0,1-1.186-.473v-1.393A3.32,3.32,0,0,0,29.122,204.65Zm-6.815,6.877H21.47l.837-.972Zm.006-2.45-2.111,2.45H18.017l-2.2-2.947,1.851-.763a2.229,2.229,0,0,0,1.432.521h0a2.228,2.228,0,0,0,1.432-.521l1.864.768A2.406,2.406,0,0,0,22.313,209.076Zm-.278-10.306a2.71,2.71,0,0,1,.243,2.934,8.127,8.127,0,0,0-1.315-1.063,2.316,2.316,0,0,1-.79-.824,3.132,3.132,0,0,0,.414-.805,2.5,2.5,0,0,0,.123-.569A1.456,1.456,0,0,1,22.035,198.77Zm-5.476,3.611a4.664,4.664,0,0,1,1.875-1.256,3.78,3.78,0,0,0,1.055-.588,3.347,3.347,0,0,0,.957.914,7.207,7.207,0,0,1,1.185.966c-.37,1.577-1.661,2.889-2.532,2.889S16.919,203.97,16.559,202.381Zm2.54,3.884a2.161,2.161,0,0,0,.843-.185v.977a1.269,1.269,0,0,1-.843.32h0a1.269,1.269,0,0,1-.843-.32v-.978a2.15,2.15,0,0,0,.842.187Zm-4.55,5.1v-1.513a1.118,1.118,0,0,1,.386-.847l1.883,2.521H14.71A.161.161,0,0,1,14.549,211.366Zm8.718-2.136a1.438,1.438,0,0,1,.893-1.334l1.4-.578a8.463,8.463,0,0,1,1.739,4.209H23.268v-2.3Zm12.671,2.3v-2.3a2.413,2.413,0,0,0-.092-.656l1.471-.606a6.772,6.772,0,0,0,.8,3.559Zm2.336-4.275V206.7a1.806,1.806,0,0,0,1.686,0s0,.507,0,.557c0,1.441,0,2.928-.843,4.024-.842-1.094-.843-2.583-.843-4.025A.006.006,0,0,0,38.275,207.251Zm5.393,4.114a.161.161,0,0,1-.161.161H40.113a6.773,6.773,0,0,0,.8-3.559l2.056.847h0a1.118,1.118,0,0,1,.695,1.037Z" transform="translate(-13.589 -179.708)"/>
      </g>
    </g>
  </g>
</svg>
