<svg xmlns="http://www.w3.org/2000/svg" width="49.803" height="53.644" viewBox="0 0 49.803 53.644">
  <g id="food-store" transform="translate(-11.42 -2.428)">
    <path id="Path_4353" data-name="Path 4353" d="M69.282,96.156v27.268a2.135,2.135,0,0,1-2.136,2.136H27.626a2.135,2.135,0,0,1-2.136-2.136V96.156a4.689,4.689,0,0,0,6.9-4.325,4.885,4.885,0,1,0,9.757-.361,5.24,5.24,0,1,0,10.479,0,4.885,4.885,0,1,0,9.757.361A4.69,4.69,0,0,0,69.282,96.156Z" transform="translate(-11.065 -70.023)" fill="#72c1e8"/>
    <g id="Group_4379" data-name="Group 4379" transform="translate(11.954 19.136)">
      <path id="Path_4354" data-name="Path 4354" d="M23.291,80.65v2.672a4.687,4.687,0,1,1-9.371.194V80.65Z" transform="translate(-13.92 -80.65)" fill="#fc5d3d"/>
      <path id="Path_4355" data-name="Path 4355" d="M207.581,80.65v2.866a4.687,4.687,0,1,1-9.371-.194V80.65Z" transform="translate(-158.846 -80.65)" fill="#fc5d3d"/>
      <path id="Path_4356" data-name="Path 4356" d="M113.949,80.66v2.309a5.24,5.24,0,0,1-10.479,0V80.66Z" transform="translate(-84.342 -80.658)" fill="#fc5d3d"/>
      <path id="Path_4357" data-name="Path 4357" d="M103.47,80.65h10.479v0H103.47Z" transform="translate(-84.342 -80.65)" fill="#fc5d3d"/>
    </g>
    <path id="Path_4358" data-name="Path 4358" d="M162.287,80.66v2.67a4.885,4.885,0,1,1-9.757-.361V80.66Z" transform="translate(-110.969 -61.522)" fill="#f2e1d6"/>
    <path id="Path_4359" data-name="Path 4359" d="M152.53,80.65h9.757v0H152.53Z" transform="translate(-110.969 -61.514)" fill="#f2e1d6"/>
    <path id="Path_4360" data-name="Path 4360" d="M67.547,80.66v2.309a4.885,4.885,0,1,1-9.757.361V80.66Z" transform="translate(-36.465 -61.522)" fill="#f2e1d6"/>
    <path id="Path_4361" data-name="Path 4361" d="M57.79,80.65h9.757v0H57.79Z" transform="translate(-36.465 -61.514)" fill="#f2e1d6"/>
    <path id="Path_4362" data-name="Path 4362" d="M75.908,151.3H41.268a.534.534,0,0,1,0-1.068h34.32V127.856a.534.534,0,1,1,1.068,0v22.7A.749.749,0,0,1,75.908,151.3Zm-36.776,0h-.608a.534.534,0,0,1,0-1.068h.608a.534.534,0,0,1,0,1.068Z" transform="translate(-20.895 -98.217)" fill="#c5e5ff"/>
    <path id="Path_4363" data-name="Path 4363" d="M23.416,91.708a3.406,3.406,0,0,1-.505-.038.534.534,0,1,1,.159-1.056,2.305,2.305,0,0,0,.346.026.534.534,0,0,1,0,1.068Zm-2.647-1.281a3.388,3.388,0,0,1-.731-2.1V87.3a.534.534,0,0,1,1.068,0v1.025a2.284,2.284,0,0,0,.5,1.433.534.534,0,1,1-.836.664Z" transform="translate(-6.776 -66.327)" fill="#ffcbc2"/>
    <path id="Path_4364" data-name="Path 4364" d="M67.476,91.708a3.581,3.581,0,0,1-.5-.035.534.534,0,0,1,.149-1.058,2.525,2.525,0,0,0,.351.025.534.534,0,1,1,0,1.068Zm-2.667-1.2a3.567,3.567,0,0,1-.906-2.375V87.3a.534.534,0,0,1,1.068,0v.831a2.5,2.5,0,0,0,.635,1.665.534.534,0,1,1-.8.71Z" transform="translate(-41.273 -66.327)" fill="#fff"/>
    <path id="Path_4365" data-name="Path 4365" d="M207.706,91.708a3.4,3.4,0,0,1-.505-.038.534.534,0,0,1,.16-1.056,2.293,2.293,0,0,0,.345.026.534.534,0,0,1,0,1.068Zm-2.647-1.281a3.387,3.387,0,0,1-.731-2.1V87.3a.534.534,0,0,1,1.068,0v1.025a2.284,2.284,0,0,0,.5,1.433.534.534,0,1,1-.836.664Z" transform="translate(-151.702 -66.327)" fill="#ffcbc2"/>
    <path id="Path_4366" data-name="Path 4366" d="M162.214,91.708a3.59,3.59,0,0,1-.5-.035.534.534,0,1,1,.149-1.058,2.535,2.535,0,0,0,.351.025.534.534,0,0,1,0,1.068Zm-2.667-1.2a3.567,3.567,0,0,1-.906-2.375V87.3a.534.534,0,1,1,1.068,0v.831a2.5,2.5,0,0,0,.635,1.665.534.534,0,0,1-.8.711Z" transform="translate(-115.775 -66.327)" fill="#fff"/>
    <path id="Path_4367" data-name="Path 4367" d="M113.521,91.708a3.944,3.944,0,0,1-.492-.031.534.534,0,1,1,.133-1.06,2.882,2.882,0,0,0,.359.022.534.534,0,0,1,0,1.068Zm-2.691-1.067a3.947,3.947,0,0,1-1.241-2.865V87.3a.534.534,0,0,1,1.068,0v.472a2.838,2.838,0,0,0,.9,2.087.534.534,0,1,1-.731.778Z" transform="translate(-77.199 -66.327)" fill="#ffcbc2"/>
    <path id="Path_4368" data-name="Path 4368" d="M55.937,33.907h-35.3l-6.719,9.985H62.656Z" transform="translate(-1.968 -24.755)" fill="#fc5d3d"/>
    <path id="Path_4369" data-name="Path 4369" d="M78.536,4.928H47.511a2.136,2.136,0,0,0-2.136,2.136v4.054h35.3V7.064a2.136,2.136,0,0,0-2.136-2.136Z" transform="translate(-26.702 -1.966)" fill="#72c1e8"/>
    <path id="Path_4370" data-name="Path 4370" d="M84.647,14.841a.534.534,0,0,1-.534-.534V12.5h-30.7a.534.534,0,0,1,0-1.068H84.434a.748.748,0,0,1,.748.748v2.132A.534.534,0,0,1,84.647,14.841Z" transform="translate(-32.6 -7.078)" fill="#fff"/>
    <path id="Path_4371" data-name="Path 4371" d="M156.968,43.895H147.21l-1.444-9.985h7.068Z" transform="translate(-105.65 -24.757)" fill="#f2e1d6"/>
    <path id="Path_4372" data-name="Path 4372" d="M38.077,49.47h-6a.534.534,0,0,1-.473-.781l3.08-5.157a.534.534,0,0,1,.947.495L32.96,48.4h5.117a.534.534,0,0,1,0,1.068Z" transform="translate(-15.826 -32.098)" fill="#ffcbc2"/>
    <path id="Path_4373" data-name="Path 4373" d="M196.153,68.455h-5.739a.534.534,0,1,1,0-1.068h5.739a.534.534,0,0,1,0,1.068Z" transform="translate(-140.341 -51.084)" fill="#ffcbc2"/>
    <path id="Path_4374" data-name="Path 4374" d="M113.151,68.457h-9.607a.534.534,0,1,1,0-1.068h9.607a.534.534,0,0,1,0,1.068Z" transform="translate(-72.026 -51.085)" fill="#ffcbc2"/>
    <path id="Path_4375" data-name="Path 4375" d="M61.923,33.91H68.99l-1.444,9.985H57.788Z" transform="translate(-36.464 -24.757)" fill="#f2e1d6"/>
    <path id="Path_4376" data-name="Path 4376" d="M70.489,68.457H61.653a.534.534,0,0,1,0-1.068h8.836a.534.534,0,0,1,0,1.068Z" transform="translate(-39.083 -51.085)" fill="#fff"/>
    <path id="Path_4377" data-name="Path 4377" d="M157.43,68.457h-8.906a.534.534,0,0,1,0-1.068h8.906a.534.534,0,1,1,0,1.068Z" transform="translate(-107.399 -51.085)" fill="#fff"/>
    <path id="Path_4378" data-name="Path 4378" d="M91.94,129.822c-1.794,0-3.251,1.884-3.251,4.208a4.3,4.3,0,0,0,2.133,3.952,2.586,2.586,0,0,0,2.235,0,4.3,4.3,0,0,0,2.133-3.952c0-2.324-1.456-4.208-3.25-4.208Z" transform="translate(-60.764 -100.183)" fill="#f0c020"/>
    <path id="Path_4379" data-name="Path 4379" d="M99.885,178.536a1.5,1.5,0,1,1-3,0l.381-10.513a2.586,2.586,0,0,0,2.235,0Z" transform="translate(-67.211 -130.224)" fill="#f0c020"/>
    <path id="Path_4380" data-name="Path 4380" d="M149.665,179.116a1.5,1.5,0,1,1-3,0l.39-10.691h2.22Z" transform="translate(-106.359 -130.54)" fill="#f0c020"/>
    <path id="Path_4381" data-name="Path 4381" d="M145.884,155.669v1.611a1.114,1.114,0,0,1-1.113,1.113h-3.593a1.114,1.114,0,0,1-1.113-1.113v-1.611Z" transform="translate(-101.166 -120.509)" fill="#f0c020"/>
    <path id="Path_4382" data-name="Path 4382" d="M143.919,128.558a.534.534,0,0,0-.534.534v4.723h-1.842v-4.723a.534.534,0,1,0-1.068,0v4.723h-1.842v-4.723a.534.534,0,1,0-1.068,0v6.868a1.649,1.649,0,0,0,1.647,1.647h.134l-.37,10.137a2.033,2.033,0,1,0,4.064,0l-.367-10.138h.132a1.649,1.649,0,0,0,1.647-1.647v-6.868a.534.534,0,0,0-.534-.534Zm-1.945,19.226h0a.965.965,0,1,1-1.93,0l.371-10.176h1.19Zm1.411-11.824a.58.58,0,0,1-.579.579h-3.593a.58.58,0,0,1-.579-.579v-1.077h4.752Z" transform="translate(-99.201 -99.189)"/>
    <path id="Path_4383" data-name="Path 4383" d="M89.974,127.322c-2.087,0-3.785,2.127-3.785,4.742a4.92,4.92,0,0,0,2.121,4.261l-.369,10.184a2.033,2.033,0,1,0,4.064,0l-.369-10.184a4.92,4.92,0,0,0,2.121-4.261c0-2.615-1.7-4.742-3.785-4.742Zm.965,19.226a.965.965,0,1,1-1.929,0l.355-9.8a3.179,3.179,0,0,0,1.219,0l.355,9.8Zm-.075-11.015a2.054,2.054,0,0,1-1.779,0,3.791,3.791,0,0,1-1.827-3.469c0-2.026,1.219-3.674,2.717-3.674s2.717,1.648,2.717,3.674A3.79,3.79,0,0,1,90.863,135.533Z" transform="translate(-58.798 -98.217)"/>
    <path id="Path_4384" data-name="Path 4384" d="M11.42,22a5.219,5.219,0,0,0,2.471,4.437V53.4a2.673,2.673,0,0,0,2.67,2.67h39.52a2.673,2.673,0,0,0,2.67-2.67V26.441A5.219,5.219,0,0,0,61.223,22c0-.082,0-2.8,0-2.886a.558.558,0,0,0-.1-.286L54.5,8.989V5.1a2.673,2.673,0,0,0-2.67-2.67H20.809a2.673,2.673,0,0,0-2.67,2.67V8.99l-6.622,9.842a.573.573,0,0,0-.1.305ZM18.957,9.686h5.7L20.967,18.6h-8.01ZM59.685,18.6h-8.01L47.982,9.686h5.7ZM46.439,26.153a4.366,4.366,0,0,1-4.345-4.706V19.671h8.689v2.137a4.35,4.35,0,0,1-4.345,4.345Zm-10.118,0a4.711,4.711,0,0,1-4.706-4.706V19.671h9.411v1.777A4.711,4.711,0,0,1,36.321,26.153ZM31.91,9.686,30.62,18.6h-8.5l3.692-8.916Zm14.917,0L50.519,18.6h-8.5L40.733,9.686ZM21.859,19.671h8.689v1.776a4.352,4.352,0,1,1-8.689.361ZM39.653,9.686l1.29,8.917H31.7l1.289-8.917ZM12.488,22V19.671h8.3v2.137a4.153,4.153,0,1,1-8.3.194ZM56.081,55H16.561a1.6,1.6,0,0,1-1.6-1.6V26.942a5.215,5.215,0,0,0,6.4-2.719,5.409,5.409,0,0,0,9.786-.217,5.771,5.771,0,0,0,10.348,0,5.409,5.409,0,0,0,9.786.217,5.215,5.215,0,0,0,6.4,2.718V53.4a1.6,1.6,0,0,1-1.6,1.6ZM56,26.153a4.159,4.159,0,0,1-4.15-4.345V19.671h8.3V22A4.148,4.148,0,0,1,56,26.153ZM19.207,5.1a1.6,1.6,0,0,1,1.6-1.6H51.834a1.6,1.6,0,0,1,1.6,1.6v3.52H19.207Z"/>
  </g>
</svg>
