<svg xmlns="http://www.w3.org/2000/svg" width="50.796" height="53.644" viewBox="0 0 50.796 53.644">
  <g id="rating" transform="translate(-13.589)">
    <g id="Group_4487" data-name="Group 4487" transform="translate(14.375 0.786)">
      <path id="Path_4675" data-name="Path 4675" d="M355.318,291.057V279.046a7.759,7.759,0,0,0-6.964-7.718c-.261-.027-.525.038-.793.038a7.588,7.588,0,0,0-7.582,7.733v11.907Z" transform="translate(-306.568 -243.68)" fill="#855b51"/>
      <path id="Path_4676" data-name="Path 4676" d="M346.9,271.045a7.758,7.758,0,0,0-6.919,7.712V290.68l-1.676.039V278.757A7.758,7.758,0,0,1,346.057,271,7.652,7.652,0,0,1,346.9,271.045Z" transform="translate(-305.065 -243.392)" fill="#724d44"/>
      <path id="Path_4677" data-name="Path 4677" d="M396.005,399.984v-8.128l-.321-.95.321-2.79h-4.33l.183,4.413L391.675,394v5.988l2.164.326Z" transform="translate(-352.848 -348.238)" fill="#c48958"/>
      <path id="Path_4678" data-name="Path 4678" d="M354.511,432.191l-4.256,1.685.517,5.891h5.987l-.312-.344c-1.491-1.641-1.782-3.761-1.838-5.97C354.6,432.967,354.511,432.682,354.511,432.191Z" transform="translate(-315.767 -387.695)" fill="#72c1e8"/>
      <path id="Path_4679" data-name="Path 4679" d="M354.533,431.707l-.014.005-4.224,1.736-.125-1.421,4.349-1.787.183.731Z" transform="translate(-315.691 -385.948)" fill="#72c1e8"/>
      <path id="Path_4680" data-name="Path 4680" d="M418.942,432.07l-4.444-1.831c0,2.683-.029,5.443-1.868,7.455l-.3.326h7.184a1.049,1.049,0,0,0,1.049-1.049v-2.476A2.622,2.622,0,0,0,418.942,432.07Z" transform="translate(-371.34 -385.947)" fill="#72c1e8"/>
      <path id="Path_4681" data-name="Path 4681" d="M391.673,388.119h0s0,3.733,0,3.733,0,1.66.014,2.146l1.089-.447a.419.419,0,0,0,.26-.388V392.7a.209.209,0,0,1,.245-.206,3.331,3.331,0,0,0,.556.048,4.1,4.1,0,0,0,2.166-.682v-3.739h-4.328Z" transform="translate(-352.845 -348.24)" fill="#b27a49"/>
      <path id="Path_4682" data-name="Path 4682" d="M367.294,308.988a5.3,5.3,0,0,0-.056,1.054c.573,2.784,2.83,5.582,4.7,5.582,2.166,0,4.841-3.735,4.841-6.868a5.938,5.938,0,0,0-1.9-4.675c-.258-.213-.471-.193-.78-.342a.169.169,0,0,0-.238.112,6.524,6.524,0,0,1-4.934,4.708l-1.508.261C367.348,308.838,367.294,308.988,367.294,308.988Z" transform="translate(-330.949 -272.686)" fill="#c48958"/>
      <path id="Path_4683" data-name="Path 4683" d="M368.293,307.864a7.53,7.53,0,0,0,5.636-5.514,4.224,4.224,0,0,0-.85-.546.169.169,0,0,0-.238.112,6.5,6.5,0,0,1-4.9,4.722l-1.664.356a.168.168,0,0,0-.133.166h0a6.507,6.507,0,0,0,.136,1.148Z" transform="translate(-329.992 -270.954)" fill="#b27a49"/>
      <path id="Path_4684" data-name="Path 4684" d="M38.45,434.334l-6.067-2.162a2.8,2.8,0,0,1-4.263-.152l-4.38,1.82a2.417,2.417,0,0,0-1.65,2.249v2.372a1.049,1.049,0,0,0,1.049,1.049l.208.1h4.7l2.1-.269,2.234.269h3.87l2.2-.389Z" transform="translate(-21.985 -387.542)" fill="#72c1e8"/>
      <path id="Path_4685" data-name="Path 4685" d="M84.968,398.126H81l.018,3.15c.377.435.625.943,1.134,1.091a2.862,2.862,0,0,0,2.967-.874v-1.665Z" transform="translate(-74.723 -357.199)" fill="#f2d1a5"/>
      <path id="Path_4686" data-name="Path 4686" d="M28.116,432.725l-4.563,2.065-.322.135a1.254,1.254,0,0,0-.78,1.164v3.526h-.313a1.049,1.049,0,0,1-1.049-1.049v-2.477a2.622,2.622,0,0,1,1.623-2.423l4.244-1.645a5.906,5.906,0,0,0,1.159.7Z" transform="translate(-21.09 -387.542)" fill="#94d8e6"/>
      <path id="Path_4687" data-name="Path 4687" d="M51.515,432.278l-4.947,5.743h-4.33l-3.6-4.825-.7-1.066,2.372-.825,1.931-1.065a2.863,2.863,0,0,0,4.329,0h0Z" transform="translate(-36.171 -385.948)" fill="#f2e1d6"/>
      <path id="Path_4688" data-name="Path 4688" d="M80.362,398.13H79v3.579l1.082.673a1.6,1.6,0,0,1,.28-.014v-1.751a.209.209,0,0,1,.242-.206,3.642,3.642,0,0,0,.56.044,4.433,4.433,0,0,0,2.166-.623v-1.7Z" transform="translate(-72.933 -357.202)" fill="#f2bb88"/>
      <g id="Group_4482" data-name="Group 4482" transform="translate(1.624 44.292)">
        <path id="Path_4689" data-name="Path 4689" d="M42.4,431.115h0l-4.966,2.08-.839-1.124,4.443-1.831A2.746,2.746,0,0,0,42.4,431.115Z" transform="translate(-36.59 -430.24)" fill="#fff"/>
      </g>
      <path id="Path_4690" data-name="Path 4690" d="M62.033,296.731c0-3.3-1.691-5.305-4.986-5.305s-4.987,2.01-4.987,5.305a6.727,6.727,0,0,0,.24,2.085c.82,2.548,2.951,4.752,4.746,4.752,1.78,0,3.888-2.164,4.724-4.683A6.762,6.762,0,0,0,62.033,296.731Z" transform="translate(-48.815 -261.678)" fill="#f2d1a5"/>
      <path id="Path_4691" data-name="Path 4691" d="M58.966,292.086a3.38,3.38,0,0,0-.954.246l0,.011a2.009,2.009,0,0,0-.2-.72,6.578,6.578,0,0,0-1.653-.2c-3.3,0-5.091,2.01-5.091,5.305a6.846,6.846,0,0,0,.346,2.085c.073-.066.152-.141.238-.229a10.435,10.435,0,0,1,3.044-2.336,7.547,7.547,0,0,0,1.979-.892.21.21,0,0,1,.322.051A5.009,5.009,0,0,0,58.812,297a6.846,6.846,0,0,1,2.064,1.882,6.884,6.884,0,0,0,.368-2.155C61.244,294.548,60.455,292.93,58.966,292.086Z" transform="translate(-47.921 -261.677)" fill="#f2bb88"/>
      <path id="Path_4692" data-name="Path 4692" d="M109.964,284.9a3.466,3.466,0,0,1,1.323-.383,2.973,2.973,0,0,1,2.173.835c1.982,2.007.941,5.1.18,6.461a.209.209,0,0,1-.34.038,12.86,12.86,0,0,0-2.577-2.223,4.846,4.846,0,0,1-1.051-.9,3.744,3.744,0,0,1-.588-1.315Z" transform="translate(-99.865 -255.489)" fill="#8e868e"/>
      <path id="Path_4693" data-name="Path 4693" d="M109.855,286.477a5.885,5.885,0,0,1-1.4,2.24,3.782,3.782,0,0,1-.732-1.23l1.014-2.707a3.492,3.492,0,0,1,1.332-.269A4.315,4.315,0,0,1,109.855,286.477Z" transform="translate(-98.643 -255.487)" fill="#766d78"/>
      <path id="Path_4694" data-name="Path 4694" d="M47.934,270a2.428,2.428,0,0,0-1.726-1,5.949,5.949,0,0,0-4.134,1.389c-2.633,1.924-2.094,5.694-1.268,7.368a.21.21,0,0,0,.359.031c.144-.2.372-.345.693-.672a8.456,8.456,0,0,1,3.149-2.022C47.648,274.125,48.835,271.4,47.934,270Z" transform="translate(-38.133 -241.561)" fill="#8e868e"/>
      <path id="Path_4695" data-name="Path 4695" d="M46.007,268.9a6.424,6.424,0,0,0-2.841,1.2c-2.284,1.669-2.138,4.978-1.52,6.918a7.189,7.189,0,0,0-.694.815.21.21,0,0,1-.359-.031c-.826-1.674-1.422-5.777,1.211-7.7a5.82,5.82,0,0,1,4.2-1.2Z" transform="translate(-37.921 -241.464)" fill="#766d78"/>
      <path id="Path_4696" data-name="Path 4696" d="M42.321,105.206l-2.434-.014a1.124,1.124,0,0,0-.788.323l-1.64,1.612a.562.562,0,0,1-.791,0l-1.606-1.6a1.124,1.124,0,0,0-.794-.328H31.739a2.023,2.023,0,0,1-2.023-2.023V96.088a2.075,2.075,0,0,1,1.257-2.017,2.022,2.022,0,0,1,.661-.11H44.512v9.315a2.019,2.019,0,0,1-.111.661,2.176,2.176,0,0,1-2.081,1.27Z" transform="translate(-28.812 -84.901)" fill="#f8f7f7"/>
      <path id="Path_4697" data-name="Path 4697" d="M43.509,104.884a2.023,2.023,0,0,1-1.911,1.362H39.1a1.127,1.127,0,0,0-.789.323l-1.744,1.716a.562.562,0,0,1-.791,0l-1.711-1.708a1.127,1.127,0,0,0-.794-.328H30.742a2.023,2.023,0,0,1-2.022-2.023V96.932a2.021,2.021,0,0,1,1.362-1.912v9.2a.661.661,0,0,0,.66.661H33.27a2.47,2.47,0,0,1,1.756.726l.856.855a.42.42,0,0,0,.591,0l.883-.87a2.486,2.486,0,0,1,1.743-.714Z" transform="translate(-27.921 -85.85)" fill="#e8e8e8"/>
      <g id="Group_4483" data-name="Group 4483" transform="translate(4.969 12.683)">
        <path id="Path_4698" data-name="Path 4698" d="M72.851,129.055a.244.244,0,0,0,.334,0,1.869,1.869,0,0,1,1.282-.5,1.832,1.832,0,0,1,1.83,1.839c-.019,1.323-1.431,2.456-2.4,3.076a3.794,3.794,0,0,1-.774.315.245.245,0,0,1-.221,0c-.578-.285-3.064-1.551-3.026-3.4a1.761,1.761,0,0,1,1.021-1.65,1.794,1.794,0,0,1,.206-.117,1.759,1.759,0,0,1,.471-.068A1.832,1.832,0,0,1,72.851,129.055Z" transform="translate(-69.736 -128.552)" fill="#fc5d3d"/>
        <path id="Path_4699" data-name="Path 4699" d="M72.681,134.047c-.341.219-.627.374-.774.452a.242.242,0,0,1-.221,0c-.578-.285-3.206-1.685-3.168-3.531a1.912,1.912,0,0,1,1.369-1.771,1.879,1.879,0,0,0-.426,1.142C69.43,131.837,71.562,133.367,72.681,134.047Z" transform="translate(-68.517 -129.132)" fill="#fc5d3d"/>
      </g>
      <path id="Path_4700" data-name="Path 4700" d="M354.521,105.192h-2.5a1.124,1.124,0,0,0-.788.323l-1.64,1.716a.562.562,0,0,1-.791,0L347.2,105.52a1.124,1.124,0,0,0-.794-.328h-2.528a2.023,2.023,0,0,1-2.023-2.023l.134-9,2.04-.207h10.6a2.023,2.023,0,0,1,2.023,2.023v7.292a2.02,2.02,0,0,1-.111.661,2.075,2.075,0,0,1-2.017,1.257Z" transform="translate(-308.246 -84.9)" fill="#f8f7f7"/>
      <g id="Group_4484" data-name="Group 4484" transform="translate(37.673 12.683)">
        <path id="Path_4701" data-name="Path 4701" d="M384.99,129.055a.244.244,0,0,0,.334,0,1.869,1.869,0,0,1,1.282-.5,1.832,1.832,0,0,1,1.83,1.839c-.019,1.323-1.431,2.456-2.4,3.076a3.794,3.794,0,0,1-.774.315.245.245,0,0,1-.221,0c-.578-.285-3.064-1.551-3.026-3.4a1.761,1.761,0,0,1,1.021-1.65,1.8,1.8,0,0,1,.206-.117,1.759,1.759,0,0,1,.471-.068A1.832,1.832,0,0,1,384.99,129.055Z" transform="translate(-381.875 -128.552)" fill="#fc5d3d"/>
        <path id="Path_4702" data-name="Path 4702" d="M384.82,134.047c-.341.219-.627.374-.774.452a.242.242,0,0,1-.221,0c-.578-.285-3.206-1.685-3.168-3.531a1.912,1.912,0,0,1,1.369-1.771,1.879,1.879,0,0,0-.426,1.142C381.569,131.837,383.7,133.367,384.82,134.047Z" transform="translate(-380.656 -129.132)" fill="#fc5d3d"/>
      </g>
      <path id="Path_4703" data-name="Path 4703" d="M351.23,103.935a2.474,2.474,0,0,0-1.743.714l-1.031,1.015a.211.211,0,0,1-.3,0l-1-1a2.485,2.485,0,0,0-1.756-.726h-2.528a.661.661,0,0,1-.661-.661V99.606a.21.21,0,0,1,.051-.136,2.871,2.871,0,0,0,.27-.374,4.177,4.177,0,0,0,.6-2.151V93.959H340.85v9.314a2.023,2.023,0,0,0,2.023,2.023H345.4a1.127,1.127,0,0,1,.794.328l1.711,1.708a.562.562,0,0,0,.791,0l1.744-1.716a1.126,1.126,0,0,1,.788-.323h2.5a2.023,2.023,0,0,0,1.912-1.362h-4.41Z" transform="translate(-307.348 -84.9)" fill="#e8e8e8"/>
      <path id="Path_4704" data-name="Path 4704" d="M179.652,22.107l-3.028.1a1.686,1.686,0,0,0-1.256.562l-1.759,1.935a.787.787,0,0,1-1.177,0l-1.627-1.969a1.686,1.686,0,0,0-1.265-.572l-3.471.194a2.81,2.81,0,0,1-2.81-2.81V10.31a2.809,2.809,0,0,1,2.81-2.81h13.9a2.81,2.81,0,0,1,2.81,2.81v9.235a2.8,2.8,0,0,1-.4,1.448,3.2,3.2,0,0,1-2.729,1.114Z" transform="translate(-148.363 -7.5)" fill="#f8f7f7"/>
      <path id="Path_4705" data-name="Path 4705" d="M182.382,24.421a2.81,2.81,0,0,1-2.409,1.362h-3.35a1.689,1.689,0,0,0-1.257.562l-1.754,1.96a.786.786,0,0,1-1.177,0l-1.713-1.946a1.685,1.685,0,0,0-1.266-.572H166.07a2.81,2.81,0,0,1-2.81-2.81V13.739a2.81,2.81,0,0,1,1.362-2.409V22.973a1.448,1.448,0,0,0,1.448,1.448h3.387a3.046,3.046,0,0,1,2.288,1.034l1.051,1.193a.313.313,0,0,0,.469,0l1.087-1.213a3.045,3.045,0,0,1,2.271-1.015Z" transform="translate(-148.364 -10.929)" fill="#e8e8e8"/>
      <path id="Path_4706" data-name="Path 4706" d="M214.834,44.73a.375.375,0,0,0,.512,0,2.868,2.868,0,0,1,1.967-.769,2.811,2.811,0,0,1,2.807,2.821c-.031,2.128-2.409,3.934-3.885,4.851a6.941,6.941,0,0,1-.947.442.375.375,0,0,1-.34,0c-.886-.437-4.756-2.3-4.7-5.136a2.983,2.983,0,0,1,1.783-2.84,2.7,2.7,0,0,1,.847-.143,2.811,2.811,0,0,1,1.954.772Z" transform="translate(-190.43 -40.138)" fill="#fc5d3d"/>
      <path id="Path_4707" data-name="Path 4707" d="M214.574,52.859c-.43.267-.783.459-.979.561a.376.376,0,0,1-.339,0c-.886-.438-4.918-2.584-4.861-5.416a2.931,2.931,0,0,1,1.978-2.678,2.887,2.887,0,0,0-.826,1.945C209.5,49.7,213,51.975,214.574,52.859Z" transform="translate(-188.77 -41.366)" fill="#dc4955"/>
      <path id="Path_4708" data-name="Path 4708" d="M235.653,357.911H230.2l.258,3.636-.258,1.922h0a4.058,4.058,0,0,0,.725.823,3.825,3.825,0,0,0,3.946.147c.317-.191.523-.673.781-.969l0,0v-2.31l-.22-.362Z" transform="translate(-208.29 -321.197)" fill="#e3a76f"/>
      <path id="Path_4709" data-name="Path 4709" d="M177.844,415.932l-2.853-1.175-2.841-.864a3.61,3.61,0,0,1-5.453.149l-5.484,1.89a3.146,3.146,0,0,0-1.948,2.909l.1,4.335,1.047.21H167.3l2.228-.5,1.974.5h8.289v-4.545A3.147,3.147,0,0,0,177.844,415.932Z" transform="translate(-144.787 -371.314)" fill="#f0c020"/>
      <path id="Path_4710" data-name="Path 4710" d="M231.562,357.91H230.2v5.559c.171.2.094.53.293.681.227.171.734.154.987.264h0v-2.586a.209.209,0,0,1,.257-.2,5.481,5.481,0,0,0,1.189.181,5.975,5.975,0,0,0,2.727-.646V357.91h-4.091Z" transform="translate(-208.291 -321.196)" fill="#d6995c"/>
      <path id="Path_4711" data-name="Path 4711" d="M166.063,412.78l-3.154,1.349-3.181,1.311a1.778,1.778,0,0,0-1.105,1.649v4.545H157.26v-4.545a3.146,3.146,0,0,1,1.948-2.909l2.838-1.169,1.295-.4,1.5-.675A3.1,3.1,0,0,0,166.063,412.78Z" transform="translate(-142.993 -369.562)" fill="#ffd163"/>
      <path id="Path_4712" data-name="Path 4712" d="M215.1,412.14l-.118.137a14.54,14.54,0,0,0-3.371,8.376v.116h-4.2v-.075a14.535,14.535,0,0,0-2.6-7.43,12.494,12.494,0,0,0-.713-1.042l-.031-.041,2.738-1.1a3.3,3.3,0,0,0,1.281.837,3.609,3.609,0,0,0,4.171-.944h0Z" transform="translate(-184.893 -368.697)" fill="#f2e1d6"/>
      <path id="Path_4713" data-name="Path 4713" d="M207.076,411.915l-3.274,1.349q-.388-.556-.831-1.077l-.031-.041,2.856-1.177a3.6,3.6,0,0,0,.847.719q.042.027.085.05A3.622,3.622,0,0,0,207.076,411.915Z" transform="translate(-183.887 -368.697)" fill="#e8e8e8"/>
      <path id="Path_4714" data-name="Path 4714" d="M211.339,238.427c0-3.947-1.985-7.109-5.932-7.109s-5.736,3.19-5.736,7.137a11.567,11.567,0,0,0-.183,2.024c.59,3.372,2.631,6.636,5.919,6.636,3.5,0,5.589-3.7,6.015-7.292A11.879,11.879,0,0,0,211.339,238.427Z" transform="translate(-180.772 -207.868)" fill="#e3a76f"/>
      <path id="Path_4715" data-name="Path 4715" d="M210.217,238.465c0-2.886-1.151-5.37-3.312-6.5a.106.106,0,0,1-.185-.094,6.016,6.016,0,0,0-2.6-.554c-3.947,0-6.1,3.2-6.1,7.146a11.746,11.746,0,0,0,.178,2.014,2.8,2.8,0,0,1,.337-.323c1.032-.971,2.514-1.006,2.672-2.022a.21.21,0,0,1,.264-.175,3.611,3.611,0,0,0,3.719-1.709.209.209,0,0,1,.327-.062,2.288,2.288,0,0,0,1.722.473.21.21,0,0,1,.221.141c.593,1.733,2.218,1.1,2.672,3.022A11.5,11.5,0,0,0,210.217,238.465Z" transform="translate(-179.485 -207.869)" fill="#d6995c"/>
      <g id="Group_4485" data-name="Group 4485" transform="translate(16.005 20.117)">
        <path id="Path_4716" data-name="Path 4716" d="M189.116,204.613c-.055-.016-.158-.035-.243-.05a.1.1,0,0,1-.077-.145,2.2,2.2,0,0,0-3.541-2.5.1.1,0,0,1-.177-.053,2.671,2.671,0,0,0-4.3-1.564.105.105,0,0,1-.148-.015,2.2,2.2,0,0,0-3.864,1.117.105.105,0,0,1-.1.092,3.137,3.137,0,0,0-.712.124,3.093,3.093,0,0,0-2.107,3.07,2.822,2.822,0,0,0,.8,1.98.1.1,0,0,1,.026.074,9.323,9.323,0,0,0,.1,2.129,2.775,2.775,0,0,0,1.605,2.138,1.05,1.05,0,0,1,.515-.911c.641-.53,1.747-.625,2.026-1.6a.1.1,0,0,1,.115-.075,5.383,5.383,0,0,0,.746.088,3.772,3.772,0,0,0,3.521-2.42.1.1,0,0,1,.173-.024,2.568,2.568,0,0,0,2.711.882.1.1,0,0,1,.127.069c.643,2.1,2.252,1.423,2.252,3.383,1.054-.476,1.684-2.1,1.984-3.183a2.117,2.117,0,0,0-1.436-2.6Z" transform="translate(-173.849 -199.5)" fill="#855b51"/>
      </g>
      <g id="Group_4486" data-name="Group 4486" transform="translate(15.864 22.238)">
        <path id="Path_4717" data-name="Path 4717" d="M175.689,228.227a1.257,1.257,0,0,0-.455,1.041,3.011,3.011,0,0,1-1.791-2.21,9.464,9.464,0,0,1-.109-2.12.1.1,0,0,0-.026-.073,3.142,3.142,0,0,1,1.441-5.115,3.14,3.14,0,0,0-.288,4.486.1.1,0,0,1,.026.073,9.464,9.464,0,0,0,.109,2.12,2.929,2.929,0,0,0,1.094,1.8Z" transform="translate(-172.5 -219.75)" fill="#724d44"/>
      </g>
    </g>
    <g id="Group_4489" data-name="Group 4489" transform="translate(13.589 0)">
      <g id="Group_4488" data-name="Group 4488" transform="translate(0 0)">
        <path id="Path_4718" data-name="Path 4718" d="M376.761,127.909a1.034,1.034,0,0,0,.932-.01c.835-.435,3.561-2.025,3.593-4.213a2.631,2.631,0,0,0-4.064-2.212,2.606,2.606,0,0,0-1.428-.424,2.708,2.708,0,0,0-2.64,2.609C373.108,125.929,375.9,127.486,376.761,127.909Zm-.975-5.288h.007a1.049,1.049,0,0,1,.722.289h0a1.032,1.032,0,0,0,1.408,0,1.061,1.061,0,0,1,1.79.752c-.015,1.036-1.482,2.132-2.5,2.71-1.033-.556-2.506-1.627-2.485-2.683A1.115,1.115,0,0,1,375.786,122.621Z" transform="translate(-335.481 -108.366)"/>
        <path id="Path_4719" data-name="Path 4719" d="M64.622,127.909a1.034,1.034,0,0,0,.932-.01c.835-.435,3.561-2.025,3.593-4.213a2.631,2.631,0,0,0-4.064-2.212,2.607,2.607,0,0,0-1.446-.424,2.67,2.67,0,0,0-2.621,2.609C60.97,125.929,63.764,127.486,64.622,127.909Zm-.975-5.288h.007a1.049,1.049,0,0,1,.722.289h0a1.032,1.032,0,0,0,1.408,0,1.061,1.061,0,0,1,1.79.752c-.015,1.036-1.482,2.132-2.5,2.71-1.033-.556-2.506-1.627-2.485-2.683A1.115,1.115,0,0,1,63.648,122.621Z" transform="translate(-56.046 -108.366)"/>
        <path id="Path_4720" data-name="Path 4720" d="M24.024,21.968h2.528a.336.336,0,0,1,.239.1L28.5,23.774a1.352,1.352,0,0,0,1.9.007l1.744-1.716a.336.336,0,0,1,.237-.1h2.5a2.812,2.812,0,0,0,2.809-2.809V16.213a3.579,3.579,0,0,0,1.22.213H42.3a.9.9,0,0,1,.675.305l1.713,1.946a1.573,1.573,0,0,0,1.174.533h.006a1.574,1.574,0,0,0,1.172-.524l1.754-1.961a.9.9,0,0,1,.671-.3h3.35a3.582,3.582,0,0,0,1.107-.175v2.908a2.812,2.812,0,0,0,2.809,2.809h2.528a.336.336,0,0,1,.239.1l1.711,1.708a1.352,1.352,0,0,0,1.9.007l1.745-1.716a.336.336,0,0,1,.237-.1h2.5a2.812,2.812,0,0,0,2.809-2.809V11.867a2.812,2.812,0,0,0-2.809-2.809H56.407V3.6a3.6,3.6,0,0,0-3.6-3.6h-6.4a.786.786,0,0,0,0,1.572h6.4A2.026,2.026,0,0,1,54.835,3.6v9.235a2.026,2.026,0,0,1-2.024,2.024h-3.35a2.475,2.475,0,0,0-1.842.824l-1.755,1.961-1.713-1.946a2.473,2.473,0,0,0-1.855-.838H38.907a2.026,2.026,0,0,1-2.024-2.024V3.6a2.026,2.026,0,0,1,2.024-2.024h3.835a.786.786,0,1,0,0-1.572H38.907a3.6,3.6,0,0,0-3.6,3.6V9.059H24.024a2.812,2.812,0,0,0-2.809,2.809v7.292A2.812,2.812,0,0,0,24.024,21.968ZM67.583,10.63a1.239,1.239,0,0,1,1.237,1.237v7.292A1.239,1.239,0,0,1,67.583,20.4h-2.5a1.9,1.9,0,0,0-1.339.548l-1.587,1.561L60.6,20.954a1.9,1.9,0,0,0-1.349-.558H56.727a1.239,1.239,0,0,1-1.237-1.237V15.225a3.581,3.581,0,0,0,.916-2.394v-2.2H67.583Zm-44.8,1.237a1.239,1.239,0,0,1,1.237-1.237H35.312v2.2a3.578,3.578,0,0,0,.8,2.263v4.066A1.239,1.239,0,0,1,34.879,20.4h-2.5a1.9,1.9,0,0,0-1.339.548l-1.586,1.561L27.9,20.954a1.9,1.9,0,0,0-1.349-.558H24.024a1.239,1.239,0,0,1-1.237-1.237V11.867Z" transform="translate(-20.416 0)"/>
        <path id="Path_4721" data-name="Path 4721" d="M200.9,40.044c-.065,3.236,4.04,5.515,5.3,6.136a1.165,1.165,0,0,0,1.051-.011c1.229-.64,5.241-2.973,5.286-6.1a3.618,3.618,0,0,0-5.817-2.874,3.6,3.6,0,0,0-2.215-.745A3.673,3.673,0,0,0,200.9,40.044Zm3.616-2.02h.014a2.027,2.027,0,0,1,1.395.558h0a1.163,1.163,0,0,0,1.587,0,2.048,2.048,0,0,1,3.453,1.466c-.025,1.74-2.267,3.554-4.257,4.629-2.019-1.035-4.273-2.82-4.237-4.6A2.117,2.117,0,0,1,204.511,38.024Z" transform="translate(-181.27 -32.633)"/>
        <path id="Path_4722" data-name="Path 4722" d="M63.911,219.481V208.035a8.546,8.546,0,0,0-12.442-7.6.786.786,0,1,0,.718,1.4,6.894,6.894,0,0,1,3.181-.766,6.98,6.98,0,0,1,6.972,6.972v10.06l-.064-.029h0l-3.958-1.631V214.9a9.3,9.3,0,0,0,2.675-6.159c0-2.869-1.277-5.123-3.417-6.03a.787.787,0,0,0-.609,0,.817.817,0,0,0-.466.557,5.669,5.669,0,0,1-4.342,4.321l-1.8.385a.912.912,0,0,0-.619.926,9.319,9.319,0,0,0,2.675,6.012v1.526l-3.126,1.288a3.913,3.913,0,0,0-.895-.808v-8.88a6.928,6.928,0,0,1,1.259-4,.786.786,0,0,0-1.287-.9,8.491,8.491,0,0,0-1.544,4.9v8.153l-4.3-1.772v-2.985a10.57,10.57,0,0,0,3.352-7.286,6.413,6.413,0,0,0,1.964-3.431,2.915,2.915,0,0,0-.383-2.4,2.88,2.88,0,0,0-1.184-1.015,3.013,3.013,0,0,0,.035-.8,2.984,2.984,0,0,0-4.254-2.426,3.459,3.459,0,0,0-4.735-1.433,2.987,2.987,0,0,0-4.685,1.423,3.929,3.929,0,0,0-2.361,6.264,9.925,9.925,0,0,0,.134,2.035,3.739,3.739,0,0,0,1.835,2.575,12.874,12.874,0,0,0,.3,1.522.828.828,0,0,0,.959.561.786.786,0,0,0,.561-.959,11.312,11.312,0,0,1-.3-1.632c-.035-.3.079-.437.768-.774a3.175,3.175,0,0,0,1.431-1.094,4.6,4.6,0,0,0,4.165-2.033,3.515,3.515,0,0,0,2.187.577,3.645,3.645,0,0,0,1.4,1.546c.468.323.612.423.615,1.016-.163,3.672-2.194,7.465-5.321,7.465a4.432,4.432,0,0,1-3.556-2.018.786.786,0,1,0-1.272.924,7.332,7.332,0,0,0,1.316,1.4v2.977l-5.207,2.146a3.928,3.928,0,0,0-1.571,1.176l-3.161-1.3v-2.416a9.151,9.151,0,0,0,2.551-4,.785.785,0,0,0,.55-.353c.817-1.276,2.386-5.146-.13-7.693A3.9,3.9,0,0,0,25,200.983a2.485,2.485,0,0,0-.165-.3c-1.061-1.658-3.8-1.891-6.245-.529a.786.786,0,1,0,.766,1.372c1.83-1.021,3.626-.822,4.155,0a1.714,1.714,0,0,1,.039,1.443,4.219,4.219,0,0,1-2.573,2.485,9.227,9.227,0,0,0-3.551,2.325,7.156,7.156,0,0,1-.06-3.863.786.786,0,1,0-1.5-.454,8.611,8.611,0,0,0,.694,6.27.786.786,0,0,0,.569.356,9.176,9.176,0,0,0,2.53,3.923v2.423c-.072.032-3.925,1.614-4,1.651a3.4,3.4,0,0,0-2.066,3.131v2.476a1.837,1.837,0,0,0,1.835,1.835H62.551a1.837,1.837,0,0,0,1.835-1.835v-2.477a3.4,3.4,0,0,0-.474-1.736ZM43.575,199.992a.786.786,0,0,0-1-.536,1.782,1.782,0,0,1-2.026-.7.786.786,0,0,0-1.4.2,2.98,2.98,0,0,1-2.837,2.055,5.35,5.35,0,0,1-.691-.091.786.786,0,0,0-.915.6c-.068.308-.3.447-.857.713a3.2,3.2,0,0,0-1.316.962,2.149,2.149,0,0,1-.582-1.126,8.778,8.778,0,0,1-.1-1.955.786.786,0,0,0-.207-.6,2.356,2.356,0,0,1,1.659-3.956.786.786,0,0,0,.759-.712,1.412,1.412,0,0,1,2.533-.719.786.786,0,0,0,1.143.116,1.885,1.885,0,0,1,3.115,1.2.786.786,0,0,0,1.386.413,1.4,1.4,0,0,1,1.218-.507,1.414,1.414,0,0,1,1.111,2.088.786.786,0,0,0,.607,1.16,1.319,1.319,0,0,1,.968.578,1.345,1.345,0,0,1,.176,1.108,7.415,7.415,0,0,1-.8,1.932,3.048,3.048,0,0,0-.921-.868A2.1,2.1,0,0,1,43.575,199.992Zm8.914,9.131a7.247,7.247,0,0,0,5.248-4.511,5.094,5.094,0,0,1,1.685,4.128c0,2.82-2.454,6.082-4.055,6.082-1.484,0-3.7-2.777-4.017-5.455ZM37.615,223.956a15.44,15.44,0,0,0-2.926-7.507l1.409-.581a4.388,4.388,0,0,0,2.911,1.106h0a4.39,4.39,0,0,0,2.913-1.105l1.387.572a15.448,15.448,0,0,0-2.95,7.516Zm7.2-6.9,2.316.954a2.353,2.353,0,0,1,1.461,2.183v3.759H41.945A13.855,13.855,0,0,1,44.816,217.06ZM39.01,212.7a5.4,5.4,0,0,0,1.942-.355v2.281a2.819,2.819,0,0,1-1.941.774h0a2.819,2.819,0,0,1-1.941-.773v-2.28a5.432,5.432,0,0,0,1.94.353ZM27.856,223.956h-1.37l1.37-1.591Zm.009-4.01-3.454,4.01H20.836l-3.6-4.823,3.03-1.248a3.647,3.647,0,0,0,2.343.853h0a3.647,3.647,0,0,0,2.344-.853L28,219.142a3.937,3.937,0,0,0-.136.8Zm-.455-16.866c1.368,1.385.937,3.486.4,4.8a13.3,13.3,0,0,0-2.152-1.74,3.79,3.79,0,0,1-1.294-1.349,5.126,5.126,0,0,0,.678-1.318,4.084,4.084,0,0,0,.2-.932A2.384,2.384,0,0,1,27.411,203.08Zm-8.962,5.909a7.633,7.633,0,0,1,3.068-2.056,6.187,6.187,0,0,0,1.727-.963,5.476,5.476,0,0,0,1.566,1.5,11.793,11.793,0,0,1,1.94,1.581c-.606,2.58-2.719,4.728-4.143,4.728S19.038,211.59,18.449,208.989Zm4.157,6.357a3.537,3.537,0,0,0,1.38-.3v1.6a2.076,2.076,0,0,1-1.379.524h0a2.076,2.076,0,0,1-1.379-.524v-1.6A3.518,3.518,0,0,0,22.606,215.346Zm-7.446,8.347v-2.476a1.829,1.829,0,0,1,.632-1.386l3.081,4.125H15.424A.263.263,0,0,1,15.161,223.693Zm14.267-3.5a2.353,2.353,0,0,1,1.461-2.183l2.3-.946a13.85,13.85,0,0,1,2.845,6.888h-6.6V220.2Zm20.737,3.759V220.2a3.949,3.949,0,0,0-.15-1.073l2.407-.992a11.083,11.083,0,0,0,1.315,5.824Zm3.823-7v-.907a2.955,2.955,0,0,0,2.758,0s0,.83,0,.912c0,2.358,0,4.792-1.379,6.585-1.379-1.79-1.379-4.226-1.379-6.587A.009.009,0,0,0,53.988,216.959Zm8.826,6.733a.263.263,0,0,1-.263.263H57a11.085,11.085,0,0,0,1.316-5.824l3.365,1.386h0a1.83,1.83,0,0,1,1.137,1.7Z" transform="translate(-13.589 -171.883)"/>
      </g>
    </g>
  </g>
</svg>
