<svg xmlns="http://www.w3.org/2000/svg" width="44.789" height="53.644" viewBox="0 0 44.789 53.644">
  <g id="order-food" transform="translate(-24.469 -3.999)">
    <path id="Path_4723" data-name="Path 4723" d="M58.5,9.786v7.865A8.235,8.235,0,0,0,55.91,29.876l-1.038,2.572,2.572-1.038a8.262,8.262,0,0,0,1.06.688V55.777a3.285,3.285,0,0,1-3.286,3.286H30.252a3.285,3.285,0,0,1-3.286-3.286V9.786A3.285,3.285,0,0,1,30.252,6.5H55.218A3.285,3.285,0,0,1,58.5,9.786Z" transform="translate(-1.957 -1.96)" fill="#72c1e8"/>
    <path id="Path_4724" data-name="Path 4724" d="M55.91,55.268,54.872,57.84,57.443,56.8a8.263,8.263,0,0,0,1.06.688V77.446H26.966V38.9H58.5v4.142A8.235,8.235,0,0,0,55.91,55.268Z" transform="translate(-1.957 -27.352)" fill="#f2e1d6"/>
    <path id="Path_4725" data-name="Path 4725" d="M62.422,81.508H61.34a.541.541,0,0,1,0-1.082h1.082a.541.541,0,1,1,0,1.082Zm-3.245,0h-24.2a.541.541,0,0,1-.541-.541V47.1a.541.541,0,0,1,1.082,0V80.427H59.177a.541.541,0,1,1,0,1.082Z" transform="translate(-7.813 -33.351)" fill="#fff"/>
    <path id="Path_4726" data-name="Path 4726" d="M76.953,117.435H61.512a.735.735,0,0,0-.735.735v11.762a1.082,1.082,0,0,0,1.082,1.082H76.606a1.082,1.082,0,0,0,1.082-1.082V118.17A.735.735,0,0,0,76.953,117.435Z" transform="translate(-28.454 -88.899)" fill="#823a26"/>
    <path id="Path_4727" data-name="Path 4727" d="M60.777,138.8H77.688v4.338H60.777Z" transform="translate(-28.454 -105.641)" fill="#fc5d3d"/>
    <path id="Path_4728" data-name="Path 4728" d="M105.474,78.008A6.842,6.842,0,0,1,98.648,84.8a3.455,3.455,0,0,0-1.394-5.369,6.8,6.8,0,0,1,7.938-3.359A6.924,6.924,0,0,1,105.474,78.008Z" transform="translate(-57.041 -56.26)" fill="#13bf6d"/>
    <path id="Path_4729" data-name="Path 4729" d="M80.033,91.687a3.455,3.455,0,0,0-3.99,5.369h5.384a3.456,3.456,0,0,0-1.394-5.369Z" transform="translate(-39.82 -68.52)" fill="#fc5d3d"/>
    <path id="Path_4730" data-name="Path 4730" d="M74.953,147.193a.541.541,0,0,1-.541-.541v-.162a.541.541,0,1,1,1.082,0v.162A.541.541,0,0,1,74.953,147.193Z" transform="translate(-39.14 -111.245)" fill="#823a26"/>
    <path id="Path_4731" data-name="Path 4731" d="M166.994,67.461a8.236,8.236,0,0,1-10.82.716L153.6,69.215l1.038-2.572a8.229,8.229,0,1,1,12.353.818Z" transform="translate(-100.688 -38.727)" fill="#f0c020"/>
    <path id="Path_4732" data-name="Path 4732" d="M174.138,80.136a.541.541,0,0,1,.168-1.069,5.741,5.741,0,0,0,4.956-9.729.541.541,0,1,1,.765-.765,6.822,6.822,0,0,1-5.889,11.562Zm-2.213-.754a6.823,6.823,0,0,1-.868-.566.541.541,0,1,1,.658-.858,5.713,5.713,0,0,0,.729.475.541.541,0,0,1-.52.949Z" transform="translate(-114.714 -50.483)" fill="#f9e5af"/>
    <path id="Path_4733" data-name="Path 4733" d="M85.88,231.882h5.2a.541.541,0,1,0,0-1.082h-5.2a.541.541,0,1,0,0,1.082Z" transform="translate(-47.703 -177.743)"/>
    <path id="Path_4734" data-name="Path 4734" d="M116.369,21.282a.541.541,0,1,0,0-1.082h-.27a.541.541,0,1,0,0,1.082Z" transform="translate(-71.386 -12.697)"/>
    <path id="Path_4735" data-name="Path 4735" d="M83.725,21.282a.541.541,0,0,0,0-1.082H78.469a.541.541,0,0,0,0,1.082Z" transform="translate(-41.896 -12.697)"/>
    <path id="Path_4736" data-name="Path 4736" d="M131.852,93.413a.552.552,0,0,0-.686.34.542.542,0,0,0,1.027.346v0A.541.541,0,0,0,131.852,93.413Z" transform="translate(-83.596 -70.052)"/>
    <path id="Path_4737" data-name="Path 4737" d="M59.9,97.209H74.649a1.624,1.624,0,0,0,1.622-1.622V83.824A1.277,1.277,0,0,0,75,82.548h-3.06a7.276,7.276,0,0,0,2.112-1.953.539.539,0,0,0-.411-.883l-3.547-.028,4.238-4.238a6.176,6.176,0,0,1,.063.856.541.541,0,0,0,1.082,0s0,0,0,0a7.328,7.328,0,0,0-.31-2.1.527.527,0,0,0-.407-.364c-3.95-.8-6.682.622-8.292,3.239a3.959,3.959,0,0,0-3.436.656,6.618,6.618,0,0,1-.842-1.555.541.541,0,1,0-1.02.359,7.938,7.938,0,0,0,1.083,1.965,3.97,3.97,0,0,0-.483,4.054H59.556a1.277,1.277,0,0,0-1.276,1.276V95.586A1.623,1.623,0,0,0,59.9,97.209Zm14.748-1.082H59.9a.541.541,0,0,1-.541-.541v-3H75.19v3A.541.541,0,0,1,74.649,96.127ZM59.361,88.25H75.19v3.256H59.361ZM69.4,80.761l3.053.024A6.3,6.3,0,0,1,69.1,82.473,4,4,0,0,0,69.4,80.761Zm4.159-6.078-2.485,2.485V74.842A6.074,6.074,0,0,1,73.562,74.682ZM70,75.251v3l-.967.967A3.976,3.976,0,0,0,67.47,77.5,6.339,6.339,0,0,1,70,75.251ZM62.95,79.372c.272.31.553.6.83.86l-.05.02a.541.541,0,0,0,.372,1.016,1.84,1.84,0,0,0,1.427-1.959.54.54,0,0,0-1.069.077c-.255-.244-.515-.517-.766-.809a2.912,2.912,0,0,1,4.139,3.972H62.994A2.9,2.9,0,0,1,62.95,79.372ZM59.555,83.63H75a.2.2,0,0,1,.194.194v3.345H59.361V83.824a.194.194,0,0,1,.194-.194Z" transform="translate(-26.497 -54.553)"/>
    <path id="Path_4738" data-name="Path 4738" d="M120.953,126.5a.541.541,0,0,0,.541-.541V125.8a.541.541,0,0,0-1.082,0v.162A.541.541,0,0,0,120.953,126.5Z" transform="translate(-75.19 -95.028)"/>
    <path id="Path_4739" data-name="Path 4739" d="M119.328,166.881a.541.541,0,0,0-.541.541v.162a.541.541,0,1,0,1.082,0v-.162A.541.541,0,0,0,119.328,166.881Z" transform="translate(-73.916 -127.65)"/>
    <path id="Path_4740" data-name="Path 4740" d="M108.078,166.131a.541.541,0,0,0-.541.541v.162a.541.541,0,1,0,1.082,0v-.162A.541.541,0,0,0,108.078,166.131Z" transform="translate(-65.1 -127.062)"/>
    <path id="Path_4741" data-name="Path 4741" d="M173.485,84.4a.541.541,0,0,0,.541-.541V82.25h1.608a.541.541,0,1,0,0-1.082h-1.608V79.561a.541.541,0,0,0-1.082,0v1.608h-1.608a.541.541,0,1,0,0,1.082h1.608v1.608A.541.541,0,0,0,173.485,84.4Z" transform="translate(-114.676 -58.794)"/>
    <path id="Path_4742" data-name="Path 4742" d="M199.338,83.315a.541.541,0,1,0,0,1.082h1.6a.541.541,0,0,0,0-1.082h-.258V79.559a.541.541,0,0,0-.8-.475l-.8.435a.541.541,0,0,0,.517.95v2.846Z" transform="translate(-136.62 -58.791)"/>
    <circle id="Ellipse_89" data-name="Ellipse 89" cx="0.541" cy="0.541" r="0.541" transform="translate(31.516 3.999)"/>
    <path id="Path_4743" data-name="Path 4743" d="M28.3,5.081h1.6a.541.541,0,0,0,0-1.082H28.3a3.832,3.832,0,0,0-3.826,3.826V53.817A3.832,3.832,0,0,0,28.3,57.643H53.261a3.832,3.832,0,0,0,3.826-3.826V30.993a8.766,8.766,0,0,0,9.6-14.279,9.184,9.184,0,0,0-.848-.744.55.55,0,0,0-.757.1.541.541,0,0,0,.1.759,7.821,7.821,0,0,1,.742.653A7.688,7.688,0,0,1,55.816,29.021a.553.553,0,0,0-.532-.074l-1.391.562.562-1.391a.542.542,0,0,0-.074-.532,7.685,7.685,0,0,1,7.112-12.293.541.541,0,0,0,.141-1.073,8.855,8.855,0,0,0-4.547.612V7.825A3.832,3.832,0,0,0,53.261,4H34.22a.541.541,0,0,0,0,1.082H53.261a2.757,2.757,0,0,1,2.745,2.745v3.182H25.55V7.826A2.754,2.754,0,0,1,28.3,5.081Zm27.711,7.008v3.286a8.777,8.777,0,0,0-2.667,12.619l-.926,2.291a.541.541,0,0,0,.7.705l2.293-.926c.2.144.473.315.6.387v19.1H33.564a.541.541,0,1,0,0,1.082H56.006v3.182a2.756,2.756,0,0,1-2.745,2.745H28.3a2.753,2.753,0,0,1-2.745-2.745V50.635h3.688a.541.541,0,1,0,0-1.082H25.551V12.089Z"/>
    <circle id="Ellipse_90" data-name="Ellipse 90" cx="0.541" cy="0.541" r="0.541" transform="translate(30.861 49.553)"/>
    <path id="Path_4744" data-name="Path 4744" d="M203.424,54.866a.541.541,0,0,0,.415-1,.551.551,0,0,0-.707.292A.544.544,0,0,0,203.424,54.866Z" transform="translate(-139.985 -39.05)"/>
  </g>
</svg>
