<svg xmlns="http://www.w3.org/2000/svg" width="46.031" height="53.644" viewBox="0 0 46.031 53.644">
  <g id="budget" transform="translate(-36.33)">
    <g id="Group_4490" data-name="Group 4490" transform="translate(37.116 0.786)">
      <path id="Path_4745" data-name="Path 4745" d="M79.422,59.572H45.09a1.257,1.257,0,0,1-1.257-1.257V8.757A1.257,1.257,0,0,1,45.09,7.5H79.422a1.257,1.257,0,0,1,1.257,1.257V58.315A1.257,1.257,0,0,1,79.422,59.572Z" transform="translate(-43.833 -7.5)" fill="#72c1e8"/>
      <path id="Path_4746" data-name="Path 4746" d="M47.707,59.572H45.087a1.258,1.258,0,0,1-1.257-1.257V8.757A1.258,1.258,0,0,1,45.087,7.5h2.619a1.258,1.258,0,0,0-1.257,1.257V58.315A1.258,1.258,0,0,0,47.707,59.572Z" transform="translate(-43.83 -7.5)" fill="#72c1e8"/>
      <path id="Path_4747" data-name="Path 4747" d="M297.277,295.516H279.051a.838.838,0,0,1-.838-.838V271.9a.838.838,0,0,1,.838-.838h18.226a.838.838,0,0,1,.838.838v22.782A.838.838,0,0,1,297.277,295.516Z" transform="translate(-253.656 -243.443)" fill="#f2e1d6"/>
      <path id="Path_4748" data-name="Path 4748" d="M308.213,303.971v-2.5a.419.419,0,0,1,.419-.419H321.41a.419.419,0,0,1,.419.419v2.5a.419.419,0,0,1-.419.419H308.632A.419.419,0,0,1,308.213,303.971Z" transform="translate(-280.513 -270.3)" fill="#72c1e8"/>
      <path id="Path_4749" data-name="Path 4749" d="M321.826,363.289v10.858a.419.419,0,0,1-.419.419H308.629a.419.419,0,0,1-.419-.419V363.289a.419.419,0,0,1,.419-.419h12.778A.419.419,0,0,1,321.826,363.289Z" transform="translate(-280.51 -325.637)" fill="#eaf6ff"/>
      <path id="Path_4750" data-name="Path 4750" d="M310.832,303.971v-2.5a.419.419,0,0,1,.419-.419h-2.619a.419.419,0,0,0-.419.419v2.5a.419.419,0,0,0,.419.419h2.619A.419.419,0,0,1,310.832,303.971Z" transform="translate(-280.513 -270.3)" fill="#26a6fe"/>
      <path id="Path_4751" data-name="Path 4751" d="M310.829,374.147V363.289a.419.419,0,0,1,.419-.419h-2.619a.419.419,0,0,0-.419.419v10.858a.419.419,0,0,0,.419.419h2.619A.419.419,0,0,1,310.829,374.147Z" transform="translate(-280.51 -325.637)" fill="#d8ecfe"/>
      <path id="Path_4752" data-name="Path 4752" d="M120.641,53.685a6.154,6.154,0,0,1,6.24-6.065V42.5a11.349,11.349,0,0,0-11.507,11.185,11.038,11.038,0,0,0,4.111,8.568l3.689-3.689a6,6,0,0,1-2.533-4.878Z" transform="translate(-107.878 -38.833)" fill="#fc5d3d"/>
      <path id="Path_4753" data-name="Path 4753" d="M120.765,60.968a10.957,10.957,0,0,1-2.775-7.284,11.306,11.306,0,0,1,10.2-11.112,11.743,11.743,0,0,0-1.31-.072A11.349,11.349,0,0,0,115.37,53.685a11.036,11.036,0,0,0,4.111,8.567,11.657,11.657,0,0,0,7.4,2.617c.118,0,.237,0,.354-.005q.119,0,.239-.009c.133-.006.266-.016.4-.026l.157-.015.161-.017a11.617,11.617,0,0,1-6.086-2.545,11.378,11.378,0,0,1-1.336-1.283Z" transform="translate(-107.874 -38.833)" fill="#fc5d3d"/>
      <path id="Path_4754" data-name="Path 4754" d="M162,185.882A6.33,6.33,0,0,1,158.3,184.7l-3.689,3.689a11.739,11.739,0,0,0,16.133-1.29l-3.7-3.7A6.288,6.288,0,0,1,162,185.882Z" transform="translate(-143.002 -164.965)" fill="#81b823"/>
      <path id="Path_4755" data-name="Path 4755" d="M225.2,42.5v5.12a6.154,6.154,0,0,1,6.24,6.065,5.924,5.924,0,0,1-1.2,3.577l3.7,3.7a10.959,10.959,0,0,0,2.769-7.277A11.349,11.349,0,0,0,225.2,42.5Z" transform="translate(-206.195 -38.833)" fill="#f0c020"/>
      <path id="Path_4756" data-name="Path 4756" d="M162,185.882A6.33,6.33,0,0,1,158.3,184.7l-3.689,3.689a11.739,11.739,0,0,0,16.133-1.29l-3.7-3.7A6.288,6.288,0,0,1,162,185.882Z" transform="translate(-143.002 -164.965)" fill="#13bf6d"/>
      <path id="Path_4757" data-name="Path 4757" d="M163.316,222.6l-.161.017-.157.015c-.132.01-.265.02-.4.026q-.119.006-.239.009c-.117,0-.236.005-.354.005a11.657,11.657,0,0,1-7.4-2.617l1.283-1.283a11.379,11.379,0,0,0,1.336,1.283A11.617,11.617,0,0,0,163.316,222.6Z" transform="translate(-143.003 -196.634)" fill="#3ec3a4"/>
      <path id="Path_4758" data-name="Path 4758" d="M399.98,400.08v7.378a.419.419,0,0,1-.419.419H395.51v-7.8Z" transform="translate(-358.663 -358.948)" fill="#fc5d3d"/>
    </g>
    <g id="Group_4491" data-name="Group 4491" transform="translate(36.33 0)">
      <path id="Path_4759" data-name="Path 4759" d="M81.575,39.809a.786.786,0,0,0,.786-.786V29.238a1.626,1.626,0,0,0-1.624-1.624H74.748V2.043A2.045,2.045,0,0,0,72.705,0H49.114a.786.786,0,0,0,0,1.572H72.705a.472.472,0,0,1,.471.471V27.614H62.511a1.626,1.626,0,0,0-1.624,1.624v.733h-8.8a.786.786,0,1,0,0,1.572h8.8v2.194H43.2a.786.786,0,1,0,0,1.572H60.887v2.1h-8.8a.786.786,0,1,0,0,1.572h8.8v2.1H43.2a.786.786,0,0,0,0,1.572H60.887v2.1h-8.8a.786.786,0,1,0,0,1.572h8.8v5.71c0,.018,0,.035,0,.052H38.373A.472.472,0,0,1,37.9,51.6V2.043a.472.472,0,0,1,.471-.471h7.074a.786.786,0,1,0,0-1.572H38.373A2.045,2.045,0,0,0,36.33,2.043V51.6a2.045,2.045,0,0,0,2.043,2.043H80.737a1.626,1.626,0,0,0,1.624-1.624V42.69a.786.786,0,0,0-1.572,0v9.33a.053.053,0,0,1-.052.052H62.511a.053.053,0,0,1-.052-.052V29.238a.053.053,0,0,1,.052-.052H80.737a.053.053,0,0,1,.052.052v9.785a.786.786,0,0,0,.786.786Z" transform="translate(-36.33 0)"/>
      <path id="Path_4760" data-name="Path 4760" d="M315.9,294.763a1.206,1.206,0,0,0-1.2-1.2H301.918a1.206,1.206,0,0,0-1.2,1.2v2.5a1.206,1.206,0,0,0,1.2,1.2H314.7a1.206,1.206,0,0,0,1.2-1.2Zm-1.572,2.128H302.285V295.13h12.044Z" transform="translate(-273.013 -262.801)"/>
      <path id="Path_4761" data-name="Path 4761" d="M314.693,355.37H301.915a1.206,1.206,0,0,0-1.2,1.2v10.858a1.206,1.206,0,0,0,1.2,1.2h12.778a1.206,1.206,0,0,0,1.2-1.2V356.575A1.206,1.206,0,0,0,314.693,355.37Zm-.367,3.9h-2.967v-2.327h2.967Zm-4.539,7.8H306.82v-2.327h2.967v2.327Zm0-3.9H306.82V360.84h2.967v2.327Zm-7.506-2.327h2.967v2.327h-2.967Zm4.539-1.572v-2.327h2.967v2.327Zm-1.572-2.327v2.327h-2.967v-2.327Zm-2.967,7.8h2.967v2.327h-2.967Zm9.078,2.327V360.84h2.967v6.226Z" transform="translate(-273.01 -318.137)"/>
      <path id="Path_4762" data-name="Path 4762" d="M132.458,46.97a12.3,12.3,0,1,0-12.292,11.97A12.148,12.148,0,0,0,132.458,46.97Zm-18.49,8.481,2.6-2.6a7.144,7.144,0,0,0,8.675-1.153l2.561,2.561a10.951,10.951,0,0,1-13.836,1.192Zm6.2-13.76a5.282,5.282,0,1,1-5.454,5.279A5.375,5.375,0,0,1,120.166,41.691Zm10.721,5.279a10.136,10.136,0,0,1-2.046,6.1l-2.625-2.625a6.679,6.679,0,0,0,.976-3.478A6.923,6.923,0,0,0,121,40.17V36.6A10.547,10.547,0,0,1,130.886,46.97Zm-21.442,0A10.55,10.55,0,0,1,119.43,36.6v3.561a6.927,6.927,0,0,0-6.29,6.813A6.749,6.749,0,0,0,115.3,51.9l-2.559,2.559a10.222,10.222,0,0,1-3.292-7.49Z" transform="translate(-100.377 -31.333)"/>
      <path id="Path_4763" data-name="Path 4763" d="M203.569,114.958a2.853,2.853,0,0,0,1.108.493v.078a.786.786,0,0,0,.773.8h.013a.786.786,0,0,0,.785-.773l0-.167a2.332,2.332,0,0,0,1.541-1.783,2.1,2.1,0,0,0-1.382-2.4,5.42,5.42,0,0,1-1.344-.648.306.306,0,0,1-.027-.246.44.44,0,0,1,.286-.343,1.369,1.369,0,0,1,1.09.269.786.786,0,0,0,1.006-1.207,3.043,3.043,0,0,0-1.052-.548V108.4a.786.786,0,1,0-1.571-.026l0,.116a2,2,0,0,0-1.3,1.506,1.8,1.8,0,0,0,.575,1.784,6.525,6.525,0,0,0,1.786.9.529.529,0,0,1,.386.639.751.751,0,0,1-.752.626h-.01a1.4,1.4,0,0,1-1.031-.286.786.786,0,1,0-.883,1.3Z" transform="translate(-185.739 -96.327)"/>
      <path id="Path_4764" data-name="Path 4764" d="M100.121,428.572a.786.786,0,1,0,0-1.572H95.148a.786.786,0,1,0,0,1.572Z" transform="translate(-88.282 -382.262)"/>
      <path id="Path_4765" data-name="Path 4765" d="M95.147,358.572h4.973a.786.786,0,1,0,0-1.572H95.147a.786.786,0,1,0,0,1.572Z" transform="translate(-88.281 -319.596)"/>
      <path id="Path_4766" data-name="Path 4766" d="M95.147,287a.786.786,0,0,0,0,1.572h4.973a.786.786,0,0,0,0-1.572Z" transform="translate(-88.281 -256.93)"/>
    </g>
  </g>
</svg>
