<svg xmlns="http://www.w3.org/2000/svg" width="32.329" height="32.779" viewBox="0 0 32.329 32.779">
  <g id="interactive" transform="translate(-3.515)">
    <g id="Group_411" data-name="Group 411" transform="translate(5.213 0.48)">
      <path id="Path_2780" data-name="Path 2780" d="M43.2,8.639A1.142,1.142,0,0,0,42.065,7.5h-10.9A1.142,1.142,0,0,0,30.03,8.639v4.869a1.142,1.142,0,0,0,1.138,1.139h10.9A1.142,1.142,0,0,0,43.2,13.508V8.639Z" transform="translate(-30.03 -7.5)" fill="#ffcf00" fill-rule="evenodd"/>
    </g>
    <g id="Group_412" data-name="Group 412" transform="translate(18.802 8.25)">
      <path id="Path_2781" data-name="Path 2781" d="M251.045,132.166a4.452,4.452,0,1,0-5.576,5.421c1.074.356,2.752,1.252,4.289-.987a4.455,4.455,0,0,0,1.287-4.435Z" transform="translate(-242.294 -128.863)" fill="#84d2f4" fill-rule="evenodd"/>
    </g>
    <g id="Group_413" data-name="Group 413" transform="translate(3.993 15.567)">
      <path id="Path_2782" data-name="Path 2782" d="M19.738,245.5a4.691,4.691,0,1,0-1.717,6.413A4.687,4.687,0,0,0,19.738,245.5Z" transform="translate(-10.985 -243.151)" fill="#ffcf00" fill-rule="evenodd"/>
    </g>
    <g id="Group_414" data-name="Group 414" transform="translate(6.733 18.309)">
      <path id="Path_2783" data-name="Path 2783" d="M57.419,286.964a1.952,1.952,0,1,0-.713,2.667A1.95,1.95,0,0,0,57.419,286.964Z" transform="translate(-53.777 -285.986)" fill="#e7ecf1" fill-rule="evenodd"/>
    </g>
    <g id="Group_415" data-name="Group 415" transform="translate(17.076 11.468)">
      <path id="Path_2784" data-name="Path 2784" d="M225.339,186v-1.088a1.279,1.279,0,1,0-2.554,0v-4.438a1.279,1.279,0,1,0-2.554,0v9.175c0,.97-.205,1.7-.86.887-1.011-1.472-1.753-2.273-3.173-2.026a.96.96,0,0,0-.581,1.655l4.044,5.937a4.913,4.913,0,0,1,.986,3.219.635.635,0,0,0,.633.632h7.565a.635.635,0,0,0,.633-.632v-1.958c0-1.642.75-1.488.966-3.5v-6.778a1.278,1.278,0,1,0-2.552,0V186a1.279,1.279,0,1,0-2.554,0Z" transform="translate(-215.33 -179.126)" fill="#fce7d1" fill-rule="evenodd"/>
    </g>
    <g id="Group_416" data-name="Group 416" transform="translate(14.925 0.48)">
      <path id="Path_2785" data-name="Path 2785" d="M185.191,8.639A1.142,1.142,0,0,0,184.053,7.5H181.73a1.142,1.142,0,0,1,1.138,1.139v4.869a1.142,1.142,0,0,1-1.138,1.139h2.323a1.142,1.142,0,0,0,1.138-1.139Z" transform="translate(-181.73 -7.5)" fill="#ffe571" fill-rule="evenodd"/>
    </g>
    <g id="Group_417" data-name="Group 417" transform="translate(20.617 8.25)">
      <path id="Path_2786" data-name="Path 2786" d="M277.571,132.166a4.451,4.451,0,0,0-6.937-2.436,4.455,4.455,0,0,1,4.518,6.973,1.328,1.328,0,0,1,1.133-.1,4.456,4.456,0,0,0,1.287-4.435Z" transform="translate(-270.634 -128.863)" fill="#00a3ce" fill-rule="evenodd"/>
    </g>
    <g id="Group_418" data-name="Group 418" transform="translate(29.344 18.082)">
      <path id="Path_2787" data-name="Path 2787" d="M409.79,283.79a1.279,1.279,0,0,0-1.9-1.2,1.287,1.287,0,0,1,.652,1.2v6.778c-.216,2.008-.966,1.853-.966,3.5v1.959a.635.635,0,0,1-.633.632h1.249a.635.635,0,0,0,.633-.632v-1.959c0-1.642.75-1.488.966-3.5V283.79Z" transform="translate(-406.942 -282.437)" fill="#ffceb7" fill-rule="evenodd"/>
    </g>
    <g id="Group_419" data-name="Group 419" transform="translate(31.215 10.907)">
      <path id="Path_2788" data-name="Path 2788" d="M439.766,172.157a1.8,1.8,0,1,0-1.8,1.8A1.8,1.8,0,0,0,439.766,172.157Z" transform="translate(-436.17 -170.357)" fill="#f75454" fill-rule="evenodd"/>
    </g>
    <g id="Group_420" data-name="Group 420" transform="translate(29.875 1.22)">
      <path id="Path_2789" data-name="Path 2789" d="M419.926,19.868a2.745,2.745,0,1,0,0,3.884A2.743,2.743,0,0,0,419.926,19.868Z" transform="translate(-415.241 -19.064)" fill="#ffd13e" fill-rule="evenodd"/>
    </g>
    <g id="Group_421" data-name="Group 421" transform="translate(31.658 1.22)">
      <path id="Path_2790" data-name="Path 2790" d="M445.99,23.748a2.746,2.746,0,0,0-2.9-4.515,2.748,2.748,0,0,1,.312,5.241A2.736,2.736,0,0,0,445.99,23.748Z" transform="translate(-443.088 -19.06)" fill="#ffe571" fill-rule="evenodd"/>
    </g>
    <g id="Group_422" data-name="Group 422" transform="translate(32.111 10.907)">
      <path id="Path_2791" data-name="Path 2791" d="M452.874,172.157a1.8,1.8,0,0,0-2.7-1.557,1.8,1.8,0,0,1,.191,3.208,1.8,1.8,0,0,0,2.508-1.651Z" transform="translate(-450.175 -170.357)" fill="#f75454" fill-rule="evenodd"/>
    </g>
    <g id="Group_423" data-name="Group 423" transform="translate(7.645 15.567)">
      <path id="Path_2792" data-name="Path 2792" d="M71.261,245.536a4.7,4.7,0,0,1-3.022,6.927,4.7,4.7,0,1,0-.22-9.2A4.68,4.68,0,0,1,71.261,245.536Z" transform="translate(-68.019 -243.143)" fill="#ffe571" fill-rule="evenodd"/>
    </g>
    <g id="Group_424" data-name="Group 424" transform="translate(3.515 0)">
      <path id="Path_2793" data-name="Path 2793" d="M119.876,37.43h-5.013a.48.48,0,1,0,0,.96h5.013a.48.48,0,1,0,0-.96Z" transform="translate(-107.285 -35.034)"/>
      <path id="Path_2794" data-name="Path 2794" d="M53.4,38.39h1.461a.48.48,0,1,0,0-.96H53.4a.48.48,0,1,0,0,.96Z" transform="translate(-49.758 -35.034)"/>
      <path id="Path_2795" data-name="Path 2795" d="M53.4,74.344h5.013a.48.48,0,1,0,0-.96H53.4a.48.48,0,1,0,0,.96Z" transform="translate(-49.758 -68.686)"/>
      <path id="Path_2796" data-name="Path 2796" d="M171.805,73.384h-1.461a.48.48,0,0,0,0,.96h1.461a.48.48,0,0,0,0-.96Z" transform="translate(-159.214 -68.686)"/>
      <path id="Path_2797" data-name="Path 2797" d="M33.014,10.426a2.283,2.283,0,0,0-2.228,1.8H28.163a4.963,4.963,0,0,0-1.1-2.655l3.3-3.3A3.225,3.225,0,0,0,34.9,1.685,3.226,3.226,0,0,0,29.779,5.5l-.009.009L26.386,8.893a4.988,4.988,0,0,0-.667-.462,4.929,4.929,0,0,0-5.594.462L18.6,7.371a1.61,1.61,0,0,0,.263-.883V1.619A1.621,1.621,0,0,0,17.248,0H6.351A1.621,1.621,0,0,0,4.733,1.619V6.488A1.621,1.621,0,0,0,6.351,8.107h3.784a.48.48,0,0,0,0-.96H6.351a.659.659,0,0,1-.658-.659V1.619A.659.659,0,0,1,6.351.96h10.9a.659.659,0,0,1,.658.659V6.488a.659.659,0,0,1-.658.659h-4.9a.48.48,0,0,0,0,.96h4.9a1.608,1.608,0,0,0,.613-.121l1.586,1.588a4.94,4.94,0,0,0-1.038,4.045l-5.754,3.327h0A5.166,5.166,0,0,0,6.1,15.781a5.174,5.174,0,1,0,7.1,1.96l5.488-3.173a4.9,4.9,0,0,0,2.811,2.75v4.677a4.146,4.146,0,0,1-.031.548c-.977-1.415-1.877-2.46-3.606-2.16a1.48,1.48,0,0,0-1.177.9,1.553,1.553,0,0,0,.291,1.513l4.036,5.925a4.443,4.443,0,0,1,.9,2.949,1.114,1.114,0,0,0,1.114,1.112h7.565a1.114,1.114,0,0,0,1.114-1.112V29.709a2.539,2.539,0,0,1,.354-1.4,5.114,5.114,0,0,0,.609-2.042.492.492,0,0,0,0-.051V24.569a.48.48,0,1,0-.96,0v1.618a4.156,4.156,0,0,1-.505,1.681,3.477,3.477,0,0,0-.46,1.841v1.958a.155.155,0,0,1-.153.152H23.027a.155.155,0,0,1-.153-.152,5.379,5.379,0,0,0-1.069-3.49L17.761,22.24l-.018-.024a.636.636,0,0,1-.163-.591.55.55,0,0,1,.447-.3c1.109-.193,1.7.38,2.695,1.825l.021.029c.362.451.725.617,1.077.493.441-.155.638-.673.638-1.68V12.82a.8.8,0,1,1,1.593,0V21.1a.48.48,0,0,0,.96,0V17.258a.782.782,0,0,1,.8-.872.869.869,0,0,1,.269.043l.044.016a.8.8,0,0,1,.483.813v4.484a.48.48,0,1,0,.96,0v-3.4a.8.8,0,1,1,1.593,0v4.037a.48.48,0,1,0,.96,0V19.435a.782.782,0,0,1,.8-.872.8.8,0,0,1,.548.208.873.873,0,0,1,.248.665v2.916a.48.48,0,0,0,.96,0V19.435A1.737,1.737,0,0,0,30.915,17.6a1.805,1.805,0,0,0-.858.216,1.714,1.714,0,0,0-1.694-1.3,1.808,1.808,0,0,0-.86.216,1.7,1.7,0,0,0-.484-.836,4.927,4.927,0,0,0,1.145-2.708h2.622a2.278,2.278,0,1,0,2.228-2.761ZM31.019,2.364h0a2.265,2.265,0,0,1,3.2,3.206,2.265,2.265,0,0,1-3.2-3.206ZM10.79,23.913h0A4.205,4.205,0,0,1,5.039,22.37a4.211,4.211,0,1,1,5.751,1.543Zm16.437-11.2a3.97,3.97,0,0,1-1.1,2.74,1.817,1.817,0,0,0-1.113.156V12.82a1.759,1.759,0,1,0-3.514,0v3.452A3.971,3.971,0,1,1,27.227,12.7s0,.008,0,.012,0,0,0,.008Zm5.787,1.311a1.319,1.319,0,1,1,1.317-1.318A1.32,1.32,0,0,1,33.014,14.026Z" transform="translate(-3.515 0)"/>
      <path id="Path_2798" data-name="Path 2798" d="M49.348,278.56a2.433,2.433,0,0,0-1.259,4.7,2.446,2.446,0,0,0,.633.084,2.421,2.421,0,0,0,1.213-.327h0a2.435,2.435,0,0,0-.587-4.458Zm.107,3.626a1.474,1.474,0,1,1,.538-2.011A1.462,1.462,0,0,1,49.455,282.186Z" transform="translate(-43.549 -260.647)"/>
    </g>
  </g>
</svg>
