<svg xmlns="http://www.w3.org/2000/svg" width="25.398" height="33.537" viewBox="0 0 25.398 33.537">
  <g id="online-menu" transform="translate(-62.128)">
    <path id="Path_4767" data-name="Path 4767" d="M69.628,7.5H94.044V40.056H69.628Z" transform="translate(-7.009 -7.011)" fill="#ffd13e"/>
    <path id="Path_4768" data-name="Path 4768" d="M69.628,69.084H72.9V67.049h-1.24V40.6H72.9V38.564H69.628Z" transform="translate(-7.009 -36.038)" fill="#ffd13e"/>
    <path id="Path_4769" data-name="Path 4769" d="M100.69,69.626h20.347v26.45H100.69Z" transform="translate(-36.036 -65.065)" fill="#3db8f5"/>
    <path id="Path_4770" data-name="Path 4770" d="M100.69,69.626h1.24v26.45h-1.24Z" transform="translate(-36.036 -65.065)" fill="#3db8f5"/>
    <path id="Path_4771" data-name="Path 4771" d="M153,149.3h-5.672a.725.725,0,0,1-.725-.725,1.31,1.31,0,0,1,1.31-1.31h4.5a1.31,1.31,0,0,1,1.31,1.31A.725.725,0,0,1,153,149.3Z" transform="translate(-78.938 -137.616)" fill="#facf66"/>
    <path id="Path_4772" data-name="Path 4772" d="M149.218,148.571a1.31,1.31,0,0,1,1.31-1.31h-2.62a1.31,1.31,0,0,0-1.31,1.31.725.725,0,0,0,.725.725h2.62A.725.725,0,0,1,149.218,148.571Z" transform="translate(-78.937 -137.615)" fill="#f4b558"/>
    <path id="Path_4773" data-name="Path 4773" d="M69.628,9.537h13.2L84.708,7.5H69.628Z" transform="translate(-7.009 -7.011)" fill="#fc5d3d"/>
    <path id="Path_4774" data-name="Path 4774" d="M69.628,7.5H72.9V9.537H69.628Z" transform="translate(-7.009 -7.011)" fill="#d83939"/>
    <path id="Path_4775" data-name="Path 4775" d="M155.381,178.324h4.069a1.017,1.017,0,0,1,0,2.035h-4.069a1.017,1.017,0,0,1,0-2.035Z" transform="translate(-86.194 -166.643)" fill="#a3262c"/>
    <path id="Path_4776" data-name="Path 4776" d="M156.329,179.341a1.017,1.017,0,0,1,1.017-1.017h-1.965a1.017,1.017,0,1,0,0,2.035h1.965A1.017,1.017,0,0,1,156.329,179.341Z" transform="translate(-86.194 -166.643)" fill="#822029"/>
    <path id="Path_4777" data-name="Path 4777" d="M153,209.386h-5.672a.725.725,0,0,0-.725.725,1.31,1.31,0,0,0,1.31,1.31h4.5a1.31,1.31,0,0,0,1.31-1.31A.725.725,0,0,0,153,209.386Z" transform="translate(-78.938 -195.671)" fill="#facf66"/>
    <path id="Path_4778" data-name="Path 4778" d="M148.563,210.111a.725.725,0,0,1,.725-.725h-1.965a.725.725,0,0,0-.725.725,1.31,1.31,0,0,0,1.31,1.31h1.965A1.31,1.31,0,0,1,148.563,210.111Z" transform="translate(-78.937 -195.671)" fill="#f4b558"/>
    <path id="Path_4779" data-name="Path 4779" d="M306.464,153.365h-2.346l-.838-6.1h4.069Z" transform="translate(-225.356 -137.615)" fill="#fc5d3d"/>
    <path id="Path_4780" data-name="Path 4780" d="M303.28,147.261l.838,6.1h1.31l-.838-6.1Z" transform="translate(-225.356 -137.615)" fill="#d83939"/>
    <path id="Path_4781" data-name="Path 4781" d="M163.5,287.042h5.087v1.9H163.5Z" transform="translate(-94.732 -268.24)" fill="#fc5d3d"/>
    <path id="Path_4782" data-name="Path 4782" d="M303.28,287.042h4.069v2.035H303.28Z" transform="translate(-225.356 -268.24)" fill="#fc5d3d"/>
    <g id="Group_4495" data-name="Group 4495" transform="translate(62.128)">
      <g id="Group_4492" data-name="Group 4492" transform="translate(2.035 4.07)">
        <path id="Path_4783" data-name="Path 4783" d="M96.727,89.563H93.683a.491.491,0,0,1-.491-.491V62.621a.491.491,0,0,1,.491-.491h10.123a.491.491,0,0,1,0,.983H94.175V88.58h2.553a.491.491,0,0,1,0,.983Z" transform="translate(-93.192 -62.13)"/>
      </g>
      <g id="Group_4493" data-name="Group 4493" transform="translate(7.219 4.07)">
        <path id="Path_4784" data-name="Path 4784" d="M187.994,89.563H172.832a.491.491,0,1,1,0-.983H187.5V63.113h-7.592a.491.491,0,1,1,0-.983h8.083a.491.491,0,0,1,.491.491v26.45A.491.491,0,0,1,187.994,89.563Z" transform="translate(-172.341 -62.13)"/>
      </g>
      <g id="Group_4494" data-name="Group 4494">
        <path id="Path_4785" data-name="Path 4785" d="M295.831,111.291l.838,6.1a.491.491,0,0,0,.487.424H299.5a.491.491,0,0,0,.486-.421l.886-6.1a.491.491,0,0,0-.486-.562h-1.543v-1.052h.5a.491.491,0,0,0,0-.983h-.991a.491.491,0,0,0-.491.491v1.543h-1.543A.486.486,0,0,0,295.831,111.291Zm3.245,5.546h-1.492l-.424-3.087h2.364Zm.743-5.121-.153,1.052h-2.641l-.144-1.052Z" transform="translate(-280.522 -101.578)"/>
        <path id="Path_4786" data-name="Path 4786" d="M87.035,18.223a.491.491,0,0,0,.491-.491V.491A.491.491,0,0,0,87.035,0H62.619a.494.494,0,0,0-.491.491V33.046a.491.491,0,0,0,.491.491H87.035a.491.491,0,0,0,.491-.491V19.872a.491.491,0,1,0-.983,0V32.555H63.111V3.017h12.7a.491.491,0,0,0,.36-.157L77.914.983h8.629V17.731a.491.491,0,0,0,.491.491ZM75.6,2.035H63.111V.983H76.575Z" transform="translate(-62.128)"/>
        <path id="Path_4787" data-name="Path 4787" d="M324.16,32.047a.491.491,0,1,0,0-.983h-.315a.491.491,0,1,0,0,.983Z" transform="translate(-306.242 -29.029)"/>
        <path id="Path_4788" data-name="Path 4788" d="M362.475,31.555a.491.491,0,0,0-.491-.491h-.315a.491.491,0,1,0,0,.983h.315A.491.491,0,0,0,362.475,31.555Z" transform="translate(-341.589 -29.029)"/>
        <path id="Path_4789" data-name="Path 4789" d="M399.491,31.064a.491.491,0,1,0,0,.983h.315a.491.491,0,1,0,0-.983Z" transform="translate(-376.934 -29.029)"/>
        <path id="Path_4790" data-name="Path 4790" d="M147.2,141.563a1.8,1.8,0,0,0-1.8-1.8h-4.5a1.8,1.8,0,0,0-1.8,1.8,1.217,1.217,0,0,0,.661,1.082,1.507,1.507,0,0,0,0,1.32,1.217,1.217,0,0,0-.661,1.082,1.8,1.8,0,0,0,1.8,1.8h4.5a1.8,1.8,0,0,0,1.8-1.8,1.217,1.217,0,0,0-.661-1.082,1.507,1.507,0,0,0,0-1.32A1.217,1.217,0,0,0,147.2,141.563Zm-1.8,4.3h-4.5a.82.82,0,0,1-.819-.819.234.234,0,0,1,.233-.233h5.672a.234.234,0,0,1,.233.233.82.82,0,0,1-.819.819Zm-4.811-2.561a.527.527,0,0,1,.526-.526h4.069a.526.526,0,0,1,0,1.052h-4.069A.527.527,0,0,1,140.589,143.305Zm5.4-1.509h-5.672a.234.234,0,0,1-.233-.233.82.82,0,0,1,.819-.819h4.5a.82.82,0,0,1,.819.819A.233.233,0,0,1,145.986,141.8Z" transform="translate(-134.056 -130.607)"/>
        <path id="Path_4791" data-name="Path 4791" d="M162.069,280.033a.491.491,0,0,0-.491-.491h-5.087a.491.491,0,0,0-.491.491v1.9a.491.491,0,0,0,.491.491h5.087a.491.491,0,0,0,.491-.491Zm-.983,1.408h-4.1v-.917h4.1Z" transform="translate(-149.851 -261.231)"/>
        <path id="Path_4792" data-name="Path 4792" d="M300.832,280.033a.491.491,0,0,0-.491-.491h-4.069a.491.491,0,0,0-.491.491v2.035a.491.491,0,0,0,.491.491h4.069a.491.491,0,0,0,.491-.491Zm-.983,1.543h-3.087v-1.052h3.087Z" transform="translate(-280.475 -261.231)"/>
        <path id="Path_4793" data-name="Path 4793" d="M161.578,341.666h-5.087a.491.491,0,1,0,0,.983h5.087a.491.491,0,1,0,0-.983Z" transform="translate(-149.851 -319.286)"/>
        <path id="Path_4794" data-name="Path 4794" d="M300.341,341.666h-4.069a.491.491,0,0,0,0,.983h4.069a.491.491,0,0,0,0-.983Z" transform="translate(-280.475 -319.286)"/>
        <path id="Path_4795" data-name="Path 4795" d="M189.966,372.729h-3.1a.491.491,0,0,0,0,.983h3.1a.491.491,0,1,0,0-.983Z" transform="translate(-178.239 -348.314)"/>
        <path id="Path_4796" data-name="Path 4796" d="M328.728,372.729h-2.08a.491.491,0,0,0,0,.983h2.08a.491.491,0,1,0,0-.983Z" transform="translate(-308.863 -348.314)"/>
        <path id="Path_4797" data-name="Path 4797" d="M189.966,403.791h-3.1a.491.491,0,1,0,0,.983h3.1a.491.491,0,1,0,0-.983Z" transform="translate(-178.239 -377.342)"/>
        <path id="Path_4798" data-name="Path 4798" d="M328.728,403.791h-2.08a.491.491,0,1,0,0,.983h2.08a.491.491,0,1,0,0-.983Z" transform="translate(-308.863 -377.342)"/>
      </g>
      <path id="Path_4799" data-name="Path 4799" d="M156.491,373.732a.491.491,0,1,1,.491-.491A.491.491,0,0,1,156.491,373.732Z" transform="translate(-149.851 -348.333)"/>
      <path id="Path_4800" data-name="Path 4800" d="M156.491,404.794a.491.491,0,1,1,.491-.491A.491.491,0,0,1,156.491,404.794Z" transform="translate(-149.851 -377.36)"/>
      <path id="Path_4801" data-name="Path 4801" d="M296.271,373.732a.491.491,0,1,1,.491-.491A.491.491,0,0,1,296.271,373.732Z" transform="translate(-280.475 -348.333)"/>
      <path id="Path_4802" data-name="Path 4802" d="M296.271,404.794a.491.491,0,1,1,.491-.491A.491.491,0,0,1,296.271,404.794Z" transform="translate(-280.475 -377.36)"/>
    </g>
  </g>
</svg>
