<svg xmlns="http://www.w3.org/2000/svg" width="30.678" height="32.779" viewBox="0 0 30.678 32.779">
  <g id="sticky-notes" transform="translate(-16.409)">
    <path id="Path_15773" data-name="Path 15773" d="M175.881,23.029a2.277,2.277,0,0,0,2.277,2.277H191.41a2.277,2.277,0,0,0,2.277-2.277V9.777A2.277,2.277,0,0,0,191.41,7.5H178.158a2.277,2.277,0,0,0-2.277,2.277Z" transform="translate(-149.262 -7.02)" fill="#84d2f4"/>
    <path id="Path_15774" data-name="Path 15774" d="M193.593,129.843h-7.715v-.354a4.2,4.2,0,0,0-4.2-4.2h-5.8v7.987a2.277,2.277,0,0,0,2.277,2.277h13.252a2.277,2.277,0,0,0,2.277-2.277v-3.434Z" transform="translate(-149.263 -117.271)" fill="#00a3ce"/>
    <path id="Path_15775" data-name="Path 15775" d="M23.908,170.821a2.277,2.277,0,0,0,2.277,2.277H39.437a2.277,2.277,0,0,0,2.277-2.277V157.569a2.277,2.277,0,0,0-2.277-2.277H26.185a2.277,2.277,0,0,0-2.277,2.277Z" transform="translate(-7.019 -145.35)" fill="#f75454"/>
    <path id="Path_15776" data-name="Path 15776" d="M184.174,196.384a4.2,4.2,0,0,0-4.2,4.2v10.977h5.537a2.277,2.277,0,0,0,2.277-2.277v-12.9Z" transform="translate(-153.095 -183.811)" fill="#d84945"/>
    <path id="Path_15777" data-name="Path 15777" d="M212.253,244.19h9.165a6.363,6.363,0,0,0,6.363-6.363v-9.165a2.277,2.277,0,0,0-2.277-2.277H212.253a2.277,2.277,0,0,0-2.277,2.277v13.252A2.277,2.277,0,0,0,212.253,244.19Z" transform="translate(-181.174 -211.89)" fill="#ffd13e"/>
    <path id="Path_15778" data-name="Path 15778" d="M351.572,374.346a6.363,6.363,0,0,0,6.363-6.363v-2.539c0,2.6-1.437,3.517-3.109,3.517a2.28,2.28,0,0,0-2.277,2.277c0,1.672-.921,3.109-3.517,3.109h2.539Z" transform="translate(-311.329 -342.047)" fill="#ffe571"/>
    <g id="Group_528" data-name="Group 528" transform="translate(28.652 6.434)">
      <g id="Group_527" data-name="Group 527">
        <ellipse id="Ellipse_66" data-name="Ellipse 66" cx="1.851" cy="1.474" rx="1.851" ry="1.474" fill="#fff"/>
        <ellipse id="Ellipse_67" data-name="Ellipse 67" cx="1.852" cy="1.474" rx="1.852" ry="1.474" transform="translate(10.036)" fill="#fff"/>
      </g>
    </g>
    <path id="Path_15779" data-name="Path 15779" d="M42.63,23.335H32.778a.48.48,0,1,0,0,.96H42.63a.48.48,0,1,0,0-.96ZM36.094,7.019a.759.759,0,0,1-1.146,0,.48.48,0,1,0-.724.631,1.719,1.719,0,0,0,2.594,0,.48.48,0,1,0-.724-.631Zm-11.916,7.7a.48.48,0,0,0,0-.96H20.374a.48.48,0,0,0,0,.96ZM42.63,19.173H32.778a.48.48,0,1,0,0,.96H42.63a.48.48,0,1,0,0-.96ZM30.221,6.3a.48.48,0,1,0,.96,0,.4.4,0,0,1,.8,0,.48.48,0,1,0,.96,0,1.361,1.361,0,1,0-2.723,0ZM39.46,4.943A1.363,1.363,0,0,0,38.1,6.3a.48.48,0,1,0,.96,0,.4.4,0,0,1,.8,0,.48.48,0,1,0,.96,0A1.363,1.363,0,0,0,39.46,4.943ZM44.9,14.074V2.757A2.754,2.754,0,0,0,43.023.142a.48.48,0,0,0-.3.911,1.8,1.8,0,0,1,1.226,1.7V14.013H35.175V12.219a2.76,2.76,0,0,0-2.757-2.757H27.1v-6.7A1.8,1.8,0,0,1,28.9.96H40.623a.48.48,0,1,0,0-.96H28.9a2.76,2.76,0,0,0-2.757,2.757v6.7H19.166a2.76,2.76,0,0,0-2.757,2.757V25.471a2.765,2.765,0,0,0,1.821,2.594.48.48,0,0,0,.326-.9,1.8,1.8,0,0,1-1.187-1.691V12.219a1.8,1.8,0,0,1,1.8-1.8H32.418a1.8,1.8,0,0,1,1.8,1.8v1.794H31.078a2.76,2.76,0,0,0-2.757,2.757v3.992c-2.566,4.546-5.291,2.737-3.883.376,2.2-3.687-1.812-5.733-4.133-2.714a.48.48,0,0,0,.761.585c1.574-2.048,4.137-1.03,2.547,1.636-1.831,3.069,1.566,5.946,4.707,1.863v4.759H20.687a.48.48,0,1,0,0,.96h7.635v1.794a2.76,2.76,0,0,0,2.757,2.757h9.165a6.851,6.851,0,0,0,6.844-6.844V16.77a2.761,2.761,0,0,0-2.183-2.7ZM40.681,31.8A3.471,3.471,0,0,0,41.7,29.191a1.8,1.8,0,0,1,1.8-1.8,3.471,3.471,0,0,0,2.612-1.021A5.893,5.893,0,0,1,40.681,31.8ZM46.127,23.4c0,2.51-1.429,3.037-2.628,3.037a2.761,2.761,0,0,0-2.757,2.757c0,2.172-1.652,2.628-3.037,2.628H31.078a1.8,1.8,0,0,1-1.8-1.8V16.77a1.8,1.8,0,0,1,1.8-1.8H44.33a1.8,1.8,0,0,1,1.8,1.8Z"/>
  </g>
</svg>
