<svg xmlns="http://www.w3.org/2000/svg" width="32.972" height="32.779" viewBox="0 0 32.972 32.779">
  <g id="order-food" transform="translate(0 -1.445)">
    <g id="Group_4495" data-name="Group 4495" transform="translate(0.5 1.945)">
      <path id="Path_4678" data-name="Path 4678" d="M38.132,34.915H8.832A1.332,1.332,0,0,1,7.5,33.583V10.277A1.332,1.332,0,0,1,8.832,8.945h29.3a1.332,1.332,0,0,1,1.332,1.332V33.583a1.332,1.332,0,0,1-1.332,1.332Z" transform="translate(-7.5 -8.945)" fill="#ffd13e"/>
      <path id="Path_4679" data-name="Path 4679" d="M448.707,8.945h-1.332a1.332,1.332,0,0,1,1.332,1.332V33.583a1.332,1.332,0,0,1-1.332,1.332h1.332a1.332,1.332,0,0,0,1.332-1.332V10.277A1.332,1.332,0,0,0,448.707,8.945Z" transform="translate(-418.075 -8.945)" fill="#ffe571"/>
      <path id="Path_4680" data-name="Path 4680" d="M39.464,13.945H7.5V10.277A1.332,1.332,0,0,1,8.832,8.945h29.3a1.332,1.332,0,0,1,1.332,1.332Z" transform="translate(-7.5 -8.945)" fill="#72c1e8"/>
      <path id="Path_4681" data-name="Path 4681" d="M449.935,9.759a1.357,1.357,0,0,0-1.275-.814h-1.285a1.345,1.345,0,0,1,1.306,1.068,3.612,3.612,0,0,1,.026.7v3.23h1.332V10.58A2.028,2.028,0,0,0,449.935,9.759Z" transform="translate(-418.075 -8.945)" fill="#72c1e8"/>
      <path id="Path_4682" data-name="Path 4682" d="M286.034,229.942h-6.661a2,2,0,0,1,0-4h6.661a2,2,0,0,1,0,4Z" transform="translate(-259.399 -211.491)" fill="#fc5d3d"/>
      <path id="Path_4683" data-name="Path 4683" d="M388.707,225.945h-1.332a2,2,0,1,1,0,4h1.332a2,2,0,0,0,0-4Z" transform="translate(-362.072 -211.491)" fill="#fd6f53"/>
      <path id="Path_4684" data-name="Path 4684" d="M72.319,226.969H63.307l-.843-9.294H73.123Z" transform="translate(-58.803 -203.772)" fill="#fc5d3d"/>
      <path id="Path_4685" data-name="Path 4685" d="M191.224,217.675l-.8,9.294h1.332l.8-9.294Z" transform="translate(-178.236 -203.772)" fill="#fc5d3d"/>
      <path id="Path_4686" data-name="Path 4686" d="M127.5,141.389v-5.444l4,.67v4.774Z" transform="translate(-119.507 -127.486)" fill="#fff"/>
      <g id="Group_4494" data-name="Group 4494" transform="translate(16.969 16.475)">
        <path id="Path_4687" data-name="Path 4687" d="M275.734,263.27a1.5,1.5,0,0,0-1.5,1.5v-1a1.5,1.5,0,0,0-3,0v-1a1.5,1.5,0,1,0-3,0v-4.992a1.5,1.5,0,0,0-3,0v6.48l-1.49.029a1.5,1.5,0,0,0-1.5,1.5l-.008,4.144,1.024,1.916h13.98l-.017-7.078A1.5,1.5,0,0,0,275.734,263.27Z" transform="translate(-262.246 -256.28)" fill="#fce7d1"/>
        <g id="Group_4493" data-name="Group 4493" transform="translate(1.682 0)">
          <path id="Path_4688" data-name="Path 4688" d="M412.081,347.31h0A1.5,1.5,0,0,0,410,346.45a1.511,1.511,0,0,1,.8,1.046,2.842,2.842,0,0,1,.029.562v2.237l1.332.01v-2.33A2.009,2.009,0,0,0,412.081,347.31Z" transform="translate(-401.836 -340.299)" fill="#ffceb7"/>
          <path id="Path_4689" data-name="Path 4689" d="M367.161,332.739a1.494,1.494,0,0,0-.077-.475h0a1.515,1.515,0,0,0-.672-.822h0A1.507,1.507,0,0,0,365,331.4a1.515,1.515,0,0,1,.833,1.346c0,.189,0,.379,0,.568v2.924l1.316.019Z" transform="translate(-359.834 -326.249)" fill="#ffceb7"/>
          <path id="Path_4690" data-name="Path 4690" d="M320.829,257.78v8.5h1.332v-8.5A1.5,1.5,0,0,0,320,256.437,1.5,1.5,0,0,1,320.829,257.78Z" transform="translate(-317.831 -256.281)" fill="#ffceb7"/>
          <path id="Path_4691" data-name="Path 4691" d="M455.662,361.219a1.491,1.491,0,0,0-.666.156,1.5,1.5,0,0,1,.833,1.343v7.075l1.332,0v-7.078a1.5,1.5,0,0,0-1.5-1.5Z" transform="translate(-443.839 -354.229)" fill="#ffceb7"/>
          <path id="Path_4692" data-name="Path 4692" d="M288.828,376.062l-1.332.026v4.98h1.332Z" transform="translate(-287.496 -368.083)" fill="#ffceb7"/>
        </g>
      </g>
    </g>
    <g id="Group_4498" data-name="Group 4498" transform="translate(0 1.445)">
      <g id="Group_4496" data-name="Group 4496" transform="translate(2.498 2.469)">
        <path id="Path_4693" data-name="Path 4693" d="M42.487,39.506H41.5v-1h.991Zm-1.99,0h-1v-1h1Zm-2,0h-1v-1h1Z" transform="translate(-37.5 -38.507)" fill="#fff"/>
      </g>
      <g id="Group_4497" data-name="Group 4497">
        <path id="Path_4694" data-name="Path 4694" d="M32.955,229.453a2,2,0,0,0-3.111-1.659,2,2,0,0,0-3-1,2,2,0,0,0-2.886-1.073V223.44h3.173a2.5,2.5,0,0,0,0-5H20.474a2.5,2.5,0,0,0-.508,4.944v5.065l-1,.02a2,2,0,0,0-1.927,1.488H1.832A.834.834,0,0,1,1,229.128V218.877H0v10.251a1.834,1.834,0,0,0,1.832,1.832H16.976l-.008,3.808,1.085,2,.878-.476-.964-1.778.008-4.044a1,1,0,0,1,1-1l.991-.019v4.5h1V222.463a1,1,0,1,1,2,0v8.493h1v-3.5a1,1,0,0,1,2,0v3.5h1v-2.5a1,1,0,1,1,2,0v2.5h1v-1.5a1,1,0,1,1,2,0l.017,7.078,1,0Zm-10.991-8.988a2,2,0,0,0-2,1.888,1.5,1.5,0,0,1,.5-2.91h6.661a1.5,1.5,0,1,1,0,3H23.962A2,2,0,0,0,21.964,220.465Z" transform="translate(0 -203.99)"/>
        <path id="Path_4695" data-name="Path 4695" d="M1,7.444H31.964V24.425h1V3.277a1.834,1.834,0,0,0-1.832-1.832H1.832A1.834,1.834,0,0,0,0,3.277V15.3H1ZM1,3.277a.834.834,0,0,1,.833-.833h29.3a.834.834,0,0,1,.833.833V6.445H1Z" transform="translate(0 -1.445)"/>
        <path id="Path_4696" data-name="Path 4696" d="M277.375,121.445h5.995v1h-5.995Z" transform="translate(-258.899 -113.452)"/>
        <path id="Path_4697" data-name="Path 4697" d="M277.375,150.507h9.991v1h-9.991Z" transform="translate(-258.899 -140.578)"/>
        <path id="Path_4698" data-name="Path 4698" d="M352.375,181.144H353.4v1h-1.021Z" transform="translate(-328.903 -169.174)"/>
        <path id="Path_4699" data-name="Path 4699" d="M277.375,181.144h4v1h-4Z" transform="translate(-258.899 -169.174)"/>
        <path id="Path_4700" data-name="Path 4700" d="M32.041,123.384l.877-1.356.754,8.307H43.6l.718-8.3.866,1.332.838-.545-1.564-2.405.032-.371H42.113v-3.684l1.417.236.164-.986-11.99-2-.164.986,5.577.93V116.6h-5.5v1h5.5v2.447H32.737l.034.373L31.2,122.841Zm10.936-2.343-1.1,1.551-6.358.021L34.3,121.04h8.674Zm-8.393,8.3-.648-7.137,1.1,1.415,7.364-.024.891-1.257-.606,7h-8.1Zm6.529-9.294h-1v-4.017l1,.167Zm-3-4.351,1,.167v4.184h-1Z" transform="translate(-29.124 -106.138)"/>
      </g>
    </g>
  </g>
</svg>
