<svg id="bell" xmlns="http://www.w3.org/2000/svg" width="30.984" height="33.676" viewBox="0 0 30.984 33.676">
  <path id="Path_4616" data-name="Path 4616" d="M69.7,65.768H44.582a2.151,2.151,0,0,0,2.171-1.6C48.54,59.348,43.78,45.3,57.142,45.3s8.6,14.047,10.388,18.867A2.152,2.152,0,0,0,69.7,65.768Zm0,0" transform="translate(-41.65 -42.321)" fill="#ffd13e"/>
  <path id="Path_4617" data-name="Path 4617" d="M37.589,358.916a2.432,2.432,0,0,1-2.432,2.432H10.038a2.432,2.432,0,1,1,0-4.864H35.157a2.432,2.432,0,0,1,2.432,2.432Zm0,0" transform="translate(-7.105 -333.037)" fill="#ebc445"/>
  <path id="Path_4618" data-name="Path 4618" d="M67.534,64.175H54.478A2.492,2.492,0,0,1,51.988,61.6c.184-5.952-.765-16.182,5.059-16.294-15.989.083-5.768,20.467-12.462,20.467H69.7A2.152,2.152,0,0,1,67.534,64.175Zm0,0" transform="translate(-41.653 -42.329)" fill="#ebc445"/>
  <path id="Path_4619" data-name="Path 4619" d="M137.412,358.916a2.432,2.432,0,0,1-2.432,2.432H116.889a2.432,2.432,0,0,1,0-4.864H134.98a2.432,2.432,0,0,1,2.432,2.432Zm0,0" transform="translate(-106.929 -333.037)" fill="#ffd13e"/>
  <path id="Path_4620" data-name="Path 4620" d="M171.31,430.434a4.864,4.864,0,1,1-9.728,0Zm0,0" transform="translate(-150.954 -402.123)" fill="#ebc445"/>
  <path id="Path_4621" data-name="Path 4621" d="M220.377,453.246a4.876,4.876,0,0,1-3.328,3.188,4.868,4.868,0,0,1-2.481-1.628.962.962,0,0,1,.755-1.561Zm0,0" transform="translate(-200.256 -423.435)" fill="#ffd13e"/>
  <path id="Path_4622" data-name="Path 4622" d="M202.8,10.271c.005-.061.007-.123.007-.186a2.479,2.479,0,0,0-4.959,0c0,.063,0,.125.007.186" transform="translate(-184.835 -7.105)" fill="#ffd13e"/>
  <path id="Path_4623" data-name="Path 4623" d="M28.051,22.946h0c-.968,0-1.515-.5-1.828-1.679a21.642,21.642,0,0,1-.342-4.794,31.028,31.028,0,0,0-.585-7.043.5.5,0,0,0-.972.238,30.275,30.275,0,0,1,.557,6.811,22.167,22.167,0,0,0,.375,5.045,4.018,4.018,0,0,0,.657,1.422H5.072a4.018,4.018,0,0,0,.657-1.422A22.152,22.152,0,0,0,6.1,16.479c.018-2.92.038-6.229,1.233-8.762C8.682,4.866,11.349,3.48,15.492,3.48a10.657,10.657,0,0,1,5.533,1.271,6.713,6.713,0,0,1,2.718,3.177.5.5,0,0,0,.916-.4,7.785,7.785,0,0,0-3.116-3.631,9.492,9.492,0,0,0-3.08-1.145,2.979,2.979,0,0,0-5.94,0A9.582,9.582,0,0,0,9.565,3.821,7.713,7.713,0,0,0,6.432,7.29c-1.289,2.732-1.31,6.159-1.328,9.183a21.627,21.627,0,0,1-.342,4.794c-.313,1.176-.86,1.679-1.828,1.679h0a2.932,2.932,0,0,0,0,5.865H6.1a.5.5,0,1,0,0-1H2.932a1.932,1.932,0,0,1,0-3.864h25.12a1.932,1.932,0,0,1,0,3.864H8.1a.5.5,0,0,0,0,1h2.053a5.364,5.364,0,0,0,10.681,0h7.219a2.932,2.932,0,0,0,0-5.865ZM15.492,1A1.983,1.983,0,0,1,17.433,2.59a17.155,17.155,0,0,0-3.881,0A1.982,1.982,0,0,1,15.492,1Zm0,31.675a4.37,4.37,0,0,1-4.335-3.864h8.669A4.37,4.37,0,0,1,15.492,32.675Zm0,0" fill="#442204"/>
  <path id="Path_4624" data-name="Path 4624" d="M354,34.412a6.487,6.487,0,0,1,1.776,1.694,9.618,9.618,0,0,1,1.768,5.871.5.5,0,0,0,1,0,10.612,10.612,0,0,0-2-6.514,7.31,7.31,0,0,0-2.058-1.925.5.5,0,0,0-.485.875Zm0,0" transform="translate(-330.476 -31.274)" fill="#442204"/>
  <path id="Path_4625" data-name="Path 4625" d="M411.767,37.437a5.3,5.3,0,0,1,1.971,4.514.5.5,0,0,0,1,0,6.263,6.263,0,0,0-2.432-5.357.5.5,0,0,0-.539.842Zm0,0" transform="translate(-384.471 -34.115)" fill="#442204"/>
  <path id="Path_4626" data-name="Path 4626" d="M44.848,42.476a.5.5,0,0,0,.5-.5,9.619,9.619,0,0,1,1.768-5.871,6.509,6.509,0,0,1,1.775-1.694.5.5,0,0,0-.485-.875,7.31,7.31,0,0,0-2.058,1.925,10.614,10.614,0,0,0-2,6.514A.5.5,0,0,0,44.848,42.476Zm0,0" transform="translate(-41.431 -31.273)" fill="#442204"/>
  <path id="Path_4627" data-name="Path 4627" d="M11.391,42.452a.5.5,0,0,0,.5-.5,5.3,5.3,0,0,1,1.971-4.514.5.5,0,0,0-.539-.842,6.263,6.263,0,0,0-2.432,5.356A.5.5,0,0,0,11.391,42.452Zm0,0" transform="translate(-10.174 -34.116)" fill="#442204"/>
</svg>
