<svg xmlns="http://www.w3.org/2000/svg" width="31.051" height="32.779" viewBox="0 0 31.051 32.779">
  <g id="gift" transform="translate(-13.5 0.001)">
    <g id="Group_396" data-name="Group 396" transform="translate(20.392 4.416)">
      <path id="Path_2763" data-name="Path 2763" d="M121.157,70.43v.909a1.442,1.442,0,0,0,1.438,1.437h15.439a1.443,1.443,0,0,0,1.438-1.437V70.43a1.442,1.442,0,0,0-1.438-1.437H122.6a1.441,1.441,0,0,0-1.438,1.437Z" transform="translate(-121.157 -68.993)" fill="#ffd13e" fill-rule="evenodd"/>
    </g>
    <g id="Group_397" data-name="Group 397" transform="translate(23.706 0.64)">
      <path id="Path_2764" data-name="Path 2764" d="M176.861,10.99c-1.81-2.664-5.219.69-3.454,2.791h5.352Z" transform="translate(-172.915 -10.004)" fill="#84d2f4" fill-rule="evenodd"/>
    </g>
    <g id="Group_398" data-name="Group 398" transform="translate(29.55 0.64)">
      <path id="Path_2765" data-name="Path 2765" d="M266.093,10.99l-1.9,2.791h5.35C271.312,11.68,267.905,8.326,266.093,10.99Z" transform="translate(-264.197 -10.004)" fill="#84d2f4" fill-rule="evenodd"/>
    </g>
    <g id="Group_399" data-name="Group 399" transform="translate(22.094 8.2)">
      <path id="Path_2766" data-name="Path 2766" d="M157.841,134.093l-2.651,2.557-2.651-2.557a1.993,1.993,0,0,1,0-2.744,1.685,1.685,0,0,1,2.355.051c.305.285.287.285.59,0a1.687,1.687,0,0,1,2.357-.051A2,2,0,0,1,157.841,134.093Zm-10.107-6v9.968a1.562,1.562,0,0,0,1.558,1.557h11.8a1.561,1.561,0,0,0,1.556-1.557v-9.968Z" transform="translate(-147.734 -128.092)" fill="#ffd13e" fill-rule="evenodd"/>
    </g>
    <g id="Group_400" data-name="Group 400" transform="translate(26.351 11.001)">
      <path id="Path_2767" data-name="Path 2767" d="M214.782,172.3a1.993,1.993,0,0,0,0,2.744l2.651,2.557,2.651-2.557a2,2,0,0,0,0-2.744,1.687,1.687,0,0,0-2.357.051c-.3.285-.285.285-.59,0A1.685,1.685,0,0,0,214.782,172.3Z" transform="translate(-214.235 -171.843)" fill="#f75454" fill-rule="evenodd"/>
    </g>
    <g id="Group_401" data-name="Group 401" transform="translate(18.863 22.753)">
      <path id="Path_2768" data-name="Path 2768" d="M97.275,357.047v5.462a11.441,11.441,0,0,1,4.04.552c1.6.47,2.041.6,3.637,1.067a12.651,12.651,0,0,0,2.978.668h.013a4.492,4.492,0,0,0,2.54-.936l7.5-5.337a1.727,1.727,0,0,0,.547-2.316,1.751,1.751,0,0,0-2.317-.548l-6.376,3.158a1.75,1.75,0,0,0-1.184-2.161l-2.522-.748c-2.112-.628-4.128-.8-6.094.332a3.527,3.527,0,0,1-2.281.808h-.481Z" transform="translate(-97.275 -355.412)" fill="#fce7d1" fill-rule="evenodd"/>
    </g>
    <g id="Group_402" data-name="Group 402" transform="translate(14.14 23.32)">
      <path id="Path_2769" data-name="Path 2769" d="M23.5,365.334v5.994a1.072,1.072,0,0,0,1.07,1.069h2.584a1.072,1.072,0,0,0,1.07-1.069v-5.994a1.072,1.072,0,0,0-1.07-1.069H24.57A1.072,1.072,0,0,0,23.5,365.334Z" transform="translate(-23.5 -364.265)" fill="#84d2f4" fill-rule="evenodd"/>
    </g>
    <path id="Path_2770" data-name="Path 2770" d="M40.663,346.5a2.374,2.374,0,0,0-3.146-.785l-5.446,2.7a2.394,2.394,0,0,0-1.647-1.741l-2.522-.747a8.055,8.055,0,0,0-6.6.39c-.151.087-.287.174-.406.25a2.313,2.313,0,0,1-1.522.472,1.712,1.712,0,0,0-1.585-1.068H15.21a1.711,1.711,0,0,0-1.71,1.709v5.994a1.711,1.711,0,0,0,1.71,1.709h2.584a1.711,1.711,0,0,0,1.706-1.6,10.244,10.244,0,0,1,3.223.522c.8.235,4.212,1.228,4.472,1.3a8.427,8.427,0,0,0,2.33.458,5.11,5.11,0,0,0,2.9-1.044l.016-.011,7.5-5.337a2.354,2.354,0,0,0,.72-3.174Zm-22.44,7.171a.43.43,0,0,1-.429.429H15.21a.43.43,0,0,1-.429-.429v-5.994a.43.43,0,0,1,.429-.429h2.584a.43.43,0,0,1,.429.429v5.994ZM39.2,348.63l-7.492,5.331c-1.7,1.13-2.42.921-4.158.417-.263-.076-3.669-1.067-4.467-1.3A11.364,11.364,0,0,0,19.5,352.5v-4.188a3.529,3.529,0,0,0,2.088-.673c.112-.072.228-.146.354-.218,1.552-.9,3.225-.977,5.592-.273l2.522.748a1.108,1.108,0,0,1,.752,1.367v0a1.107,1.107,0,0,1-1.369.746l-3.606-1.045a.64.64,0,0,0-.356,1.23l3.606,1.045a2.391,2.391,0,0,0,2.854-1.338l6.146-3.044a1.126,1.126,0,0,1,1.489.312,1.09,1.09,0,0,1-.374,1.457Z" transform="translate(0 -323.287)"/>
    <g id="Group_403" data-name="Group 403" transform="translate(25.712 10.366)">
      <path id="Path_2771" data-name="Path 2771" d="M208.086,168.954a.638.638,0,0,1-.444-.179l-2.651-2.557-.016-.016a2.635,2.635,0,0,1,0-3.634,2.318,2.318,0,0,1,3.111-.1,2.322,2.322,0,0,1,3.112.095,2.639,2.639,0,0,1,0,3.633l-.016.016-2.651,2.557A.639.639,0,0,1,208.086,168.954Zm-2.2-3.649,2.2,2.12,2.2-2.119a1.365,1.365,0,0,0-.007-1.847,1.06,1.06,0,0,0-1.459.074l-.024.022a.871.871,0,0,1-1.415,0l-.025-.024a1.057,1.057,0,0,0-1.458-.074A1.345,1.345,0,0,0,205.888,165.3Z" transform="translate(-204.248 -161.921)"/>
    </g>
    <g id="Group_404" data-name="Group 404" transform="translate(14.548 13.24)">
      <path id="Path_2772" data-name="Path 2772" d="M33.969,208.093H30.506a.64.64,0,1,1,0-1.28h3.463a.64.64,0,1,1,0,1.28Z" transform="translate(-29.866 -206.813)"/>
    </g>
    <g id="Group_405" data-name="Group 405" transform="translate(15.009 8.986)">
      <path id="Path_2773" data-name="Path 2773" d="M40.711,143.117a.638.638,0,0,1-.28-.065l-3-1.466a.64.64,0,1,1,.562-1.151l3,1.466a.64.64,0,0,1-.281,1.216Z" transform="translate(-37.068 -140.37)"/>
    </g>
    <g id="Group_406" data-name="Group 406" transform="translate(15.009 16.027)">
      <path id="Path_2774" data-name="Path 2774" d="M37.709,253.1a.64.64,0,0,1-.281-1.216l3-1.466a.64.64,0,1,1,.562,1.151l-3,1.466A.638.638,0,0,1,37.709,253.1Z" transform="translate(-37.068 -250.349)"/>
    </g>
    <g id="Group_407" data-name="Group 407" transform="translate(39.807 13.24)">
      <path id="Path_2775" data-name="Path 2775" d="M428.513,208.093H425.05a.64.64,0,1,1,0-1.28h3.463a.64.64,0,1,1,0,1.28Z" transform="translate(-424.41 -206.813)"/>
    </g>
    <g id="Group_408" data-name="Group 408" transform="translate(39.807 8.986)">
      <path id="Path_2776" data-name="Path 2776" d="M425.049,143.117a.64.64,0,0,1-.281-1.216l3-1.466a.64.64,0,1,1,.562,1.15l-3,1.466A.638.638,0,0,1,425.049,143.117Z" transform="translate(-424.408 -140.37)"/>
    </g>
    <g id="Group_409" data-name="Group 409" transform="translate(39.807 16.027)">
      <path id="Path_2777" data-name="Path 2777" d="M428.049,253.1a.638.638,0,0,1-.281-.065l-3-1.466a.64.64,0,1,1,.562-1.15l3,1.466a.64.64,0,0,1-.281,1.216Z" transform="translate(-424.407 -250.349)"/>
    </g>
    <g id="Group_410" data-name="Group 410" transform="translate(19.752 -0.001)">
      <path id="Path_2778" data-name="Path 2778" d="M128.674,3.776h-1.326A2.788,2.788,0,0,0,127.22,2,3.163,3.163,0,0,0,124.749.014a2.562,2.562,0,0,0-2.428,1.252l-1.366,2.012-1.368-2.012A2.561,2.561,0,0,0,117.16.013,3.164,3.164,0,0,0,114.688,2a2.788,2.788,0,0,0-.128,1.777h-1.324a2.08,2.08,0,0,0-2.078,2.077v.909a2.081,2.081,0,0,0,1.7,2.043v9.363a2.2,2.2,0,0,0,2.2,2.2h11.8a2.2,2.2,0,0,0,2.2-2.2V8.806a2.081,2.081,0,0,0,1.7-2.043V5.854a2.08,2.08,0,0,0-2.078-2.077ZM123.38,1.985a1.311,1.311,0,0,1,1.232-.7,1.882,1.882,0,0,1,1.42,1.19,1.479,1.479,0,0,1-.058,1.3h-3.811Zm-7.5.491a1.883,1.883,0,0,1,1.421-1.19,1.31,1.31,0,0,1,1.23.7l1.218,1.791h-3.812A1.478,1.478,0,0,1,115.876,2.477Zm13.6,4.286a.8.8,0,0,1-.8.8h-7.719a.64.64,0,1,0,0,1.28h6.814v9.328a.917.917,0,0,1-.916.917h-11.8a.918.918,0,0,1-.918-.917V8.84h.969a.64.64,0,0,0,0-1.28h-1.872a.8.8,0,0,1-.8-.8V5.854a.8.8,0,0,1,.8-.8h15.439a.8.8,0,0,1,.8.8v.909Z" transform="translate(-111.157 0.001)"/>
      <path id="Path_2779" data-name="Path 2779" d="M208.42,118.092h0a.64.64,0,1,0,.642.64A.639.639,0,0,0,208.418,118.092Z" transform="translate(-201.593 -110.531)"/>
    </g>
  </g>
</svg>
