<svg xmlns="http://www.w3.org/2000/svg" width="26.579" height="32.779" viewBox="0 0 26.579 32.779">
  <g id="order-food" transform="translate(-48.425)">
    <g id="Group_4430" data-name="Group 4430" transform="translate(48.905 0.48)">
      <path id="Path_4568" data-name="Path 4568" d="M75.137,10.222V36.6a2.722,2.722,0,0,1-2.723,2.722H58.643A2.722,2.722,0,0,1,55.92,36.6V10.222A2.722,2.722,0,0,1,58.643,7.5H72.414a2.722,2.722,0,0,1,2.723,2.722Z" transform="translate(-55.92 -7.5)" fill="#72c1e8"/>
      <path id="Path_4569" data-name="Path 4569" d="M75.137,10.222V36.6a2.722,2.722,0,0,1-2.723,2.722H58.643A2.722,2.722,0,0,1,55.92,36.6V34.773a2.722,2.722,0,0,0,2.723,2.722H70.492a2.722,2.722,0,0,0,2.723-2.722V10.222A2.722,2.722,0,0,0,70.492,7.5h1.922a2.722,2.722,0,0,1,2.723,2.722Z" transform="translate(-55.92 -7.5)" fill="#72c1e8"/>
      <path id="Path_4570" data-name="Path 4570" d="M101.313,36.866V63.3a.866.866,0,0,1-.866.866H86.806a.866.866,0,0,1-.866-.866V36.866A.866.866,0,0,1,86.806,36h2.3a1.175,1.175,0,0,0,1.175,1.175h6.681A1.175,1.175,0,0,0,98.143,36h2.3A.866.866,0,0,1,101.313,36.866Z" transform="translate(-84.018 -34.175)" fill="#f2e1d6"/>
      <g id="Group_4428" data-name="Group 4428" transform="translate(1.922 0.106)">
        <path id="Path_4571" data-name="Path 4571" d="M101.313,36.866V63.3a.866.866,0,0,1-.866.866H86.806a.866.866,0,0,1-.866-.866V61.585a.866.866,0,0,0,.866.866H96.4a1.114,1.114,0,0,0,.729-1.957L95.394,59a1.264,1.264,0,0,0-.825-.307h-3.09a2.826,2.826,0,0,1-2.825-2.825V41.455a2.826,2.826,0,0,1,2.825-2.825h6.868a1.045,1.045,0,0,0,1.045-1.045V36h1.055a.866.866,0,0,1,.866.866Z" transform="translate(-85.94 -34.281)" fill="#f2e1d6"/>
        <path id="Path_4572" data-name="Path 4572" d="M282.748,9.179a.866.866,0,0,0-.213-.026Z" transform="translate(-269.949 -9.153)" fill="#ffdfba"/>
      </g>
      <path id="Path_4573" data-name="Path 4573" d="M175.137,106.034v14.2a1.184,1.184,0,0,1-1.184,1.184h-4.1l-4.328,3.688-4.328-3.688h-4.1a1.184,1.184,0,0,1-1.184-1.184v-14.2a1.184,1.184,0,0,1,1.184-1.184h16.849A1.184,1.184,0,0,1,175.137,106.034Z" transform="translate(-149.518 -98.617)" fill="#ffd13e"/>
      <path id="Path_4574" data-name="Path 4574" d="M410.694,106.034v14.2a1.184,1.184,0,0,1-1.184,1.184H407.59a1.184,1.184,0,0,0,1.184-1.184v-14.2a1.184,1.184,0,0,0-1.184-1.184h1.921A1.184,1.184,0,0,1,410.694,106.034Z" transform="translate(-385.075 -98.617)" fill="#ffe571"/>
      <g id="Group_4429" data-name="Group 4429" transform="translate(12.473 15.207)">
        <path id="Path_4575" data-name="Path 4575" d="M251.7,250.748a.96.96,0,0,1-.96-.96v-3.8a.96.96,0,1,1,1.921,0v3.8A.96.96,0,0,1,251.7,250.748Z" transform="translate(-250.744 -245.032)" fill="#fc5d3d"/>
        <path id="Path_4576" data-name="Path 4576" d="M342.216,269.468a.96.96,0,0,1-.96-.96v-2.515a.96.96,0,1,1,1.921,0v2.515A.96.96,0,0,1,342.216,269.468Z" transform="translate(-335.461 -263.752)" fill="#fc5d3d"/>
      </g>
      <path id="Path_4577" data-name="Path 4577" d="M338.817,139.731a2.561,2.561,0,0,0-2.561,2.561v3.716h2.561Z" transform="translate(-318.308 -131.265)" fill="#fff"/>
    </g>
    <g id="Group_4431" data-name="Group 4431" transform="translate(48.425 0)">
      <path id="Path_4578" data-name="Path 4578" d="M162.205,435.145a.48.48,0,0,0,0-.96h-5.4a.48.48,0,1,0,0,.96Z" transform="translate(-149.417 -406.387)"/>
      <path id="Path_4579" data-name="Path 4579" d="M141.6,438.3a.48.48,0,0,0,.48.48h10.463a1.347,1.347,0,0,0,1.346-1.346v-1.233a.48.48,0,0,0-.96,0v1.233a.386.386,0,0,1-.386.385H142.084A.48.48,0,0,0,141.6,438.3Z" transform="translate(-135.638 -407.829)"/>
      <path id="Path_4580" data-name="Path 4580" d="M94.293,32.1a.48.48,0,0,0,.48-.48V29.846A1.347,1.347,0,0,0,93.427,28.5h-2.3a.48.48,0,0,0-.48.48.7.7,0,0,1-.7.695H83.266a.7.7,0,0,1-.7-.695.48.48,0,0,0-.48-.48h-2.3a1.347,1.347,0,0,0-1.346,1.346V56.285a1.347,1.347,0,0,0,1.346,1.346H80.7a.48.48,0,0,0,0-.96h-.915a.386.386,0,0,1-.386-.385V29.846a.386.386,0,0,1,.386-.385h1.9a1.659,1.659,0,0,0,1.585,1.175h6.681a1.659,1.659,0,0,0,1.585-1.175h1.9a.386.386,0,0,1,.386.385V31.62A.48.48,0,0,0,94.293,32.1Z" transform="translate(-76.518 -26.675)"/>
      <path id="Path_4581" data-name="Path 4581" d="M48.905,4.729a.48.48,0,0,0,.48-.48V3.2A2.244,2.244,0,0,1,51.628.96H65.4A2.244,2.244,0,0,1,67.641,3.2V4.944a.48.48,0,0,0,.96,0V3.2A3.206,3.206,0,0,0,65.4,0H51.628a3.206,3.206,0,0,0-3.2,3.2V4.249a.48.48,0,0,0,.48.48Z" transform="translate(-48.425 0)"/>
      <path id="Path_4582" data-name="Path 4582" d="M68.121,114.1a.48.48,0,0,0-.48.48v2.8a2.244,2.244,0,0,1-2.243,2.241H51.628a2.244,2.244,0,0,1-2.243-2.241V94.291a.48.48,0,1,0-.96,0v23.092a3.206,3.206,0,0,0,3.2,3.2H65.4a3.206,3.206,0,0,0,3.2-3.2v-2.8a.48.48,0,0,0-.48-.48Z" transform="translate(-48.425 -87.805)"/>
      <path id="Path_4583" data-name="Path 4583" d="M168.122,221a.48.48,0,0,0-.48.48v2.349a.7.7,0,0,1-.7.7h-4.1a.48.48,0,0,0-.311.115l-4.016,3.422-4.016-3.422a.48.48,0,0,0-.311-.115h-4.1a.7.7,0,0,1-.7-.7v-7.816a.48.48,0,1,0-.96,0v7.816a1.666,1.666,0,0,0,1.664,1.664h3.92l4.193,3.573a.48.48,0,0,0,.623,0l4.193-3.573h3.92a1.666,1.666,0,0,0,1.664-1.664v-2.349A.48.48,0,0,0,168.122,221Z" transform="translate(-142.024 -201.733)"/>
      <path id="Path_4584" data-name="Path 4584" d="M166.938,97.353H150.089a1.666,1.666,0,0,0-1.664,1.664v4.125a.48.48,0,1,0,.96,0V99.017a.7.7,0,0,1,.7-.7h16.849a.7.7,0,0,1,.7.7v9.609a.48.48,0,0,0,.96,0V99.017A1.666,1.666,0,0,0,166.938,97.353Z" transform="translate(-142.023 -91.12)"/>
      <path id="Path_4585" data-name="Path 4585" d="M228.724,132.23a.48.48,0,0,0-.48.48v3.076a2.4,2.4,0,0,0,1.921,2.353v.916a1.443,1.443,0,0,0-.96,1.358v3.8a1.44,1.44,0,1,0,2.881,0v-3.8a1.443,1.443,0,0,0-.96-1.358v-.916a2.4,2.4,0,0,0,1.921-2.353V132.71a.48.48,0,0,0-.96,0v3.076a1.443,1.443,0,0,1-.96,1.358V132.71a.48.48,0,1,0-.96,0v4.434a1.443,1.443,0,0,1-.96-1.358V132.71A.48.48,0,0,0,228.724,132.23Zm2.4,11.978a.48.48,0,1,1-.96,0v-3.8a.48.48,0,1,1,.96,0Z" transform="translate(-216.732 -123.764)"/>
      <path id="Path_4586" data-name="Path 4586" d="M331.8,139.467a.48.48,0,0,0,.48-.48V132.71a.48.48,0,0,0-.48-.48,3.045,3.045,0,0,0-3.041,3.041v3.716a.48.48,0,0,0,.48.48h.8v.868a1.443,1.443,0,0,0-.96,1.358v2.515a1.44,1.44,0,1,0,2.881,0v-2.515a1.443,1.443,0,0,0-.96-1.358v-.868Zm-.8,4.741a.48.48,0,1,1-.96,0v-2.515a.48.48,0,1,1,.96,0Zm-1.28-8.937a2.084,2.084,0,0,1,1.6-2.025v5.26h-1.6Z" transform="translate(-310.809 -123.764)"/>
    </g>
  </g>
</svg>
