<svg xmlns="http://www.w3.org/2000/svg" width="25.682" height="32.779" viewBox="0 0 25.682 32.779">
  <g id="price-tag" transform="translate(-55.432 0.001)">
    <g id="Group_4475" data-name="Group 4475" transform="translate(55.953 -0.001)">
      <path id="Path_4655" data-name="Path 4655" d="M75.253,104.5l-4.676,2.277a2.024,2.024,0,0,0-.944.993L63.8,122.393a2.7,2.7,0,0,0,1.374,3.565l5.8,2.571h4.309Z" transform="translate(-63.569 -97.81)" fill="#ffe571"/>
      <path id="Path_4656" data-name="Path 4656" d="M192.61,119.731v2.817a2.91,2.91,0,0,1-2.881,2.881H177.885a2.856,2.856,0,0,1-2.817-2.881V105.966a2.072,2.072,0,0,1,.455-1.345l3.561-4.315A2.111,2.111,0,0,1,180.7,99.5h6.21a2.111,2.111,0,0,1,1.618.806l3.561,4.315a2.134,2.134,0,0,1,.519,1.345v13.765Z" transform="translate(-167.93 -93.13)" fill="#ffd13e"/>
      <g id="Group_4473" data-name="Group 4473" transform="translate(11.188 16.53)">
        <path id="Path_4657" data-name="Path 4657" d="M242.04,264.685h0l-.017-.017-.026-.026-.662-.663-.094.187a2.071,2.071,0,0,0-.7-.122h-.064a2.08,2.08,0,0,0-1.966,2.759l-.195.1.686.688.009.009.009.009h0a2.073,2.073,0,0,0,1.457.6h.064a2.079,2.079,0,0,0,1.5-3.52Zm-1.5,2.56h-.064a1.12,1.12,0,1,1,0-2.241h.064a1.12,1.12,0,1,1,0,2.241Z" transform="translate(-238.315 -263.609)" fill="#f8c201" fill-rule="evenodd"/>
        <path id="Path_4658" data-name="Path 4658" d="M251.279,258.837l-.64-.64-8.874,8.874.64.64a.48.48,0,0,0,.679,0l8.195-8.195A.48.48,0,0,0,251.279,258.837Z" transform="translate(-241.544 -258.197)" fill="#f8c201" fill-rule="evenodd"/>
        <path id="Path_4659" data-name="Path 4659" d="M340.2,344.1h0l-.53-.537.034.218a2.068,2.068,0,0,0-.867-.19h-.064a2.08,2.08,0,0,0-1.906,2.915l-.235-.034.637.636q.034.036.07.07l.015.015h0a2.072,2.072,0,0,0,1.419.561h.064A2.079,2.079,0,0,0,340.2,344.1Zm-1.362,2.692h-.064a1.12,1.12,0,0,1,0-2.241h.064a1.12,1.12,0,0,1,0,2.241Z" transform="translate(-330.337 -338.101)" fill="#f8c201" fill-rule="evenodd"/>
      </g>
      <g id="Group_4474" data-name="Group 4474" transform="translate(10.628 16.326)">
        <path id="Path_4660" data-name="Path 4660" d="M240.047,265.155a.48.48,0,0,1-.34-.82l8.195-8.195a.48.48,0,0,1,.679.679l-8.195,8.195A.478.478,0,0,1,240.047,265.155Z" transform="translate(-238.927 -255.936)" fill="#f5f5f5"/>
        <path id="Path_4661" data-name="Path 4661" d="M231.713,259.161h-.064a2.081,2.081,0,1,1,0-4.161h.064a2.081,2.081,0,0,1,0,4.161Zm-.064-3.2a1.12,1.12,0,1,0,0,2.241h.064a1.12,1.12,0,1,0,0-2.241Z" transform="translate(-229.568 -255)" fill="#f5f5f5"/>
        <path id="Path_4662" data-name="Path 4662" d="M329.713,338.161h-.064a2.081,2.081,0,1,1,0-4.161h.064a2.081,2.081,0,1,1,0,4.161Zm-.064-3.2a1.12,1.12,0,1,0,0,2.241h.064a1.12,1.12,0,1,0,0-2.241Z" transform="translate(-321.294 -328.942)" fill="#f5f5f5"/>
      </g>
      <path id="Path_4663" data-name="Path 4663" d="M320.851,10.274a.48.48,0,0,1-.133-.942c.054-.016.109-.033.163-.051a3.617,3.617,0,0,0,2.448-3.424V.479a.48.48,0,1,1,.96,0V5.857a4.577,4.577,0,0,1-3.1,4.333c-.068.023-.137.045-.206.065A.479.479,0,0,1,320.851,10.274Z" transform="translate(-303.93 0.001)" fill="#e0a446"/>
      <path id="Path_4664" data-name="Path 4664" d="M290.073,135.009a1.5,1.5,0,1,1,1.5-1.5A1.506,1.506,0,0,1,290.073,135.009Z" transform="translate(-274.163 -123.549)" fill="#f5f5f5"/>
    </g>
    <g id="Group_4476" data-name="Group 4476" transform="translate(55.432 -0.001)">
      <path id="Path_4665" data-name="Path 4665" d="M80.633,24.841a.48.48,0,0,0,.48-.48V12.837a2.623,2.623,0,0,0-.629-1.651L76.923,6.872a2.816,2.816,0,0,0-.634-.568c.014-.147.022-.295.022-.445V.481a.48.48,0,0,0-.96,0s0,5.424,0,5.447a2.377,2.377,0,0,0-.415-.037h-6.21a2.465,2.465,0,0,0-1.249.348.486.486,0,0,0-.049.02L62.746,8.54a2.509,2.509,0,0,0-1.168,1.229l-.007.018-1.935,4.909a.48.48,0,1,0,.893.352l1.931-4.9a1.543,1.543,0,0,1,.711-.747l2.473-1.2-2.468,2.991a2.554,2.554,0,0,0-.565,1.651V29.419a3.433,3.433,0,0,0,.048.566l-4.948-2.192a2.226,2.226,0,0,1-1.129-2.932l.006-.015,3.13-7.778a.48.48,0,0,0-.891-.359L55.7,24.48a3.188,3.188,0,0,0,1.622,4.191l5.8,2.571.022.008a3.282,3.282,0,0,0,2.763,1.53H77.752a3.406,3.406,0,0,0,3.361-3.361V26.6a.48.48,0,0,0-.96,0v2.817a2.433,2.433,0,0,1-2.4,2.4H65.908a2.372,2.372,0,0,1-2.337-2.4V12.837a1.585,1.585,0,0,1,.345-1.039l3.561-4.315a1.64,1.64,0,0,1,1.247-.632h6.21a1.415,1.415,0,0,1,.27.026,3.617,3.617,0,0,1-2.051,2.309,1.5,1.5,0,1,0,.2.954A4.575,4.575,0,0,0,76.062,7.35c.042.042.082.086.121.133L79.744,11.8a1.665,1.665,0,0,1,.409,1.039V24.361a.48.48,0,0,0,.48.48ZM71.862,10.5a.544.544,0,1,1,.544-.544A.545.545,0,0,1,71.862,10.5Z" transform="translate(-55.432 -0.001)"/>
      <path id="Path_4666" data-name="Path 4666" d="M240.062,265.155a.478.478,0,0,0,.34-.141l8.195-8.195a.48.48,0,0,0-.679-.679l-8.195,8.195a.483.483,0,0,0,.339.82Z" transform="translate(-227.794 -239.611)" fill="#fc5d3d" stroke="#000" stroke-width="0.5"/>
      <path id="Path_4667" data-name="Path 4667" d="M231.713,259.161a2.081,2.081,0,0,0,0-4.161h-.064a2.081,2.081,0,1,0,0,4.161Zm-1.184-2.081a1.122,1.122,0,0,1,1.12-1.12h.064a1.12,1.12,0,1,1,0,2.241h-.064A1.122,1.122,0,0,1,230.528,257.081Z" transform="translate(-218.419 -238.674)"/>
      <path id="Path_4668" data-name="Path 4668" d="M329.649,338.161h.064a2.081,2.081,0,1,0,0-4.161h-.064a2.081,2.081,0,1,0,0,4.161Zm0-3.2h.064a1.12,1.12,0,1,1,0,2.241h-.064a1.12,1.12,0,1,1,0-2.241Z" transform="translate(-310.145 -312.617)"/>
    </g>
  </g>
</svg>
