<svg xmlns="http://www.w3.org/2000/svg" width="32.776" height="32.779" viewBox="0 0 32.776 32.779">
  <g id="dissatisfaction" transform="translate(-0.025)">
    <g id="Group_4274" data-name="Group 4274" transform="translate(0.505 0.482)">
      <g id="Group_4273" data-name="Group 4273">
        <g id="Group_4271" data-name="Group 4271">
          <path id="Path_3786" data-name="Path 3786" d="M138.182,17.841h2.584a2.56,2.56,0,0,1,0,5.12h1.311a2.56,2.56,0,0,1,2.48,1.925l.012.046a2.56,2.56,0,0,1-2.49,3.195c-.623,0-1.287,0-1.949-.005-2.829,0-7.3-.006-9.228-.006V37.15a2.294,2.294,0,0,1-4.266,1.1l-6.6-13.548V11.393l1.83-1.7a8.161,8.161,0,0,1,5.5-2.132c4.05,0,7.675.016,10.759.005A2.56,2.56,0,0,1,140.616,9.5l.008.03a2.56,2.56,0,0,1-2.48,3.195h1.311a2.56,2.56,0,1,1,0,5.12h-1.273Z" transform="translate(-112.831 -7.563)" fill="#ffd13e"/>
          <g id="Group_4267" data-name="Group 4267" transform="translate(14.486 0.008)">
            <path id="Path_3787" data-name="Path 3787" d="M234.821,337.576v-9.035h2.561v9.034a2.311,2.311,0,0,1-3.584,1.856A2.144,2.144,0,0,0,234.821,337.576Z" transform="translate(-233.798 -307.997)" fill="#ffe571"/>
            <path id="Path_3788" data-name="Path 3788" d="M366.6,12.364a.651.651,0,0,1,.16-.442,2.548,2.548,0,0,0,.549-2.316l-.008-.03a2.56,2.56,0,0,0-2.341-1.921q1.256,0,2.413,0a2.56,2.56,0,0,1,2.489,1.925l.008.03a2.56,2.56,0,0,1-2.48,3.195h1.325a2.56,2.56,0,0,1-.015,5.12h1.311a2.56,2.56,0,0,1,0,5.12h1.311a2.56,2.56,0,0,1,2.48,1.925l.012.046a2.56,2.56,0,0,1-2.49,3.195c-.623,0-1.287,0-1.949-.005h-.43a2.56,2.56,0,0,0,2.308-3.189l-.012-.046a2.56,2.56,0,0,0-2.48-1.925H368.4v-.182a2.561,2.561,0,0,0-.953-4.938h-.158l0-.272a2.561,2.561,0,0,0-.276-4.695A.642.642,0,0,1,366.6,12.364Z" transform="translate(-356.562 -7.651)" fill="#ffe571"/>
          </g>
          <g id="Group_4270" data-name="Group 4270">
            <g id="Group_4269" data-name="Group 4269">
              <g id="Group_4268" data-name="Group 4268">
                <path id="Path_3789" data-name="Path 3789" d="M11.38,7.522a3.855,3.855,0,0,0-3.855,3.855V24.634a3.855,3.855,0,0,0,7.71,0V11.377A3.855,3.855,0,0,0,11.38,7.522Z" transform="translate(-7.525 -7.522)" fill="#84d2f4"/>
                <path id="Path_3790" data-name="Path 3790" d="M49.016,28.489a3.849,3.849,0,0,1-1.28-.218,3.856,3.856,0,0,0,2.574-3.637V11.378a3.856,3.856,0,0,0-2.574-3.637,3.858,3.858,0,0,1,5.135,3.637V24.635A3.855,3.855,0,0,1,49.016,28.489Z" transform="translate(-45.162 -7.523)" fill="#57b7eb"/>
                <ellipse id="Ellipse_87" data-name="Ellipse 87" cx="1.349" cy="1.339" rx="1.349" ry="1.339" transform="translate(2.506 2.609)" fill="#fff"/>
              </g>
            </g>
          </g>
        </g>
        <g id="Group_4272" data-name="Group 4272" transform="translate(20.472 22.945)">
          <ellipse id="Ellipse_88" data-name="Ellipse 88" cx="4.427" cy="4.437" rx="4.427" ry="4.437" fill="#fc5d3d"/>
        </g>
      </g>
    </g>
    <g id="Group_4275" data-name="Group 4275" transform="translate(0.025 0)">
      <path id="Path_3791" data-name="Path 3791" d="M324.7,358.406a4.917,4.917,0,1,0,4.907,4.917A4.917,4.917,0,0,0,324.7,358.406Zm0,8.873a3.956,3.956,0,1,1,3.947-3.956A3.956,3.956,0,0,1,324.7,367.279Z" transform="translate(-299.318 -335.46)"/>
      <path id="Path_3792" data-name="Path 3792" d="M365.59,441.6a2.765,2.765,0,0,0-1.97.818.48.48,0,1,0,.68.678,1.82,1.82,0,0,1,2.58,0,.48.48,0,0,0,.68-.678A2.764,2.764,0,0,0,365.59,441.6Z" transform="translate(-340.211 -413.324)"/>
      <path id="Path_3793" data-name="Path 3793" d="M358.526,409.152a.48.48,0,0,0,.24-.9l-1.262-.725a.48.48,0,0,0-.478.833l1.262.725A.477.477,0,0,0,358.526,409.152Z" transform="translate(-333.944 -381.38)"/>
      <path id="Path_3794" data-name="Path 3794" d="M402.889,407.531l-1.262.725a.48.48,0,1,0,.479.833l1.262-.725a.48.48,0,1,0-.479-.833Z" transform="translate(-375.69 -381.38)"/>
      <path id="Path_3795" data-name="Path 3795" d="M32.708,17.73A3.067,3.067,0,0,0,30.553,15.5a3.041,3.041,0,0,0-1.311-5.12,3.041,3.041,0,0,0-1.311-5.12A3.063,3.063,0,0,0,25.81.008Q20.426.008,15.042,0a8.621,8.621,0,0,0-5.83,2.26l-.743.688A4.335,4.335,0,0,0,.025,4.335V17.592a4.335,4.335,0,0,0,8.143,2.07L13.877,31.38a2.737,2.737,0,0,0,3.114,1.3,2.663,2.663,0,0,0,2.064-2.616V28.488a.48.48,0,0,0-.96,0v1.579a1.814,1.814,0,0,1-3.361.879C13.7,28.816,8.619,18.4,8.619,18.4a4.341,4.341,0,0,0,.076-.811V8.9a.48.48,0,0,0-.96,0v8.694a3.375,3.375,0,1,1-6.749,0V4.335a3.375,3.375,0,0,1,6.749,0v2a.48.48,0,0,0,.96,0c0-.757.039-1.525-.009-2.28L9.862,2.969A7.66,7.66,0,0,1,15.042.963q5.384,0,10.768.005a2.095,2.095,0,0,1,.008,4.189h-.6a.48.48,0,1,0,0,.96h1.913a2.08,2.08,0,0,1,0,4.16H25.856a.48.48,0,0,0,0,.96H28.44a2.08,2.08,0,1,1,0,4.16h-1.3a.48.48,0,1,0,0,.96h2.615a2.1,2.1,0,0,1,0,4.205c-3.726-.015-7.453-.011-11.179-.011a.48.48,0,0,0-.48.48v4.974a.48.48,0,0,0,.96,0V21.513c3.565,0,7.13,0,10.7.011a3.071,3.071,0,0,0,2.957-3.794Z" transform="translate(-0.025 0)"/>
      <path id="Path_3796" data-name="Path 3796" d="M39.166,42.563A1.829,1.829,0,1,0,41,40.744,1.826,1.826,0,0,0,39.166,42.563Zm2.7,0A.869.869,0,1,1,41,41.7.865.865,0,0,1,41.864,42.563Z" transform="translate(-36.66 -38.135)"/>
    </g>
  </g>
</svg>
