<svg xmlns="http://www.w3.org/2000/svg" width="30.432" height="32.779" viewBox="0 0 30.432 32.779">
  <g id="food-store" transform="translate(-11.42 -2.428)">
    <path id="Path_4353" data-name="Path 4353" d="M52.249,94.334V111a1.3,1.3,0,0,1-1.305,1.305H26.8A1.3,1.3,0,0,1,25.49,111V94.334a2.865,2.865,0,0,0,4.216-2.643,2.985,2.985,0,1,0,5.962-.221,3.2,3.2,0,1,0,6.4,0,2.985,2.985,0,1,0,5.962.221A2.866,2.866,0,0,0,52.249,94.334Z" transform="translate(-12.234 -77.42)" fill="#ffd13e"/>
    <g id="Group_4379" data-name="Group 4379" transform="translate(11.746 12.638)">
      <path id="Path_4354" data-name="Path 4354" d="M19.646,80.65v1.633a2.864,2.864,0,1,1-5.726.119V80.65Z" transform="translate(-13.92 -80.65)" fill="#72c1e8"/>
      <path id="Path_4355" data-name="Path 4355" d="M203.936,80.65V82.4a2.864,2.864,0,1,1-5.726-.119V80.65Z" transform="translate(-174.156 -80.65)" fill="#72c1e8"/>
      <path id="Path_4356" data-name="Path 4356" d="M109.873,80.66v1.411a3.2,3.2,0,1,1-6.4,0V80.66Z" transform="translate(-91.782 -80.659)" fill="#72c1e8"/>
      <path id="Path_4357" data-name="Path 4357" d="M103.47,80.65h0Z" transform="translate(-91.782 -80.65)" fill="#72c1e8"/>
    </g>
    <path id="Path_4358" data-name="Path 4358" d="M158.492,80.66v1.632a2.985,2.985,0,1,1-5.962-.221V80.66Z" transform="translate(-122.692 -68.021)" fill="#f2e1d6"/>
    <path id="Path_4359" data-name="Path 4359" d="M152.53,80.65h0Z" transform="translate(-122.692 -68.012)" fill="#f2e1d6"/>
    <path id="Path_4360" data-name="Path 4360" d="M63.752,80.66v1.411a2.985,2.985,0,1,1-5.962.221V80.66Z" transform="translate(-40.318 -68.021)" fill="#f2e1d6"/>
    <path id="Path_4361" data-name="Path 4361" d="M57.79,80.65h0Z" transform="translate(-40.318 -68.012)" fill="#f2e1d6"/>
    <path id="Path_4362" data-name="Path 4362" d="M61.16,141.974H39.993a.326.326,0,1,1,0-.653H60.964V127.648a.326.326,0,1,1,.653,0v13.868A.458.458,0,0,1,61.16,141.974Zm-22.473,0h-.371a.326.326,0,1,1,0-.653h.371a.326.326,0,1,1,0,.653Z" transform="translate(-23.102 -108.593)" fill="#ffe571"/>
    <path id="Path_4363" data-name="Path 4363" d="M22.1,89.787a2.082,2.082,0,0,1-.309-.023.326.326,0,0,1,.1-.645,1.408,1.408,0,0,0,.211.016.326.326,0,0,1,0,.653ZM20.484,89a2.07,2.07,0,0,1-.447-1.282V87.1a.326.326,0,0,1,.653,0v.627A1.4,1.4,0,0,0,21,88.6a.326.326,0,1,1-.511.406Z" transform="translate(-7.492 -73.334)" fill="#ffcbc2"/>
    <path id="Path_4364" data-name="Path 4364" d="M66.086,89.787a2.189,2.189,0,0,1-.306-.021.326.326,0,1,1,.091-.646,1.542,1.542,0,0,0,.215.015.326.326,0,1,1,0,.653Zm-1.63-.732A2.179,2.179,0,0,1,63.9,87.6V87.1a.326.326,0,0,1,.653,0V87.6a1.527,1.527,0,0,0,.388,1.017.326.326,0,1,1-.487.434Z" transform="translate(-45.633 -73.334)" fill="#fff"/>
    <path id="Path_4365" data-name="Path 4365" d="M206.392,89.787a2.081,2.081,0,0,1-.309-.023.326.326,0,0,1,.1-.645,1.4,1.4,0,0,0,.211.016.326.326,0,0,1,0,.653ZM204.774,89a2.07,2.07,0,0,1-.447-1.282V87.1a.326.326,0,1,1,.653,0v.627a1.4,1.4,0,0,0,.305.876.326.326,0,1,1-.511.406Z" transform="translate(-167.729 -73.334)" fill="#ffcbc2"/>
    <path id="Path_4366" data-name="Path 4366" d="M160.824,89.787a2.2,2.2,0,0,1-.306-.021.326.326,0,1,1,.091-.646,1.548,1.548,0,0,0,.215.015.326.326,0,0,1,0,.653Zm-1.63-.732a2.18,2.18,0,0,1-.554-1.451V87.1a.326.326,0,1,1,.653,0V87.6a1.528,1.528,0,0,0,.388,1.017.326.326,0,0,1-.487.434Z" transform="translate(-128.006 -73.334)" fill="#fff"/>
    <path id="Path_4367" data-name="Path 4367" d="M111.991,89.787a2.411,2.411,0,0,1-.3-.019.326.326,0,0,1,.081-.648,1.76,1.76,0,0,0,.22.014.326.326,0,1,1,0,.653Zm-1.645-.652a2.412,2.412,0,0,1-.759-1.751V87.1a.326.326,0,1,1,.653,0v.288a1.734,1.734,0,0,0,.553,1.275.326.326,0,1,1-.447.475Z" transform="translate(-85.355 -73.334)" fill="#ffcbc2"/>
    <path id="Path_4368" data-name="Path 4368" d="M39.6,33.907H18.028l-4.106,6.1H43.7Z" transform="translate(-2.175 -27.37)" fill="#72c1e8"/>
    <path id="Path_4369" data-name="Path 4369" d="M65.638,4.928H46.68a1.305,1.305,0,0,0-1.305,1.305V8.71H66.943V6.233a1.305,1.305,0,0,0-1.305-1.305Z" transform="translate(-29.523 -2.174)" fill="#ffe571"/>
    <path id="Path_4370" data-name="Path 4370" d="M72.29,13.514a.326.326,0,0,1-.326-.326V12.081H53.2a.326.326,0,0,1,0-.653H72.159a.457.457,0,0,1,.457.457v1.3A.326.326,0,0,1,72.29,13.514Z" transform="translate(-36.044 -7.825)" fill="#ffd13e"/>
    <path id="Path_4371" data-name="Path 4371" d="M152.611,40.011h-5.963l-.882-6.1h4.319Z" transform="translate(-116.811 -27.373)" fill="#f2e1d6"/>
    <path id="Path_4372" data-name="Path 4372" d="M35.536,47.048H31.871a.327.327,0,0,1-.289-.477l1.882-3.151a.326.326,0,0,1,.578.3L32.409,46.4h3.127a.326.326,0,0,1,0,.653Z" transform="translate(-17.497 -35.489)" fill="#ffcbc2"/>
    <path id="Path_4373" data-name="Path 4373" d="M193.713,68.04h-3.507a.326.326,0,0,1,0-.653h3.507a.326.326,0,1,1,0,.653Z" transform="translate(-155.167 -56.48)" fill="#ffcbc2"/>
    <path id="Path_4374" data-name="Path 4374" d="M109.207,68.042h-5.871a.326.326,0,0,1,0-.653h5.871a.326.326,0,0,1,0,.653Z" transform="translate(-79.636 -56.482)" fill="#ffcbc2"/>
    <path id="Path_4375" data-name="Path 4375" d="M60.315,33.91h4.319l-.882,6.1H57.788Z" transform="translate(-40.316 -27.373)" fill="#f2e1d6"/>
    <path id="Path_4376" data-name="Path 4376" d="M66.845,68.042h-5.4a.326.326,0,0,1,0-.653h5.4a.326.326,0,0,1,0,.653Z" transform="translate(-43.212 -56.482)" fill="#fff"/>
    <path id="Path_4377" data-name="Path 4377" d="M153.758,68.042h-5.442a.326.326,0,1,1,0-.653h5.442a.326.326,0,0,1,0,.653Z" transform="translate(-118.745 -56.482)" fill="#fff"/>
    <path id="Path_4378" data-name="Path 4378" d="M90.675,129.822a2.336,2.336,0,0,0-1.986,2.571,2.629,2.629,0,0,0,1.3,2.415,1.58,1.58,0,0,0,1.366,0,2.629,2.629,0,0,0,1.3-2.415,2.336,2.336,0,0,0-1.986-2.571Z" transform="translate(-67.184 -110.766)" fill="#fc5d3d"/>
    <path id="Path_4379" data-name="Path 4379" d="M98.719,174.447a.916.916,0,1,1-1.831,0l.233-6.424a1.58,1.58,0,0,0,1.366,0Z" transform="translate(-74.312 -143.981)" fill="#fc5d3d"/>
    <path id="Path_4380" data-name="Path 4380" d="M148.5,174.958a.916.916,0,1,1-1.831,0l.238-6.533h1.356Z" transform="translate(-117.595 -144.331)" fill="#fc5d3d"/>
    <path id="Path_4381" data-name="Path 4381" d="M143.62,155.669v.985a.681.681,0,0,1-.68.68h-2.2a.681.681,0,0,1-.68-.68v-.985Z" transform="translate(-111.853 -133.24)" fill="#fc5d3d"/>
    <path id="Path_4382" data-name="Path 4382" d="M141.447,128.558a.326.326,0,0,0-.326.326v2.886H140v-2.886a.326.326,0,1,0-.653,0v2.886h-1.125v-2.886a.326.326,0,1,0-.653,0v4.2a1.008,1.008,0,0,0,1.007,1.007h.082l-.226,6.195a1.242,1.242,0,1,0,2.483,0l-.224-6.195h.081a1.008,1.008,0,0,0,1.006-1.007v-4.2a.326.326,0,0,0-.326-.326Zm-1.189,11.748h0a.59.59,0,1,1-1.179,0l.227-6.218h.727Zm.862-7.225a.354.354,0,0,1-.354.354h-2.2a.354.354,0,0,1-.354-.354v-.658h2.9Z" transform="translate(-109.68 -109.667)"/>
    <path id="Path_4383" data-name="Path 4383" d="M88.5,127.322a2.658,2.658,0,0,0-2.313,2.9,3.006,3.006,0,0,0,1.3,2.6l-.225,6.223a1.243,1.243,0,1,0,2.483,0l-.225-6.223a3.006,3.006,0,0,0,1.3-2.6,2.658,2.658,0,0,0-2.313-2.9Zm.589,11.748a.59.59,0,1,1-1.179,0l.217-5.991a1.943,1.943,0,0,0,.745,0l.217,5.991Zm-.046-6.731a1.255,1.255,0,0,1-1.087,0,2.316,2.316,0,0,1-1.117-2.12c0-1.238.745-2.245,1.66-2.245s1.66,1.007,1.66,2.245A2.316,2.316,0,0,1,89.045,132.339Z" transform="translate(-65.01 -108.593)"/>
    <path id="Path_4384" data-name="Path 4384" d="M11.42,14.389A3.189,3.189,0,0,0,12.93,17.1V33.576a1.633,1.633,0,0,0,1.632,1.632H38.711a1.633,1.633,0,0,0,1.632-1.632V17.1a3.189,3.189,0,0,0,1.51-2.711c0-.05,0-1.714,0-1.763a.341.341,0,0,0-.058-.175L37.747,6.437V4.06a1.633,1.633,0,0,0-1.632-1.632H17.157A1.633,1.633,0,0,0,15.526,4.06V6.437l-4.046,6.014a.35.35,0,0,0-.059.187Zm4.606-7.527h3.485l-2.257,5.449H12.36Zm24.887,5.449H36.018L33.762,6.863h3.485Zm-8.094,4.614a2.668,2.668,0,0,1-2.655-2.876V12.965h5.31v1.306A2.658,2.658,0,0,1,32.819,16.926Zm-6.183,0a2.879,2.879,0,0,1-2.875-2.875V12.965h5.751V14.05A2.879,2.879,0,0,1,26.636,16.926ZM23.94,6.863l-.788,5.448H17.96l2.256-5.448Zm9.115,0,2.256,5.448H30.12l-.788-5.448ZM17.8,12.965h5.31V14.05a2.659,2.659,0,1,1-5.31.221Zm10.874-6.1.788,5.449H23.812L24.6,6.863Zm-16.6,7.527V12.965h5.073v1.306a2.538,2.538,0,1,1-5.073.119ZM38.711,34.555H14.562a.98.98,0,0,1-.979-.979V17.408a3.187,3.187,0,0,0,3.912-1.661,3.305,3.305,0,0,0,5.98-.133,3.526,3.526,0,0,0,6.323,0,3.305,3.305,0,0,0,5.98.133,3.187,3.187,0,0,0,3.912,1.661V33.576a.98.98,0,0,1-.979.979Zm-.048-17.63a2.541,2.541,0,0,1-2.536-2.655V12.965H41.2v1.425A2.535,2.535,0,0,1,38.662,16.926ZM16.178,4.06a.98.98,0,0,1,.979-.979H36.115a.98.98,0,0,1,.979.979V6.21H16.178Z"/>
  </g>
</svg>
