<svg xmlns="http://www.w3.org/2000/svg" width="32.779" height="32.779" viewBox="0 0 32.779 32.779">
  <g id="settings" transform="translate(0 -0.002)">
    <path id="Path_3699" data-name="Path 3699" d="M41.5,27.727V23.776l-3.042-.758a12.921,12.921,0,0,0-1.79-4.319l1.615-2.686-2.794-2.794L32.8,14.834a12.922,12.922,0,0,0-4.319-1.79L27.725,10H23.774l-.758,3.042a12.921,12.921,0,0,0-4.319,1.79l-2.686-1.615-2.794,2.794L14.832,18.7a12.922,12.922,0,0,0-1.79,4.319L10,23.776v3.951l3.042.758a12.921,12.921,0,0,0,1.79,4.319L13.217,35.49l2.794,2.794L18.7,36.669a12.922,12.922,0,0,0,4.319,1.79l.758,3.042h3.951l.758-3.042a12.921,12.921,0,0,0,4.319-1.79l2.686,1.615,2.794-2.794L36.667,32.8a12.922,12.922,0,0,0,1.79-4.319Z" transform="translate(-9.36 -9.36)" fill="#ffd13e"/>
    <circle id="Ellipse_74" data-name="Ellipse 74" cx="9.099" cy="9.099" r="9.099" transform="translate(7 7.582)" fill="#ffe571"/>
    <ellipse id="Ellipse_75" data-name="Ellipse 75" cx="4.2" cy="3.5" rx="4.2" ry="3.5" transform="translate(12.599 13.181)" fill="#f2e1d6"/>
    <circle id="Ellipse_76" data-name="Ellipse 76" cx="3.5" cy="3.5" r="3.5" transform="translate(12.599 11.781)" fill="#f2e1d6"/>
    <path id="Path_3700" data-name="Path 3700" d="M32.294,13.8l-2.66-.663a13.506,13.506,0,0,0-1.575-3.8l1.412-2.35a.64.64,0,0,0-.1-.783L26.581,3.406a.64.64,0,0,0-.783-.1l-2.35,1.412a13.505,13.505,0,0,0-3.8-1.575L18.986.487A.64.64,0,0,0,18.365,0H14.414a.64.64,0,0,0-.621.485l-.663,2.66a13.508,13.508,0,0,0-3.8,1.575L6.981,3.31a.64.64,0,0,0-.783.1L3.4,6.2a.64.64,0,0,0-.1.783l1.412,2.35a13.505,13.505,0,0,0-1.575,3.8L.485,13.8A.64.64,0,0,0,0,14.416v3.951a.64.64,0,0,0,.485.621l2.66.663a13.5,13.5,0,0,0,1.575,3.8L3.308,25.8a.64.64,0,0,0,.1.783L6.2,29.377a.64.64,0,0,0,.783.1L9.33,28.06a13.509,13.509,0,0,0,3.8,1.575l.663,2.66a.64.64,0,0,0,.621.485h3.951a.64.64,0,0,0,.621-.485l.663-2.66a13.505,13.505,0,0,0,3.8-1.575l2.35,1.412a.64.64,0,0,0,.783-.1l2.794-2.794a.64.64,0,0,0,.1-.783l-1.412-2.35a13.506,13.506,0,0,0,1.575-3.8l2.66-.663a.64.64,0,0,0,.485-.621V14.416A.641.641,0,0,0,32.294,13.8ZM31.5,17.867l-2.556.637a.64.64,0,0,0-.471.487,12.246,12.246,0,0,1-1.7,4.105.64.64,0,0,0-.011.678l1.357,2.258-2.086,2.086-2.258-1.357a.64.64,0,0,0-.678.011,12.246,12.246,0,0,1-4.105,1.7.64.64,0,0,0-.487.471L17.865,31.5h-2.95l-.637-2.556a.64.64,0,0,0-.487-.471,12.246,12.246,0,0,1-4.105-1.7.64.64,0,0,0-.678-.011L6.75,28.118,4.663,26.031l1.357-2.258a.64.64,0,0,0-.011-.678,12.246,12.246,0,0,1-1.7-4.105.64.64,0,0,0-.471-.487L1.28,17.867v-2.95l2.556-.637a.64.64,0,0,0,.471-.487,12.246,12.246,0,0,1,1.7-4.105.64.64,0,0,0,.011-.678L4.663,6.752,6.75,4.665,9.007,6.022a.64.64,0,0,0,.678-.011,12.245,12.245,0,0,1,4.105-1.7.64.64,0,0,0,.487-.471l.637-2.556h2.95L18.5,3.839a.64.64,0,0,0,.487.471,12.246,12.246,0,0,1,4.105,1.7.64.64,0,0,0,.678.011l2.258-1.357,2.086,2.086L26.759,9.009a.64.64,0,0,0,.011.678,12.246,12.246,0,0,1,1.7,4.105.64.64,0,0,0,.471.487l2.556.637Z" transform="translate(0 0)"/>
    <path id="Path_3701" data-name="Path 3701" d="M115.6,106a9.509,9.509,0,0,0-4.253.991.64.64,0,1,0,.568,1.148,8.24,8.24,0,0,1,3.686-.858,8.319,8.319,0,1,1-7.169,4.091.64.64,0,1,0-1.1-.652A9.6,9.6,0,1,0,115.6,106Z" transform="translate(-99.214 -99.214)"/>
    <path id="Path_3702" data-name="Path 3702" d="M188.61,184a4.61,4.61,0,1,0,4.61,4.61A4.615,4.615,0,0,0,188.61,184Zm0,7.939a3.329,3.329,0,1,1,3.329-3.329A3.333,3.333,0,0,1,188.61,191.941Z" transform="translate(-172.22 -172.22)"/>
    <path id="Path_3703" data-name="Path 3703" d="M151.23,144.842a.64.64,0,1,0-.453-.188A.645.645,0,0,0,151.23,144.842Z" transform="translate(-140.949 -134.369)"/>
  </g>
</svg>
