<svg xmlns="http://www.w3.org/2000/svg" width="32.205" height="32.779" viewBox="0 0 32.205 32.779">
  <g id="Group_4520" data-name="Group 4520" transform="translate(-650 -4189.856)">
    <g id="Layer_13" data-name="Layer 13" transform="translate(639 4188.856)">
      <path id="Path_4429" data-name="Path 4429" d="M32.976,18,30.948,40.3a1.057,1.057,0,0,1-1.053.962H18.08a1.057,1.057,0,0,1-1.053-.962L15,18" transform="translate(-1.885 -8.012)" fill="#ffe571"/>
      <path id="Path_4430" data-name="Path 4430" d="M15,18l1.922,21.148H27.781a1.057,1.057,0,0,0,1.053-.962L30.668,18Z" transform="translate(-1.885 -8.012)" fill="#ffd13e"/>
      <rect id="Rectangle_46" data-name="Rectangle 46" width="20.674" height="3.063" rx="1.531" transform="translate(11.766 7.126)" fill="#84d2f4"/>
      <path id="Path_4431" data-name="Path 4431" d="M14,7.287V5.172a1.057,1.057,0,0,1,1.057-1.057h7.9a1.586,1.586,0,0,0,.991-.347l1.627-1.3A2.115,2.115,0,0,1,26.9,2h5.075a1.057,1.057,0,0,1,1.057,1.057v4.23" transform="translate(-1.414 -0.471)" fill="#b1dbfc"/>
      <path id="Path_4432" data-name="Path 4432" d="M33.033,30,31.976,40.574H15.057L14,30Z" transform="translate(-1.414 -13.668)" fill="#fc5d3d"/>
      <path id="Path_4433" data-name="Path 4433" d="M29.649,30H14l.846,8.459h13a1.057,1.057,0,0,0,1.052-.952Z" transform="translate(-1.414 -13.668)" fill="#fc5d3d"/>
      <rect id="Rectangle_47" data-name="Rectangle 47" width="3.829" height="6.126" rx="1.914" transform="translate(17.126 18.611)" fill="#976947"/>
      <path id="Path_4434" data-name="Path 4434" d="M25.057,34a2.087,2.087,0,0,0-.566.087l-.476,1.9a.529.529,0,0,0,.04.365l.97,1.94L24.53,40.27a1.9,1.9,0,0,0,1.092-.013l.476-1.9a.529.529,0,0,0-.04-.365l-.97-1.94.5-1.979A2.105,2.105,0,0,0,25.057,34Z" transform="translate(-6.126 -15.553)" fill="#c18e59"/>
      <rect id="Rectangle_48" data-name="Rectangle 48" width="3.829" height="6.126" rx="1.914" transform="translate(27.08 20.908) rotate(90)" fill="#976947"/>
      <path id="Path_4435" data-name="Path 4435" d="M33.993,40.053l-1.94.973-1.979-.5a1.9,1.9,0,0,0,.013,1.093l1.9.476a.523.523,0,0,0,.128.017.534.534,0,0,0,.236-.053l1.94-.97,1.979.494a1.9,1.9,0,0,0-.013-1.093l-1.9-.476a.529.529,0,0,0-.364.036Z" transform="translate(-8.955 -18.381)" fill="#c18e59"/>
      <path id="Path_4436" data-name="Path 4436" d="M30.541,13.057V12H13.057A1.057,1.057,0,0,0,12,13.057v.529H30.012A.529.529,0,0,0,30.541,13.057Z" transform="translate(-0.471 -5.184)" fill="#84d2f4"/>
      <path id="Path_4437" data-name="Path 4437" d="M31.484,4.908V2H26.9a2.115,2.115,0,0,0-1.322.463l-1.627,1.3a1.586,1.586,0,0,1-.991.347h-7.9A1.057,1.057,0,0,0,14,5.172v.793H30.426A1.057,1.057,0,0,0,31.484,4.908Z" transform="translate(-1.414 -0.471)" fill="#84d2f4"/>
      <path id="Path_4438" data-name="Path 4438" d="M32.148,6.384v-3.8A1.586,1.586,0,0,0,30.562,1H25.486a2.651,2.651,0,0,0-1.652.582l-1.626,1.3a1.057,1.057,0,0,1-.662.232h-7.9A1.586,1.586,0,0,0,12.057,4.7V6.384A1.586,1.586,0,0,0,11,7.873V8.93a1.586,1.586,0,0,0,1.586,1.586h.046l.483,5.287h-.529a.529.529,0,0,0-.526.582l1.057,10.574a.529.529,0,0,0,.526.476h.529l.446,4.9a1.578,1.578,0,0,0,1.577,1.442H28.01a1.578,1.578,0,0,0,1.579-1.443l.444-4.9h.529a.529.529,0,0,0,.529-.476l1.057-10.574a.529.529,0,0,0-.529-.582h-.529l.481-5.287h.048A1.586,1.586,0,0,0,33.205,8.93V7.873a1.586,1.586,0,0,0-1.057-1.489Zm-18.5-2.212h7.9a2.124,2.124,0,0,0,1.322-.463L24.5,2.4a1.592,1.592,0,0,1,.989-.347h5.075a.529.529,0,0,1,.529.529v3.7H13.115V4.7A.529.529,0,0,1,13.643,4.172ZM28.536,32.241a.529.529,0,0,1-.526.481H16.195a.529.529,0,0,1-.529-.481l-.437-4.806H28.976Zm1.55-5.863H14.122l-.952-9.517H31.038ZM30.033,15.8H14.172L13.7,10.517H30.514ZM32.148,8.93a.529.529,0,0,1-.529.529H12.586a.529.529,0,0,1-.529-.529V7.873a.529.529,0,0,1,.529-.529H31.619a.529.529,0,0,1,.529.529Z"/>
      <path id="Path_4439" data-name="Path 4439" d="M23.643,40.4a2.634,2.634,0,0,0,2.115-1.074A2.634,2.634,0,0,0,27.873,40.4h2.115a2.643,2.643,0,1,0,0-5.287H27.873a2.616,2.616,0,0,0-1.586.542v-.014a2.643,2.643,0,1,0-5.287,0v2.115A2.647,2.647,0,0,0,23.643,40.4Zm6.344-1.057H27.873a1.582,1.582,0,0,1-1.4-.863l1.276.317a.524.524,0,0,0,.128.017.533.533,0,0,0,.236-.053l1.94-.97,1.468.367A1.586,1.586,0,0,1,29.988,39.344Zm-2.115-3.172h2.115a1.582,1.582,0,0,1,1.4.863l-1.276-.317a.529.529,0,0,0-.364.04l-1.94.969-1.468-.367a1.586,1.586,0,0,1,1.529-1.187Zm-2.643-.529v2.115a1.581,1.581,0,0,1-.863,1.4l.317-1.275a.529.529,0,0,0-.04-.365l-.969-1.94.367-1.468A1.586,1.586,0,0,1,25.23,35.643Zm-3.172,0a1.581,1.581,0,0,1,.863-1.4L22.6,35.515a.529.529,0,0,0,.04.365l.97,1.94-.367,1.468a1.586,1.586,0,0,1-1.189-1.529Z" transform="translate(-4.713 -15.082)"/>
    </g>
    <g id="Layer_13-2" data-name="Layer 13" transform="translate(654.497 4196.971)">
      <path id="Path_4429-2" data-name="Path 4429" d="M28.526,18,27,34.78a.8.8,0,0,1-.792.724h-8.89a.8.8,0,0,1-.792-.724L15,18" transform="translate(-2.409 -10.237)" fill="#ffe571"/>
      <path id="Path_4430-2" data-name="Path 4430" d="M15,18l1.446,15.913h8.17a.8.8,0,0,0,.792-.724L26.79,18Z" transform="translate(-2.409 -10.237)" fill="#ffd13e"/>
      <rect id="Rectangle_46-2" data-name="Rectangle 46" width="15.556" height="2.305" rx="1.152" transform="translate(11.576 5.609)" fill="#84d2f4"/>
      <path id="Path_4431-2" data-name="Path 4431" d="M14,5.978V4.387a.8.8,0,0,1,.8-.8h5.947a1.194,1.194,0,0,0,.746-.261l1.224-.981A1.591,1.591,0,0,1,23.707,2h3.819a.8.8,0,0,1,.8.8V5.978" transform="translate(-1.807 -0.602)" fill="#b1dbfc"/>
      <path id="Path_4432-2" data-name="Path 4432" d="M28.321,30l-.8,7.956H14.8L14,30Z" transform="translate(-1.807 -17.463)" fill="#fc5d3d"/>
      <path id="Path_4433-2" data-name="Path 4433" d="M25.775,30H14l.637,6.365h9.782a.8.8,0,0,0,.792-.716Z" transform="translate(-1.807 -17.463)" fill="#fc5d3d"/>
      <rect id="Rectangle_47-2" data-name="Rectangle 47" width="2.881" height="4.609" rx="1.44" transform="translate(15.609 14.251)" fill="#976947"/>
      <path id="Path_4434-2" data-name="Path 4434" d="M24.795,34a1.571,1.571,0,0,0-.426.065l-.358,1.429a.4.4,0,0,0,.03.274l.73,1.46L24.4,38.718a1.429,1.429,0,0,0,.822-.01l.358-1.429a.4.4,0,0,0-.03-.274l-.73-1.46.374-1.489a1.584,1.584,0,0,0-.4-.056Z" transform="translate(-7.828 -19.872)" fill="#c18e59"/>
      <rect id="Rectangle_48-2" data-name="Rectangle 48" width="2.881" height="4.609" rx="1.44" transform="translate(23.099 15.98) rotate(90)" fill="#976947"/>
      <path id="Path_4435-2" data-name="Path 4435" d="M33,40.04l-1.46.732L30.056,40.4a1.432,1.432,0,0,0,.01.823l1.43.358a.394.394,0,0,0,.1.013.4.4,0,0,0,.178-.04l1.46-.73,1.489.372a1.432,1.432,0,0,0-.01-.823l-1.43-.358A.4.4,0,0,0,33,40.04Z" transform="translate(-11.442 -23.485)" fill="#c18e59"/>
      <path id="Path_4436-2" data-name="Path 4436" d="M25.951,12.8V12H12.8a.8.8,0,0,0-.8.8v.4H25.553A.4.4,0,0,0,25.951,12.8Z" transform="translate(-0.602 -6.624)" fill="#84d2f4"/>
      <path id="Path_4437-2" data-name="Path 4437" d="M27.155,4.188V2H23.707a1.591,1.591,0,0,0-.995.348l-1.224.981a1.193,1.193,0,0,1-.746.261H14.8a.8.8,0,0,0-.8.8v.6H26.36A.8.8,0,0,0,27.155,4.188Z" transform="translate(-1.807 -0.602)" fill="#84d2f4"/>
      <path id="Path_4438-2" data-name="Path 4438" d="M26.913,5.051V2.193A1.193,1.193,0,0,0,25.719,1H21.9a2,2,0,0,0-1.243.438l-1.224.979a.8.8,0,0,1-.5.174H12.989A1.193,1.193,0,0,0,11.8,3.785V5.051a1.193,1.193,0,0,0-.8,1.12v.8a1.193,1.193,0,0,0,1.193,1.193h.035l.363,3.978h-.4a.4.4,0,0,0-.4.438l.8,7.956a.4.4,0,0,0,.4.358h.4l.335,3.689a1.187,1.187,0,0,0,1.187,1.085H23.8a1.187,1.187,0,0,0,1.188-1.086l.334-3.688h.4a.4.4,0,0,0,.4-.358l.8-7.956a.4.4,0,0,0-.4-.438h-.4l.362-3.978h.036a1.193,1.193,0,0,0,1.193-1.193v-.8a1.193,1.193,0,0,0-.8-1.12ZM12.989,3.387h5.946a1.6,1.6,0,0,0,.995-.348l1.226-.981A1.2,1.2,0,0,1,21.9,1.8h3.819a.4.4,0,0,1,.4.4V4.978H12.591V3.785A.4.4,0,0,1,12.989,3.387ZM24.2,24.507a.4.4,0,0,1-.4.362h-8.89a.4.4,0,0,1-.4-.362l-.329-3.617H24.526ZM25.361,20.1H13.349l-.716-7.161H26.077Zm-.04-7.956H13.387l-.358-3.978H25.683Zm1.591-5.172a.4.4,0,0,1-.4.4H12.193a.4.4,0,0,1-.4-.4v-.8a.4.4,0,0,1,.4-.4H26.515a.4.4,0,0,1,.4.4Z" transform="translate(0)"/>
      <path id="Path_4439-2" data-name="Path 4439" d="M22.989,38.569a1.982,1.982,0,0,0,1.591-.808,1.982,1.982,0,0,0,1.591.808h1.591a1.989,1.989,0,1,0,0-3.978H26.172A1.968,1.968,0,0,0,24.978,35v-.01a1.989,1.989,0,1,0-3.978,0V36.58a1.991,1.991,0,0,0,1.989,1.989Zm4.774-.8H26.172a1.19,1.19,0,0,1-1.056-.65l.96.239a.394.394,0,0,0,.1.013.4.4,0,0,0,.178-.04l1.46-.73,1.1.276A1.193,1.193,0,0,1,27.763,37.774Zm-1.591-2.387h1.591a1.19,1.19,0,0,1,1.056.65l-.96-.239a.4.4,0,0,0-.274.03l-1.46.729-1.1-.276a1.193,1.193,0,0,1,1.15-.893Zm-1.989-.4V36.58a1.19,1.19,0,0,1-.65,1.056l.239-.96a.4.4,0,0,0-.03-.274l-.729-1.46.276-1.1A1.193,1.193,0,0,1,24.183,34.989Zm-2.387,0a1.19,1.19,0,0,1,.65-1.056l-.239.96a.4.4,0,0,0,.03.274l.73,1.46-.276,1.1a1.193,1.193,0,0,1-.895-1.15Z" transform="translate(-6.022 -19.27)"/>
    </g>
  </g>
</svg>
