<svg xmlns="http://www.w3.org/2000/svg" width="33.173" height="32.779" viewBox="0 0 33.173 32.779">
  <g id="expenses" transform="translate(0 -3.04)">
    <g id="Group_489" data-name="Group 489" transform="translate(0.486 3.526)">
      <g id="Group_477" data-name="Group 477" transform="translate(0 3.837)">
        <path id="Path_2897" data-name="Path 2897" d="M16.715,71.519a4.283,4.283,0,0,0-5.579-1.207,4.41,4.41,0,0,0-.381.289,4.1,4.1,0,0,0-.821,5.844,4.084,4.084,0,0,0,5.8,1.011,4.457,4.457,0,0,0,.4-.255A4.283,4.283,0,0,0,16.715,71.519Z" transform="translate(-8.968 -69.754)" fill="#84d2f4"/>
        <g id="Group_476" data-name="Group 476" transform="translate(0 0.507)">
          <path id="Path_2898" data-name="Path 2898" d="M14.743,84.447a4.282,4.282,0,1,1-4.987-6.865,4.283,4.283,0,0,0,4.987,6.865Z" transform="translate(-7.495 -77.582)" fill="#57b7eb"/>
          <circle id="Ellipse_59" data-name="Ellipse 59" cx="2.106" cy="2.106" r="2.106" transform="translate(2.177 1.669)" fill="#57b7eb"/>
        </g>
      </g>
      <g id="Group_479" data-name="Group 479" transform="translate(23.637 3.768)">
        <path id="Path_2899" data-name="Path 2899" d="M381.671,76.216A4.283,4.283,0,0,0,381,70.548a4.4,4.4,0,0,0-.4-.266,4.239,4.239,0,0,0-4.86,6.941,4.473,4.473,0,0,0,.371.294A4.283,4.283,0,0,0,381.671,76.216Z" transform="translate(-373.881 -69.477)" fill="#84d2f4"/>
        <g id="Group_478" data-name="Group 478">
          <path id="Path_2900" data-name="Path 2900" d="M374.641,76.786a4.282,4.282,0,1,1,4.867-6.951,4.283,4.283,0,0,0-4.867,6.951Z" transform="translate(-372.314 -68.694)" fill="#57b7eb"/>
          <circle id="Ellipse_60" data-name="Ellipse 60" cx="2.106" cy="2.106" r="2.106" transform="translate(2.177 2.177)" fill="#57b7eb"/>
        </g>
      </g>
      <g id="Group_480" data-name="Group 480" transform="translate(8.941 17.42)">
        <path id="Path_2901" data-name="Path 2901" d="M161.8,286.813a7.2,7.2,0,0,0-6.663-7.175c-.175-.013-.287.01-.466.01a7.16,7.16,0,0,0,0,14.32c.159,0,.25.033.406.023A7.194,7.194,0,0,0,161.8,286.813Z" transform="translate(-147.41 -279.619)" fill="#ffd13e"/>
        <path id="Path_2902" data-name="Path 2902" d="M153.281,293.76q-.292.023-.59.024a7.194,7.194,0,1,1,0-14.388q.3,0,.59.024a7.195,7.195,0,0,0,0,14.341Z" transform="translate(-145.497 -279.396)" fill="#ffd064"/>
        <path id="Path_2903" data-name="Path 2903" d="M186.387,323.725a4.922,4.922,0,0,1-.059-9.843c.171,0,.339-.027.506-.01a4.981,4.981,0,0,1-.007,9.911A4.176,4.176,0,0,1,186.387,323.725Z" transform="translate(-179.135 -311.633)" fill="#ffd13e"/>
        <path id="Path_2904" data-name="Path 2904" d="M185.232,323.486a4.98,4.98,0,1,1,0-9.891,4.981,4.981,0,0,0,0,9.891Z" transform="translate(-177.448 -311.346)" fill="#ffd13e"/>
      </g>
      <g id="Group_482" data-name="Group 482" transform="translate(13.738 10.711)">
        <path id="Path_2905" data-name="Path 2905" d="M226.156,180.716l-1.9-2.593-.2-.137a.324.324,0,0,0-.522,0l-1.968,2.666a.194.194,0,0,0,.157.309l.473.065h.675l.065,1.019a.324.324,0,0,0,.324.324l.518.065h.619a.324.324,0,0,0,.324-.324v-1.084H226A.194.194,0,0,0,226.156,180.716Z" transform="translate(-221.4 -177.723)" fill="#fc5d3d"/>
        <g id="Group_481" data-name="Group 481">
          <path id="Path_2906" data-name="Path 2906" d="M222.384,176.249l-2.056,2.9h-.6a.194.194,0,0,1-.156-.309l2.1-2.861a.324.324,0,0,1,.522,0Z" transform="translate(-219.53 -175.85)" fill="#fc5d3d"/>
          <path id="Path_2907" data-name="Path 2907" d="M243.157,227v1.213h-.583a.324.324,0,0,1-.324-.324V226.81h.713A.194.194,0,0,1,243.157,227Z" transform="translate(-240.778 -223.508)" fill="#fc5d3d"/>
        </g>
      </g>
      <g id="Group_484" data-name="Group 484" transform="translate(20.341 13.128)">
        <path id="Path_2908" data-name="Path 2908" d="M327.509,218.56l-.071-3.216-.082-.225a.324.324,0,0,0-.428-.3l-3.141,1.055a.194.194,0,0,0-.049.343l.351.325.553.387-.531.872a.324.324,0,0,0,.08.451l.387.35.507.355a.324.324,0,0,0,.451-.08l.621-.888,1.047.733A.194.194,0,0,0,327.509,218.56Z" transform="translate(-323.512 -214.697)" fill="#fc5d3d"/>
        <g id="Group_483" data-name="Group 483">
          <path id="Path_2909" data-name="Path 2909" d="M325.37,213.81l-3.349,1.2-.494-.346a.194.194,0,0,1,.049-.343l3.359-1.14a.324.324,0,0,1,.428.3Z" transform="translate(-321.444 -213.163)" fill="#fc5d3d"/>
          <path id="Path_2910" data-name="Path 2910" d="M329.691,248.306l-.7.994-.478-.334a.324.324,0,0,1-.08-.451l.621-.887.584.409A.194.194,0,0,1,329.691,248.306Z" transform="translate(-327.93 -245.393)" fill="#fc5d3d"/>
        </g>
      </g>
      <g id="Group_486" data-name="Group 486" transform="translate(7.956 13.204)">
        <path id="Path_2911" data-name="Path 2911" d="M135.151,217.028l-3.046-1.033h-.239a.324.324,0,0,0-.428.3l-.084,3.313a.194.194,0,0,0,.306.164l.425-.218.553-.387.637.8a.324.324,0,0,0,.451.08l.462-.244.507-.355a.324.324,0,0,0,.08-.451l-.621-.888,1.047-.733A.194.194,0,0,0,135.151,217.028Z" transform="translate(-131.287 -215.871)" fill="#fc5d3d"/>
        <g id="Group_485" data-name="Group 485">
          <path id="Path_2912" data-name="Path 2912" d="M131.115,214.462l-.02,3.557-.494.346a.194.194,0,0,1-.305-.164l.078-3.547a.324.324,0,0,1,.428-.3Z" transform="translate(-130.296 -214.338)" fill="#fc5d3d"/>
          <path id="Path_2913" data-name="Path 2913" d="M152.015,258.411l.7.994-.478.334a.324.324,0,0,1-.451-.08l-.621-.887.584-.409A.194.194,0,0,1,152.015,258.411Z" transform="translate(-149.808 -255.478)" fill="#fc5d3d"/>
        </g>
      </g>
      <g id="Group_488" data-name="Group 488" transform="translate(11.853)">
        <path id="Path_2914" data-name="Path 2914" d="M201.638,15.12a4.283,4.283,0,0,0-3.8-4.256,4.4,4.4,0,0,0-.478.01,4.1,4.1,0,0,0-4.1,4.245,4.084,4.084,0,0,0,4.1,4.229,4.47,4.47,0,0,0,.473.028,4.283,4.283,0,0,0,3.809-4.256Z" transform="translate(-193.074 -10.838)" fill="#84d2f4"/>
        <g id="Group_487" data-name="Group 487">
          <path id="Path_2915" data-name="Path 2915" d="M195.305,19.065a4.327,4.327,0,0,1-.583.04,4.282,4.282,0,0,1,0-8.564,4.327,4.327,0,0,1,.583.04,4.283,4.283,0,0,0,0,8.485Z" transform="translate(-190.44 -10.54)" fill="#57b7eb"/>
          <circle id="Ellipse_61" data-name="Ellipse 61" cx="2.106" cy="2.106" r="2.106" transform="translate(2.176 2.176)" fill="#57b7eb"/>
        </g>
      </g>
    </g>
    <g id="Group_490" data-name="Group 490" transform="translate(0 3.04)">
      <path id="Path_2916" data-name="Path 2916" d="M180.385,307.13a.486.486,0,0,0-.07-.684,5.522,5.522,0,1,0,2.035,4.282,5.474,5.474,0,0,0-.523-2.348.486.486,0,1,0-.879.414,4.551,4.551,0,1,1-4.12-2.616A4.558,4.558,0,0,1,179.7,307.2.486.486,0,0,0,180.385,307.13Z" transform="translate(-160.208 -285.628)"/>
      <path id="Path_2917" data-name="Path 2917" d="M145.676,271.9a7.621,7.621,0,0,0-5.5,2.32.486.486,0,1,0,.7.678,6.687,6.687,0,1,1-1.216,1.72.486.486,0,1,0-.872-.43,7.605,7.605,0,0,0-.787,3.391,7.68,7.68,0,1,0,7.68-7.68Z" transform="translate(-129.055 -254.476)"/>
      <path id="Path_2918" data-name="Path 2918" d="M232.33,343.9a.486.486,0,0,0,.486-.486v-.342a1.732,1.732,0,0,0,1.166-1.391,1.562,1.562,0,0,0-1.035-1.784,3.566,3.566,0,0,1-1.045-.454.528.528,0,0,1-.128-.441.5.5,0,0,1,.3-.351.9.9,0,0,1,.808.145.486.486,0,0,0,.617-.751,2.035,2.035,0,0,0-.684-.344v-.248a.486.486,0,0,0-.972,0v.246a1.479,1.479,0,0,0-.2.08,1.463,1.463,0,0,0-.825,1.036,1.5,1.5,0,0,0,.354,1.273,2.481,2.481,0,0,0,1.165.629.875.875,0,0,1,.683.8.757.757,0,0,1-.724.663,1.339,1.339,0,0,1-.893-.34.486.486,0,0,0-.532.814,2.651,2.651,0,0,0,.97.458v.3A.486.486,0,0,0,232.33,343.9Z" transform="translate(-215.709 -315.335)"/>
      <path id="Path_2919" data-name="Path 2919" d="M9.536,67.026a4.768,4.768,0,1,0-4.768,4.768A4.773,4.773,0,0,0,9.536,67.026Zm-4.768,3.8a3.8,3.8,0,1,1,3.8-3.8A3.8,3.8,0,0,1,4.768,70.822Z" transform="translate(0 -58.421)"/>
      <path id="Path_2920" data-name="Path 2920" d="M369.808,61.269a.486.486,0,1,0-.044.971,3.794,3.794,0,1,1-1.949.434.486.486,0,0,0-.455-.859,4.769,4.769,0,1,0,2.448-.546Z" transform="translate(-341.182 -57.496)"/>
      <path id="Path_2921" data-name="Path 2921" d="M187.706,12.576a4.768,4.768,0,1,0-4.768-4.768A4.773,4.773,0,0,0,187.706,12.576Zm0-8.564a3.8,3.8,0,1,1-3.8,3.8,3.8,3.8,0,0,1,3.8-3.8Z" transform="translate(-171.085 -3.04)"/>
      <path id="Path_2922" data-name="Path 2922" d="M298.988,217.6h0Z" transform="translate(-279.616 -203.697)"/>
      <path id="Path_2923" data-name="Path 2923" d="M214.309,174.033h1.2a.811.811,0,0,0,.81-.81v-.6h.792a.68.68,0,0,0,.549-1.083l-2.1-2.86a.81.81,0,0,0-1.306,0l-2.1,2.86a.68.68,0,0,0,.549,1.083h.792v.6A.811.811,0,0,0,214.309,174.033Zm2.568-1.915h0Zm-3.595-.464,1.627-2.218,1.627,2.218h-.7a.486.486,0,0,0-.486.486v.922h-.878v-.922a.486.486,0,0,0-.486-.486Z" transform="translate(-198.289 -157.641)"/>
      <path id="Path_2924" data-name="Path 2924" d="M319.049,206.319a.813.813,0,0,0-.725-.1l-3.359,1.139a.68.68,0,0,0-.172,1.2l.648.454-.343.49a.811.811,0,0,0,.2,1.128l.985.689a.811.811,0,0,0,1.128-.2l.343-.49.648.454a.68.68,0,0,0,1.07-.572h0l-.078-3.546A.812.812,0,0,0,319.049,206.319Zm-1.136,3.235a.486.486,0,0,0-.677.119l-.529.755-.719-.5.529-.755a.486.486,0,0,0-.119-.677l-.575-.4,2.605-.884.061,2.75Z" transform="translate(-294.126 -193.012)"/>
      <path id="Path_2925" data-name="Path 2925" d="M123.518,210.628l.343.49a.811.811,0,0,0,1.128.2l.985-.689a.811.811,0,0,0,.2-1.128l-.343-.49.649-.454a.68.68,0,0,0-.172-1.2h0l-3.359-1.139a.81.81,0,0,0-1.07.749l-.078,3.546a.68.68,0,0,0,1.07.572Zm-.674-3.422,2.605.884-.575.4a.486.486,0,0,0-.119.677l.529.755-.719.5-.529-.755a.486.486,0,0,0-.677-.119l-.575.4Z" transform="translate(-113.907 -193.011)"/>
      <path id="Path_2926" data-name="Path 2926" d="M36.183,95.848a2.592,2.592,0,1,0,2.592,2.592A2.595,2.595,0,0,0,36.183,95.848Zm0,4.211a1.62,1.62,0,1,1,1.62-1.62A1.622,1.622,0,0,1,36.183,100.059Z" transform="translate(-31.415 -89.835)"/>
      <path id="Path_2927" data-name="Path 2927" d="M217.579,39.274a.486.486,0,0,0,.574-.378,1.62,1.62,0,1,1,1.587,1.947,1.6,1.6,0,0,1-1.018-.359.486.486,0,0,0-.611.756,2.591,2.591,0,1,0-.91-2.539A.486.486,0,0,0,217.579,39.274Z" transform="translate(-203.118 -34.455)"/>
      <path id="Path_2928" data-name="Path 2928" d="M398.409,97.382A2.592,2.592,0,1,0,401,94.79,2.595,2.595,0,0,0,398.409,97.382ZM401,95.762a1.62,1.62,0,1,1-1.62,1.62A1.622,1.622,0,0,1,401,95.762Z" transform="translate(-372.595 -88.845)"/>
    </g>
  </g>
</svg>
