<svg xmlns="http://www.w3.org/2000/svg" width="22.123" height="32.779" viewBox="0 0 22.123 32.779">
  <g id="man-2" transform="translate(-78.033)">
    <path id="Path_4551" data-name="Path 4551" d="M107.063,36.466v2.681a.546.546,0,0,1-.546.546H86.578a.546.546,0,0,1-.546-.546V36.466a5.092,5.092,0,0,1,5.093-5.092A2.827,2.827,0,0,0,93.5,30.087a3.21,3.21,0,0,0,.454-2l.01-.025a6.761,6.761,0,0,1-4.175-6.248V21.6a1.684,1.684,0,0,1-1.707-1.676V17.085a9.451,9.451,0,0,1,2.54-6.9c2.927-2.821,7.564-2.59,10.924-1.081a.137.137,0,0,1,0,.251l-.876.361a.137.137,0,0,0,.038.262l.425.046a6.892,6.892,0,0,1,5.1,3.165.147.147,0,0,1-.018.169,4.131,4.131,0,0,0-1.128,2.838v3.726a1.676,1.676,0,0,1-1.676,1.676h-.1v.214a6.761,6.761,0,0,1-4.175,6.248l.01.025a3.208,3.208,0,0,0,.454,2,2.827,2.827,0,0,0,2.373,1.288,5.092,5.092,0,0,1,5.093,5.092Z" transform="translate(-7.453 -7.46)" fill="#fce7d1"/>
    <path id="Path_4552" data-name="Path 4552" d="M107.063,337.753v2.681a.546.546,0,0,1-.546.546H86.578a.546.546,0,0,1-.546-.546v-2.681a5.093,5.093,0,0,1,5.093-5.092,2.827,2.827,0,0,0,2.374-1.288,4.687,4.687,0,0,0,6.1,0,2.827,2.827,0,0,0,2.374,1.288A5.093,5.093,0,0,1,107.063,337.753Z" transform="translate(-7.453 -308.746)" fill="#ffd13e"/>
    <path id="Path_4553" data-name="Path 4553" d="M134.141,13.191a.145.145,0,0,1-.018.168A4.134,4.134,0,0,0,133,16.2v3.726A1.679,1.679,0,0,1,131.22,21.6V17.381a3.277,3.277,0,0,0-3.277-3.277h-6.965a3.277,3.277,0,0,0-3.277,3.277V21.6a1.684,1.684,0,0,1-1.707-1.676V17.086a9.451,9.451,0,0,1,2.54-6.9c2.926-2.821,7.564-2.59,10.923-1.081a.137.137,0,0,1,0,.251l-.876.361a.137.137,0,0,0,.037.262l.426.046A6.889,6.889,0,0,1,134.141,13.191Z" transform="translate(-35.365 -7.461)" fill="#42434d"/>
    <path id="Path_4554" data-name="Path 4554" d="M154.552,105a6.761,6.761,0,1,1-13.52-.214V100.57a3.277,3.277,0,0,1,3.277-3.277h6.965a3.277,3.277,0,0,1,3.277,3.277Z" transform="translate(-58.697 -90.65)" fill="#fce7d1"/>
    <path id="Path_4555" data-name="Path 4555" d="M146.261,123.951a1.079,1.079,0,0,1-.982,1.912,6.761,6.761,0,0,1-4.248-6.277v-4.431a3.263,3.263,0,0,1,.575-1.855.807.807,0,0,1,1.473.489v4.431A6.711,6.711,0,0,0,146.261,123.951Z" transform="translate(-58.697 -105.234)" fill="#ffceb7"/>
    <path id="Path_4556" data-name="Path 4556" d="M206.246,302.839a6.779,6.779,0,0,1-5.344,0,4.231,4.231,0,0,0,.077-1.121l.01-.025a6.774,6.774,0,0,0,5.169,0l.01.025A4.23,4.23,0,0,0,206.246,302.839Z" transform="translate(-114.479 -281.093)" fill="#ffd6a6"/>
    <path id="Path_4557" data-name="Path 4557" d="M93.875,334.31a2.778,2.778,0,0,1-.814.126,5.106,5.106,0,0,0-5.119,5.074v.513a.956.956,0,0,1-.956.956h-.41a.546.546,0,0,1-.546-.546v-2.681a5.093,5.093,0,0,1,5.093-5.092,2.827,2.827,0,0,0,2.374-1.288,4.724,4.724,0,0,0,.649.466A1.364,1.364,0,0,1,93.875,334.31Z" transform="translate(-7.452 -308.746)" fill="#ffe571"/>
    <path id="Path_4558" data-name="Path 4558" d="M266.305,334.31a2.778,2.778,0,0,0,.814.126,5.106,5.106,0,0,1,5.119,5.074v.513a.956.956,0,0,0,.956.956h.41a.546.546,0,0,0,.546-.546v-2.681a5.093,5.093,0,0,0-5.093-5.092,2.827,2.827,0,0,1-2.374-1.288,4.723,4.723,0,0,1-.649.466A1.364,1.364,0,0,0,266.305,334.31Z" transform="translate(-174.54 -308.746)" fill="#ffe571"/>
    <path id="Path_4559" data-name="Path 4559" d="M129.453,9.357c-.8.33-.917.4-1.2.36-4.484-.7-8.419,1.16-9.755,5.516h0a3.261,3.261,0,0,0-.8,2.147v2.562a.854.854,0,1,1-1.707-.02V17.085a9.451,9.451,0,0,1,2.54-6.9c2.927-2.821,7.564-2.59,10.924-1.081A.137.137,0,0,1,129.453,9.357Z" transform="translate(-35.366 -7.46)" fill="#4d4e59"/>
    <path id="Path_4560" data-name="Path 4560" d="M100.156,29.006v3.227a.546.546,0,1,1-1.092,0V29.006a4.543,4.543,0,0,0-4.546-4.546,3.354,3.354,0,0,1-2.885-1.62.546.546,0,0,1,.933-.568,2.269,2.269,0,0,0,1.952,1.1,5.635,5.635,0,0,1,5.638,5.638Zm-9.532-5.476a.546.546,0,0,1-.417.65,5.228,5.228,0,0,1-4.064-.795,3.313,3.313,0,0,1-2.471,1.075,4.543,4.543,0,0,0-4.546,4.546v3.227a.546.546,0,0,1-1.092,0V29.006a5.635,5.635,0,0,1,5.638-5.638,2.277,2.277,0,0,0,2.283-2.277v-.144a7.318,7.318,0,0,1-4.16-6.326,2.229,2.229,0,0,1-1.712-2.159V9.631a10.007,10.007,0,0,1,2.707-7.3C85.914-.68,90.927-.488,94.612,1.286a.548.548,0,0,1,.115.91,7.373,7.373,0,0,1,4.512,3.246.6.6,0,0,1,.126.429.552.552,0,0,1-.157.347,3.567,3.567,0,0,0-1.032,2.519v3.726a.546.546,0,0,1-1.092,0V8.737a4.65,4.65,0,0,1,1.061-2.969,6.31,6.31,0,0,0-4.529-2.659l-.96-.1a.547.547,0,0,1-.15-1.048l.437-.18C87.255-.2,81.174,2,81.174,9.625v2.838a1.128,1.128,0,0,0,.615,1V9.921A3.828,3.828,0,0,1,85.612,6.1h6.965A3.828,3.828,0,0,1,96.4,9.921v4.473a7.316,7.316,0,0,1-9.366,6.968,3.34,3.34,0,0,1-.286,1.115,4.137,4.137,0,0,0,3.225.636A.546.546,0,0,1,90.624,23.531Zm-1.529-2.965a6.221,6.221,0,0,0,6.214-6.214V9.921A2.734,2.734,0,0,0,92.577,7.19H85.612a2.734,2.734,0,0,0-2.731,2.731v4.431A6.221,6.221,0,0,0,89.094,20.566Zm5.531,9.414H92.986a.546.546,0,1,0,0,1.092h1.639a.546.546,0,1,0,0-1.092Z" transform="translate(0 0)"/>
  </g>
</svg>
